<svg width="1363" height="1070" xmlns="http://www.w3.org/2000/svg" xmlns:xlink="http://www.w3.org/1999/xlink" overflow="hidden"><defs><clipPath id="clip0"><rect x="2629" y="611" width="1363" height="1070"/></clipPath></defs><g clip-path="url(#clip0)" transform="translate(-2629 -611)"><path d="M3137.53 650.179C3135.11 650.179 3132.94 651.159 3131.01 653.12 3129.09 655.08 3127.57 657.724 3126.47 661.05 3125.36 664.377 3124.81 667.692 3124.81 670.995 3124.81 673.467 3125.15 675.314 3125.83 676.538 3126.5 677.762 3127.64 678.374 3129.23 678.374 3129.97 678.374 3130.71 678.213 3131.48 677.893 3132.24 677.572 3133.03 677.055 3133.85 676.342 3134.67 675.629 3135.47 674.762 3136.27 673.74 3137.07 672.718 3137.8 671.69 3138.46 670.657 3139.13 669.623 3139.74 668.399 3140.32 666.985 3140.89 665.571 3141.37 663.866 3141.78 661.87L3142.1 660.338C3142.45 658.627 3142.63 657.011 3142.63 655.49 3142.63 653.636 3142.24 652.288 3141.46 651.444 3140.67 650.601 3139.36 650.179 3137.53 650.179ZM3152.47 631.073 3154.57 631.073 3145.7 670.532C3145.17 672.861 3144.91 674.619 3144.91 675.807 3144.91 676.758 3145.07 677.447 3145.38 677.875 3145.69 678.302 3146.17 678.516 3146.84 678.516 3147.55 678.516 3148.31 678.225 3149.12 677.643 3149.93 677.061 3151.07 675.95 3152.54 674.31L3154.57 676.306C3152.39 678.611 3150.55 680.239 3149.05 681.19 3147.55 682.14 3145.94 682.615 3144.2 682.615 3142.73 682.615 3141.55 682.128 3140.67 681.154 3139.79 680.18 3139.35 678.885 3139.35 677.269 3139.35 675.962 3139.63 674.572 3140.17 673.098L3139.71 672.956C3137.43 676.283 3135.27 678.718 3133.22 680.263 3131.18 681.807 3129.02 682.58 3126.73 682.58 3124.12 682.58 3122.09 681.594 3120.66 679.621 3119.22 677.649 3118.5 674.881 3118.5 671.316 3118.5 667.229 3119.3 663.302 3120.91 659.536 3122.51 655.769 3124.71 652.799 3127.52 650.624 3130.32 648.45 3133.45 647.363 3136.89 647.363 3138.34 647.363 3139.68 647.511 3140.9 647.809 3142.13 648.106 3143.38 648.622 3144.66 649.359L3146.52 641.125C3146.71 640.341 3146.87 639.474 3147.02 638.523 3147.16 637.573 3147.23 636.741 3147.23 636.028 3147.23 635.315 3147.1 634.775 3146.84 634.406 3146.58 634.038 3146.2 633.771 3145.72 633.604 3145.23 633.438 3144.35 633.319 3143.1 633.248L3143.52 631.394Z" fill-rule="evenodd"/><text fill="#000000" fill-opacity="0" font-family="Arial,Arial_MSFontService,sans-serif" font-size="51.542" x="3118.5" y="676.173">𝑑</text><path d="M3237.13 674.055C3236.36 674.055 3235.5 674.31 3234.57 674.818 3233.64 675.327 3232.72 676.082 3231.81 677.083 3230.91 678.084 3230.07 679.321 3229.3 680.797 3228.54 682.272 3227.93 683.967 3227.48 685.882 3227.34 686.813 3227.19 687.728 3227.01 688.625 3226.84 689.522 3226.75 690.359 3226.75 691.135 3226.75 692.533 3227.07 693.52 3227.7 694.098 3228.33 694.676 3229.34 694.965 3230.74 694.965 3232.16 694.965 3233.46 694.512 3234.65 693.607 3235.84 692.701 3236.86 691.515 3237.71 690.048 3238.57 688.582 3239.24 686.934 3239.72 685.105 3240.2 683.277 3240.44 681.431 3240.44 679.567 3240.44 677.721 3240.18 676.341 3239.66 675.427 3239.13 674.512 3238.29 674.055 3237.13 674.055ZM3202.4 673.149C3201.38 673.149 3200.43 673.374 3199.55 673.822 3198.67 674.271 3197.87 674.883 3197.15 675.66 3196.42 676.436 3195.78 677.333 3195.22 678.351 3194.66 679.369 3194.18 680.447 3193.79 681.586 3193.41 682.724 3193.11 683.893 3192.91 685.092 3192.72 686.291 3192.62 687.443 3192.62 688.547 3192.62 690.411 3192.88 691.795 3193.41 692.701 3193.93 693.607 3194.78 694.059 3195.95 694.059 3196.54 694.059 3197.11 693.956 3197.65 693.749 3198.19 693.542 3198.77 693.214 3199.37 692.766 3200.89 691.575 3202.18 690.126 3203.25 688.418 3204.32 686.71 3205.12 684.691 3205.66 682.362 3205.9 681.293 3206.09 680.326 3206.23 679.464 3206.37 678.601 3206.44 677.782 3206.44 677.005 3206.44 675.625 3206.11 674.637 3205.47 674.042 3204.82 673.447 3203.8 673.149 3202.4 673.149ZM3261.58 670.846 3262.84 670.846 3259.01 688.081C3258.77 689.099 3258.6 689.91 3258.51 690.514 3258.41 691.118 3258.37 691.661 3258.37 692.144 3258.37 692.8 3258.5 693.274 3258.77 693.568 3259.04 693.861 3259.44 694.008 3259.97 694.008 3260.28 694.008 3260.59 693.947 3260.9 693.827 3261.21 693.706 3261.55 693.516 3261.9 693.257 3262.25 692.998 3262.64 692.666 3263.06 692.261 3263.49 691.855 3263.96 691.368 3264.47 690.799L3266.23 692.507C3265.34 693.421 3264.52 694.193 3263.79 694.823 3263.06 695.453 3262.36 695.966 3261.71 696.363 3261.05 696.759 3260.41 697.044 3259.78 697.217 3259.15 697.389 3258.48 697.475 3257.77 697.475 3257.12 697.475 3256.52 697.355 3256 697.113 3255.47 696.872 3255.02 696.539 3254.64 696.117 3254.26 695.694 3253.97 695.19 3253.76 694.603 3253.55 694.016 3253.45 693.369 3253.45 692.662 3253.45 692.093 3253.52 691.385 3253.66 690.54 3253.79 689.695 3253.97 688.776 3254.19 687.784 3254.4 686.792 3254.64 685.752 3254.9 684.665 3255.16 683.578 3255.41 682.5 3255.66 681.431 3255.91 680.361 3256.14 679.33 3256.34 678.338 3256.53 677.346 3256.68 676.445 3256.76 675.634 3256.8 675.496 3256.81 675.362 3256.81 675.233 3256.81 675.103 3256.81 674.987 3256.81 674.883 3256.78 674.21 3256.54 673.719 3256.1 673.408 3255.66 673.098 3254.88 672.925 3253.76 672.891L3254.07 671.131ZM3277.57 670.587C3278.85 670.587 3279.84 671.006 3280.54 671.842 3281.24 672.679 3281.58 673.779 3281.58 675.142 3281.58 675.487 3281.55 675.849 3281.49 676.229 3281.43 676.608 3281.33 676.971 3281.17 677.316L3281.53 677.445C3283.21 675.151 3284.86 673.434 3286.49 672.295 3288.12 671.157 3289.81 670.587 3291.55 670.587 3293.38 670.587 3294.74 671.079 3295.65 672.062 3296.56 673.046 3297.01 674.426 3297.01 676.203 3297.01 676.738 3296.93 677.48 3296.78 678.429 3296.62 679.378 3296.42 680.413 3296.18 681.534 3295.94 682.655 3295.68 683.807 3295.4 684.989 3295.13 686.171 3294.87 687.262 3294.63 688.263 3294.39 689.263 3294.19 690.117 3294.03 690.825 3293.88 691.532 3293.8 691.972 3293.8 692.144 3293.8 692.8 3293.92 693.274 3294.16 693.568 3294.4 693.861 3294.79 694.008 3295.33 694.008 3295.65 694.008 3295.98 693.947 3296.3 693.827 3296.62 693.706 3296.95 693.516 3297.29 693.257 3297.64 692.998 3298.02 692.666 3298.43 692.261 3298.85 691.855 3299.31 691.368 3299.83 690.799L3301.62 692.507C3300.77 693.369 3299.99 694.111 3299.29 694.732 3298.58 695.353 3297.89 695.867 3297.23 696.272 3296.56 696.678 3295.9 696.979 3295.25 697.178 3294.59 697.376 3293.89 697.475 3293.15 697.475 3292.53 697.475 3291.96 697.355 3291.43 697.113 3290.91 696.872 3290.45 696.539 3290.07 696.117 3289.69 695.694 3289.4 695.194 3289.19 694.616 3288.99 694.038 3288.88 693.404 3288.88 692.714 3288.88 692.024 3288.96 691.217 3289.1 690.294 3289.25 689.371 3289.47 688.357 3289.76 687.253 3290.07 686.132 3290.36 685.058 3290.63 684.031 3290.9 683.005 3291.13 682.056 3291.33 681.185 3291.53 680.313 3291.68 679.537 3291.79 678.856 3291.91 678.174 3291.96 677.609 3291.96 677.161 3291.96 676.091 3291.76 675.306 3291.35 674.806 3290.95 674.305 3290.3 674.055 3289.4 674.055 3288.88 674.055 3288.33 674.189 3287.73 674.456 3287.14 674.724 3286.54 675.095 3285.93 675.569 3285.33 676.043 3284.74 676.604 3284.16 677.251 3283.58 677.898 3283.05 678.588 3282.57 679.321 3282.09 680.055 3281.66 680.822 3281.29 681.625 3280.92 682.427 3280.64 683.225 3280.47 684.018L3277.57 697.01 3272.5 697.01 3276.38 680.137C3276.61 679.239 3276.77 678.437 3276.88 677.73 3276.98 677.023 3277.03 676.445 3277.03 675.996 3277.03 674.737 3276.52 674.107 3275.5 674.107 3275.19 674.107 3274.88 674.172 3274.56 674.301 3274.24 674.43 3273.9 674.624 3273.55 674.883 3273.2 675.142 3272.81 675.47 3272.4 675.867 3271.98 676.263 3271.52 676.729 3271 677.264L3269.21 675.582C3270.08 674.702 3270.87 673.947 3271.58 673.318 3272.3 672.688 3272.98 672.17 3273.63 671.765 3274.27 671.359 3274.92 671.062 3275.56 670.872 3276.19 670.682 3276.87 670.587 3277.57 670.587ZM3201.93 670.587C3203.3 670.587 3204.5 670.747 3205.54 671.066 3206.59 671.385 3207.54 671.821 3208.4 672.373L3210.91 670.587 3213.01 671.131 3209.1 688.081C3208.88 689.048 3208.72 689.846 3208.64 690.475 3208.55 691.105 3208.51 691.661 3208.51 692.144 3208.51 692.8 3208.64 693.274 3208.91 693.568 3209.17 693.861 3209.56 694.008 3210.06 694.008 3210.37 694.008 3210.68 693.947 3210.98 693.827 3211.28 693.706 3211.61 693.516 3211.96 693.257 3212.31 692.998 3212.7 692.666 3213.13 692.261 3213.55 691.855 3214.03 691.368 3214.56 690.799 3214.84 691.092 3215.12 691.381 3215.42 691.666 3215.71 691.95 3215.99 692.231 3216.27 692.507 3215.41 693.387 3214.62 694.141 3213.91 694.771 3213.21 695.401 3212.52 695.918 3211.86 696.324 3211.19 696.729 3210.54 697.023 3209.9 697.204 3209.26 697.385 3208.6 697.475 3207.91 697.475 3206.67 697.475 3205.7 697.074 3205.01 696.272 3204.32 695.47 3203.98 694.37 3203.98 692.973 3203.98 692.196 3204.1 691.454 3204.34 690.747L3203.98 690.592C3203.1 691.817 3202.24 692.86 3201.42 693.723 3200.59 694.586 3199.77 695.297 3198.96 695.858 3198.15 696.419 3197.33 696.828 3196.5 697.087 3195.67 697.346 3194.81 697.475 3193.91 697.475 3191.86 697.475 3190.27 696.738 3189.15 695.263 3188.03 693.788 3187.47 691.644 3187.47 688.832 3187.47 687.158 3187.64 685.55 3188 684.005 3188.35 682.461 3188.85 681.012 3189.5 679.658 3190.14 678.304 3190.92 677.07 3191.81 675.957 3192.71 674.844 3193.69 673.891 3194.76 673.098 3195.83 672.304 3196.97 671.687 3198.18 671.247 3199.39 670.807 3200.64 670.587 3201.93 670.587ZM3176.3 670.587C3177.56 670.587 3178.73 670.656 3179.81 670.794 3180.89 670.932 3182.01 671.148 3183.16 671.441L3181.71 677.782 3178.66 677.782C3178.64 676.884 3178.58 676.138 3178.47 675.543 3178.35 674.948 3178.17 674.478 3177.92 674.133 3177.67 673.788 3177.34 673.542 3176.94 673.395 3176.53 673.248 3176.04 673.167 3175.45 673.149 3174.52 673.149 3173.63 673.356 3172.77 673.77 3171.92 674.184 3171.12 674.758 3170.39 675.491 3169.66 676.225 3168.99 677.083 3168.39 678.066 3167.78 679.05 3167.26 680.111 3166.83 681.249 3166.4 682.388 3166.07 683.574 3165.84 684.808 3165.6 686.041 3165.49 687.271 3165.49 688.495 3165.49 690.324 3165.85 691.717 3166.57 692.675 3167.3 693.632 3168.39 694.111 3169.83 694.111 3170.65 694.111 3171.4 694.038 3172.09 693.891 3172.78 693.745 3173.45 693.499 3174.1 693.154 3174.76 692.809 3175.44 692.356 3176.14 691.795 3176.83 691.234 3177.61 690.54 3178.45 689.712 3178.78 690.057 3179.09 690.398 3179.4 690.734 3179.7 691.07 3180.01 691.411 3180.34 691.756 3178.48 693.689 3176.61 695.125 3174.75 696.065 3172.89 697.005 3170.89 697.475 3168.75 697.475 3166.07 697.475 3164.02 696.695 3162.6 695.133 3161.18 693.572 3160.47 691.342 3160.47 688.444 3160.47 686.822 3160.65 685.256 3161.01 683.747 3161.37 682.237 3161.89 680.818 3162.58 679.49 3163.26 678.161 3164.07 676.953 3165.02 675.867 3165.97 674.78 3167.03 673.844 3168.2 673.059 3169.38 672.274 3170.65 671.666 3172.01 671.234 3173.37 670.803 3174.8 670.587 3176.3 670.587ZM3231.08 661.685 3232.94 661.685 3229.32 676.462 3229.68 676.643C3230.56 675.608 3231.4 674.706 3232.2 673.939 3233 673.171 3233.79 672.541 3234.56 672.049 3235.33 671.558 3236.09 671.191 3236.85 670.95 3237.61 670.708 3238.39 670.587 3239.2 670.587 3241.24 670.587 3242.81 671.329 3243.91 672.813 3245.02 674.297 3245.57 676.462 3245.57 679.308 3245.57 681.793 3245.19 684.135 3244.42 686.335 3243.65 688.534 3242.61 690.462 3241.3 692.119 3239.99 693.775 3238.47 695.082 3236.73 696.039 3235 696.997 3233.16 697.475 3231.23 697.475 3229.99 697.475 3228.84 697.35 3227.79 697.1 3226.74 696.85 3225.71 696.432 3224.71 695.845 3224.28 696.087 3223.84 696.354 3223.39 696.647 3222.94 696.941 3222.52 697.217 3222.12 697.475 3221.81 697.389 3221.48 697.307 3221.14 697.23 3220.79 697.152 3220.47 697.061 3220.16 696.958L3226.37 669.216C3226.56 668.353 3226.7 667.646 3226.79 667.094 3226.89 666.542 3226.94 666.058 3226.94 665.644 3226.94 665.317 3226.88 665.032 3226.78 664.79 3226.68 664.549 3226.5 664.355 3226.24 664.208 3225.98 664.061 3225.63 663.954 3225.2 663.885 3224.77 663.816 3224.23 663.773 3223.57 663.755L3223.96 661.995ZM3260.07 660.417 3265.25 660.417 3263.98 665.981 3258.86 665.981Z" fill-rule="evenodd"/><text fill="#000000" fill-opacity="0" font-family="Arial,Arial_MSFontService,sans-serif" font-size="37.0586" x="3160.47" y="692.843">𝑐𝑎𝑏𝑖𝑛</text><rect x="3540.5" y="1252.5" width="12" height="36.9998" stroke="#000000" stroke-width="4.58333" stroke-miterlimit="8" fill="#FFFFFF"/><rect x="3450.5" y="1252.5" width="12" height="36.9998" stroke="#000000" stroke-width="4.58333" stroke-miterlimit="8" fill="#FFFFFF"/><rect x="3460.5" y="1299.5" width="11" height="37.0001" stroke="#000000" stroke-width="4.58333" stroke-miterlimit="8" fill="#FFFFFF"/><rect x="3530.5" y="1299.5" width="11" height="37.0001" stroke="#000000" stroke-width="4.58333" stroke-miterlimit="8" fill="#FFFFFF"/><path d="M3460.5 1180C3460.5 1172.54 3466.54 1166.5 3474 1166.5L3528 1166.5C3535.46 1166.5 3541.5 1172.54 3541.5 1180L3541.5 1277C3541.5 1284.46 3535.46 1290.5 3528 1290.5L3474 1290.5C3466.54 1290.5 3460.5 1284.46 3460.5 1277Z" stroke="#000000" stroke-width="4.58333" stroke-miterlimit="8" fill="#FFFFFF" fill-rule="evenodd"/><path d="M3449.5 1282.83C3449.5 1280.99 3450.99 1279.5 3452.83 1279.5L3549.17 1279.5C3551.01 1279.5 3552.5 1280.99 3552.5 1282.83L3552.5 1296.17C3552.5 1298.01 3551.01 1299.5 3549.17 1299.5L3452.83 1299.5C3450.99 1299.5 3449.5 1298.01 3449.5 1296.17Z" stroke="#000000" stroke-width="4.58333" stroke-miterlimit="8" fill="#FFFFFF" fill-rule="evenodd"/><rect x="3471.5" y="1181.5" width="58" height="98" stroke="#000000" stroke-width="4.58333" stroke-miterlimit="8" fill="#FFFFFF"/><path d="M3466.5 1174.33C3466.5 1172.22 3468.22 1170.5 3470.33 1170.5L3530.67 1170.5C3532.78 1170.5 3534.5 1172.22 3534.5 1174.33L3534.5 1189.67C3534.5 1191.78 3532.78 1193.5 3530.67 1193.5L3470.33 1193.5C3468.22 1193.5 3466.5 1191.78 3466.5 1189.67Z" stroke="#000000" stroke-width="4.58333" stroke-miterlimit="8" fill="#FFFFFF" fill-rule="evenodd"/><rect x="3650.5" y="1252.5" width="12" height="36.9998" stroke="#000000" stroke-width="4.58333" stroke-miterlimit="8" fill="#FFFFFF"/><rect x="3560.5" y="1252.5" width="12" height="36.9998" stroke="#000000" stroke-width="4.58333" stroke-miterlimit="8" fill="#FFFFFF"/><rect x="3570.5" y="1299.5" width="12" height="37.0001" stroke="#000000" stroke-width="4.58333" stroke-miterlimit="8" fill="#FFFFFF"/><rect x="3640.5" y="1299.5" width="11" height="37.0001" stroke="#000000" stroke-width="4.58333" stroke-miterlimit="8" fill="#FFFFFF"/><path d="M3570.5 1180C3570.5 1172.54 3576.54 1166.5 3584 1166.5L3638 1166.5C3645.46 1166.5 3651.5 1172.54 3651.5 1180L3651.5 1277C3651.5 1284.46 3645.46 1290.5 3638 1290.5L3584 1290.5C3576.54 1290.5 3570.5 1284.46 3570.5 1277Z" stroke="#000000" stroke-width="4.58333" stroke-miterlimit="8" fill="#FFFFFF" fill-rule="evenodd"/><path d="M3560.5 1282.83C3560.5 1280.99 3561.99 1279.5 3563.83 1279.5L3660.17 1279.5C3662.01 1279.5 3663.5 1280.99 3663.5 1282.83L3663.5 1296.17C3663.5 1298.01 3662.01 1299.5 3660.17 1299.5L3563.83 1299.5C3561.99 1299.5 3560.5 1298.01 3560.5 1296.17Z" stroke="#000000" stroke-width="4.58333" stroke-miterlimit="8" fill="#FFFFFF" fill-rule="evenodd"/><rect x="3582.5" y="1181.5" width="57" height="98" stroke="#000000" stroke-width="4.58333" stroke-miterlimit="8" fill="#FFFFFF"/><path d="M3577.5 1174.33C3577.5 1172.22 3579.22 1170.5 3581.33 1170.5L3640.67 1170.5C3642.78 1170.5 3644.5 1172.22 3644.5 1174.33L3644.5 1189.67C3644.5 1191.78 3642.78 1193.5 3640.67 1193.5L3581.33 1193.5C3579.22 1193.5 3577.5 1191.78 3577.5 1189.67Z" stroke="#000000" stroke-width="4.58333" stroke-miterlimit="8" fill="#FFFFFF" fill-rule="evenodd"/><rect x="3761.5" y="1252.5" width="11.9998" height="37.9998" stroke="#000000" stroke-width="4.58333" stroke-miterlimit="8" fill="#FFFFFF"/><rect x="3671.5" y="1252.5" width="12" height="37.9998" stroke="#000000" stroke-width="4.58333" stroke-miterlimit="8" fill="#FFFFFF"/><rect x="3681.5" y="1300.5" width="12" height="37.0001" stroke="#000000" stroke-width="4.58333" stroke-miterlimit="8" fill="#FFFFFF"/><rect x="3751.5" y="1300.5" width="11" height="37.0001" stroke="#000000" stroke-width="4.58333" stroke-miterlimit="8" fill="#FFFFFF"/><path d="M3681.5 1181C3681.5 1173.54 3687.54 1167.5 3695 1167.5L3749 1167.5C3756.46 1167.5 3762.5 1173.54 3762.5 1181L3762.5 1277C3762.5 1284.46 3756.46 1290.5 3749 1290.5L3695 1290.5C3687.54 1290.5 3681.5 1284.46 3681.5 1277Z" stroke="#000000" stroke-width="4.58333" stroke-miterlimit="8" fill="#FFFFFF" fill-rule="evenodd"/><path d="M3671.5 1283.83C3671.5 1281.99 3672.99 1280.5 3674.83 1280.5L3771.17 1280.5C3773.01 1280.5 3774.5 1281.99 3774.5 1283.83L3774.5 1297.17C3774.5 1299.01 3773.01 1300.5 3771.17 1300.5L3674.83 1300.5C3672.99 1300.5 3671.5 1299.01 3671.5 1297.17Z" stroke="#000000" stroke-width="4.58333" stroke-miterlimit="8" fill="#FFFFFF" fill-rule="evenodd"/><rect x="3693.5" y="1182.5" width="57" height="98" stroke="#000000" stroke-width="4.58333" stroke-miterlimit="8" fill="#FFFFFF"/><path d="M3688.5 1174.5C3688.5 1172.29 3690.29 1170.5 3692.5 1170.5L3751.5 1170.5C3753.71 1170.5 3755.5 1172.29 3755.5 1174.5L3755.5 1190.5C3755.5 1192.71 3753.71 1194.5 3751.5 1194.5L3692.5 1194.5C3690.29 1194.5 3688.5 1192.71 3688.5 1190.5Z" stroke="#000000" stroke-width="4.58333" stroke-miterlimit="8" fill="#FFFFFF" fill-rule="evenodd"/><path d="M2855.5 1201C2855.5 941.702 3065.7 731.5 3325 731.5 3584.3 731.5 3794.5 941.702 3794.5 1201 3794.5 1460.3 3584.3 1670.5 3325 1670.5 3065.7 1670.5 2855.5 1460.3 2855.5 1201Z" stroke="#000000" stroke-width="20.625" stroke-miterlimit="8" fill="none" fill-rule="evenodd"/><path d="M2881.5 1346.5 3764.18 1346.5" stroke="#000000" stroke-width="20.625" stroke-miterlimit="8" fill="none" fill-rule="evenodd"/><path d="M2886.5 1010.5 3764.4 1010.5" stroke="#000000" stroke-width="20.625" stroke-miterlimit="8" fill="none" fill-rule="evenodd"/><path d="M0 0 430.834 182.188" stroke="#000000" stroke-width="6.875" stroke-miterlimit="8" stroke-dasharray="27.5 20.625" fill="none" fill-rule="evenodd" transform="matrix(1 0 0 -1 3330.5 1192.69)"/><path d="M3336.5 1191.5 3797.12 1191.5" stroke="#000000" stroke-width="6.875" stroke-miterlimit="8" fill="none" fill-rule="evenodd"/><path d="M3336.5 1192.5 3760.46 1346.98" stroke="#000000" stroke-width="6.875" stroke-miterlimit="8" stroke-dasharray="27.5 20.625" fill="none" fill-rule="evenodd"/><path d="M3904.84 1300.73C3903.44 1307.23 3902.73 1312.69 3902.73 1317.12 3902.73 1320.48 3903.24 1322.94 3904.26 1324.51 3905.28 1326.08 3906.93 1326.87 3909.2 1326.87 3912.56 1326.87 3915.74 1324.62 3918.75 1320.11 3921.76 1315.6 3924.31 1309.14 3926.41 1300.73ZM3923.26 1270.45C3919.76 1270.45 3916.52 1272.67 3913.54 1277.1 3910.56 1281.53 3908.02 1287.88 3905.92 1296.14L3927.44 1296.14C3928.85 1289.83 3929.55 1284.39 3929.55 1279.84 3929.55 1276.69 3929.04 1274.34 3928.02 1272.79 3927.01 1271.23 3925.42 1270.45 3923.26 1270.45ZM3923.8 1266.81C3932.49 1266.81 3936.83 1272.32 3936.83 1283.34 3936.83 1286.46 3936.48 1290.18 3935.77 1294.5 3935.07 1298.83 3933.95 1303.24 3932.43 1307.73 3930.9 1312.23 3928.97 1316.2 3926.63 1319.66 3924.3 1323.12 3921.6 1325.79 3918.55 1327.68 3915.49 1329.57 3912.2 1330.51 3908.66 1330.51 3904.2 1330.51 3900.88 1329.15 3898.69 1326.42 3896.5 1323.7 3895.41 1319.61 3895.41 1314.16 3895.41 1311.19 3895.74 1307.54 3896.4 1303.2 3897.06 1298.85 3898.14 1294.41 3899.66 1289.88 3901.17 1285.34 3903.11 1281.31 3905.5 1277.79 3907.88 1274.27 3910.62 1271.56 3913.72 1269.66 3916.82 1267.76 3920.18 1266.81 3923.8 1266.81Z" fill-rule="evenodd"/><text fill="#000000" fill-opacity="0" font-family="Arial,Arial_MSFontService,sans-serif" font-size="63.6992" x="3895.41" y="1322.55">𝜃</text><path d="M3958.53 1306.35 3960.52 1306.35C3960.48 1307.55 3960.45 1308.63 3960.42 1309.58 3960.4 1310.53 3960.39 1311.45 3960.38 1312.34 3960.36 1313.24 3960.36 1314.12 3960.36 1314.99L3960.36 1339.85C3960.36 1340.53 3960.38 1341.11 3960.42 1341.6 3960.47 1342.1 3960.54 1342.51 3960.64 1342.85 3960.74 1343.19 3960.87 1343.47 3961.03 1343.71 3961.19 1343.95 3961.38 1344.16 3961.6 1344.34 3961.86 1344.6 3962.21 1344.8 3962.65 1344.94 3963.09 1345.08 3963.64 1345.2 3964.32 1345.3 3964.99 1345.4 3965.81 1345.48 3966.75 1345.53 3967.7 1345.58 3968.84 1345.62 3970.17 1345.64L3970.17 1348.49 3944.23 1348.49 3944.23 1345.64C3945.52 1345.6 3946.61 1345.55 3947.5 1345.5 3948.4 1345.44 3949.16 1345.37 3949.79 1345.27 3950.42 1345.17 3950.93 1345.06 3951.31 1344.94 3951.69 1344.82 3952.03 1344.67 3952.31 1344.5 3952.62 1344.3 3952.88 1344.09 3953.1 1343.86 3953.31 1343.63 3953.49 1343.34 3953.62 1342.99 3953.75 1342.65 3953.85 1342.22 3953.93 1341.72 3954.01 1341.22 3954.04 1340.6 3954.04 1339.85L3954.04 1316.4C3954.04 1315.55 3953.88 1314.95 3953.55 1314.6 3953.23 1314.25 3952.76 1314.07 3952.15 1314.07 3951.47 1314.07 3950.47 1314.42 3949.14 1315.12 3947.81 1315.82 3946.08 1316.86 3943.97 1318.23 3943.69 1317.73 3943.42 1317.23 3943.18 1316.72 3942.94 1316.22 3942.69 1315.71 3942.43 1315.19 3945.14 1313.7 3947.81 1312.23 3950.46 1310.75 3953.11 1309.28 3955.8 1307.82 3958.53 1306.35Z" fill-rule="evenodd"/><text fill="#000000" fill-opacity="0" font-family="Arial,Arial_MSFontService,sans-serif" font-size="42.1367" x="3942.43" y="1343.22">1</text><path d="M3894.35 1037.51C3892.94 1044.01 3892.23 1049.48 3892.23 1053.91 3892.23 1057.26 3892.74 1059.73 3893.76 1061.3 3894.78 1062.87 3896.43 1063.66 3898.7 1063.66 3902.06 1063.66 3905.24 1061.4 3908.25 1056.9 3911.26 1052.39 3913.81 1045.93 3915.91 1037.51ZM3912.76 1007.24C3909.26 1007.24 3906.02 1009.45 3903.04 1013.88 3900.06 1018.32 3897.52 1024.66 3895.42 1032.93L3916.94 1032.93C3918.35 1026.61 3919.05 1021.18 3919.05 1016.62 3919.05 1013.48 3918.54 1011.13 3917.53 1009.57 3916.51 1008.01 3914.92 1007.24 3912.76 1007.24ZM3913.3 1003.6C3921.99 1003.6 3926.33 1009.11 3926.33 1020.13 3926.33 1023.24 3925.98 1026.96 3925.27 1031.29 3924.57 1035.62 3923.46 1040.03 3921.93 1044.52 3920.4 1049.01 3918.47 1052.99 3916.13 1056.45 3913.8 1059.91 3911.1 1062.58 3908.05 1064.47 3904.99 1066.35 3901.7 1067.3 3898.16 1067.3 3893.7 1067.3 3890.38 1065.93 3888.19 1063.21 3886.01 1060.48 3884.91 1056.39 3884.91 1050.94 3884.91 1047.98 3885.24 1044.33 3885.9 1039.98 3886.56 1035.64 3887.65 1031.2 3889.16 1026.66 3890.67 1022.13 3892.62 1018.1 3895 1014.58 3897.38 1011.06 3900.12 1008.35 3903.22 1006.45 3906.32 1004.55 3909.68 1003.6 3913.3 1003.6Z" fill-rule="evenodd"/><text fill="#000000" fill-opacity="0" font-family="Arial,Arial_MSFontService,sans-serif" font-size="63.6992" x="3884.91" y="1059.33">𝜃</text><path d="M3947.61 1042.91C3949.88 1042.91 3951.81 1043.17 3953.42 1043.68 3955.02 1044.19 3956.32 1044.89 3957.32 1045.76 3958.33 1046.63 3959.05 1047.68 3959.5 1048.9 3959.95 1050.12 3960.17 1051.44 3960.17 1052.86 3960.17 1053.71 3960.11 1054.5 3959.99 1055.23 3959.87 1055.96 3959.66 1056.68 3959.37 1057.39 3959.07 1058.1 3958.69 1058.81 3958.21 1059.53 3957.73 1060.25 3957.13 1061.01 3956.41 1061.82 3955.86 1062.52 3955.15 1063.33 3954.28 1064.24 3953.41 1065.16 3952.46 1066.14 3951.42 1067.19 3950.38 1068.23 3949.3 1069.32 3948.16 1070.46 3947.03 1071.59 3945.93 1072.71 3944.86 1073.83 3943.79 1074.94 3942.81 1076.02 3941.92 1077.07 3941.02 1078.11 3940.29 1079.07 3939.72 1079.94L3951.83 1079.94C3952.85 1079.94 3953.67 1079.91 3954.28 1079.83 3954.89 1079.75 3955.4 1079.58 3955.8 1079.32 3956.21 1079.06 3956.55 1078.66 3956.83 1078.13 3957.12 1077.59 3957.44 1076.86 3957.82 1075.92L3960.86 1075.92C3960.75 1077.47 3960.65 1079.03 3960.55 1080.6 3960.45 1082.17 3960.35 1083.73 3960.24 1085.28L3932.53 1085.28 3932.53 1083.58C3933.05 1082.4 3933.66 1081.24 3934.36 1080.09 3935.06 1078.95 3935.84 1077.79 3936.71 1076.61 3937.59 1075.43 3938.58 1074.21 3939.69 1072.96 3940.8 1071.71 3942.04 1070.4 3943.39 1069.05 3945.44 1067 3947.11 1065.25 3948.39 1063.8 3949.68 1062.35 3950.69 1061.06 3951.44 1059.92 3952.18 1058.79 3952.68 1057.74 3952.96 1056.78 3953.23 1055.82 3953.37 1054.8 3953.37 1053.71 3953.37 1052.59 3953.21 1051.57 3952.89 1050.63 3952.58 1049.69 3952.12 1048.9 3951.53 1048.24 3950.95 1047.59 3950.2 1047.08 3949.29 1046.71 3948.39 1046.34 3947.35 1046.15 3946.17 1046.15 3944.14 1046.15 3942.44 1046.7 3941.07 1047.8 3939.69 1048.9 3938.62 1050.5 3937.86 1052.59L3933.57 1052.59 3933.57 1046.22C3936.37 1045.06 3938.93 1044.22 3941.28 1043.7 3943.62 1043.17 3945.73 1042.91 3947.61 1042.91Z" fill-rule="evenodd"/><text fill="#000000" fill-opacity="0" font-family="Arial,Arial_MSFontService,sans-serif" font-size="42.3657" x="3932.53" y="1079.98">2</text><path d="M3325.96 1055.41 3326.25 1310.36 3319.38 1310.37 3319.09 1055.42ZM3308.78 1060.02 3322.5 1032.5 3336.28 1059.98ZM3336.56 1305.76 3322.84 1333.28 3309.06 1305.8Z" fill="#FA8A3A"/><path d="M3120.29 1065.91C3117.86 1065.91 3115.69 1066.89 3113.76 1068.85 3111.84 1070.81 3110.32 1073.45 3109.22 1076.78 3108.11 1080.11 3107.56 1083.42 3107.56 1086.72 3107.56 1089.2 3107.9 1091.04 3108.58 1092.27 3109.25 1093.49 3110.39 1094.1 3111.98 1094.1 3112.72 1094.1 3113.47 1093.94 3114.23 1093.62 3114.99 1093.3 3115.78 1092.78 3116.6 1092.07 3117.42 1091.36 3118.22 1090.49 3119.02 1089.47 3119.82 1088.45 3120.55 1087.42 3121.21 1086.39 3121.88 1085.35 3122.5 1084.13 3123.07 1082.71 3123.64 1081.3 3124.12 1079.6 3124.53 1077.6L3124.85 1076.07C3125.2 1074.36 3125.38 1072.74 3125.38 1071.22 3125.38 1069.37 3124.99 1068.02 3124.21 1067.17 3123.42 1066.33 3122.12 1065.91 3120.29 1065.91ZM3135.22 1046.8 3137.32 1046.8 3128.45 1086.26C3127.93 1088.59 3127.66 1090.35 3127.66 1091.54 3127.66 1092.49 3127.82 1093.18 3128.13 1093.6 3128.44 1094.03 3128.92 1094.25 3129.59 1094.25 3130.3 1094.25 3131.06 1093.95 3131.87 1093.37 3132.68 1092.79 3133.82 1091.68 3135.29 1090.04L3137.32 1092.04C3135.14 1094.34 3133.3 1095.97 3131.8 1096.92 3130.3 1097.87 3128.69 1098.34 3126.95 1098.34 3125.48 1098.34 3124.3 1097.86 3123.42 1096.88 3122.54 1095.91 3122.1 1094.61 3122.1 1093 3122.1 1091.69 3122.38 1090.3 3122.92 1088.83L3122.46 1088.69C3120.18 1092.01 3118.02 1094.45 3115.97 1095.99 3113.93 1097.54 3111.77 1098.31 3109.49 1098.31 3106.87 1098.31 3104.85 1097.32 3103.41 1095.35 3101.97 1093.38 3101.25 1090.61 3101.25 1087.05 3101.25 1082.96 3102.05 1079.03 3103.66 1075.27 3105.26 1071.5 3107.47 1068.53 3110.27 1066.35 3113.07 1064.18 3116.2 1063.09 3119.64 1063.09 3121.09 1063.09 3122.43 1063.24 3123.65 1063.54 3124.88 1063.83 3126.13 1064.35 3127.41 1065.09L3129.27 1056.85C3129.46 1056.07 3129.62 1055.2 3129.77 1054.25 3129.91 1053.3 3129.98 1052.47 3129.98 1051.76 3129.98 1051.04 3129.85 1050.5 3129.59 1050.14 3129.33 1049.77 3128.95 1049.5 3128.47 1049.33 3127.98 1049.17 3127.11 1049.05 3125.85 1048.98L3126.27 1047.12Z" fill-rule="evenodd"/><text fill="#000000" fill-opacity="0" font-family="Arial,Arial_MSFontService,sans-serif" font-size="51.542" x="3101.25" y="1091.9">𝑑</text><path d="M3236.52 1088.88C3235.55 1088.88 3234.65 1089.09 3233.8 1089.53 3232.96 1089.96 3232.18 1090.55 3231.47 1091.31 3230.77 1092.07 3230.13 1092.97 3229.57 1094 3229.01 1095.04 3228.54 1096.15 3228.15 1097.34 3227.76 1098.53 3227.46 1099.77 3227.25 1101.07 3227.05 1102.36 3226.94 1103.66 3226.94 1104.95 3226.94 1106.93 3227.35 1108.4 3228.17 1109.34 3228.99 1110.28 3230.24 1110.75 3231.91 1110.75 3232.84 1110.75 3233.72 1110.52 3234.55 1110.06 3235.38 1109.6 3236.14 1108.99 3236.83 1108.21 3237.52 1107.43 3238.14 1106.52 3238.68 1105.48 3239.22 1104.44 3239.69 1103.32 3240.06 1102.13 3240.44 1100.94 3240.73 1099.71 3240.93 1098.44 3241.13 1097.17 3241.23 1095.94 3241.23 1094.73 3241.23 1092.81 3240.85 1091.36 3240.09 1090.37 3239.33 1089.37 3238.14 1088.88 3236.52 1088.88ZM3204.52 1088.88C3203.55 1088.88 3202.65 1089.09 3201.8 1089.53 3200.96 1089.96 3200.18 1090.55 3199.47 1091.31 3198.77 1092.07 3198.13 1092.97 3197.57 1094 3197.01 1095.04 3196.54 1096.15 3196.15 1097.34 3195.76 1098.53 3195.46 1099.77 3195.25 1101.07 3195.05 1102.36 3194.94 1103.66 3194.94 1104.95 3194.94 1106.93 3195.35 1108.4 3196.17 1109.34 3196.99 1110.28 3198.24 1110.75 3199.91 1110.75 3200.84 1110.75 3201.72 1110.52 3202.55 1110.06 3203.38 1109.6 3204.14 1108.99 3204.83 1108.21 3205.52 1107.43 3206.14 1106.52 3206.68 1105.48 3207.22 1104.44 3207.69 1103.32 3208.06 1102.13 3208.44 1100.94 3208.73 1099.71 3208.93 1098.44 3209.13 1097.17 3209.23 1095.94 3209.23 1094.73 3209.23 1092.81 3208.85 1091.36 3208.09 1090.37 3207.33 1089.37 3206.14 1088.88 3204.52 1088.88ZM3292.85 1086.32C3294.53 1086.32 3296.07 1086.42 3297.47 1086.63 3298.88 1086.83 3300.25 1087.14 3301.57 1087.53L3300.33 1093.38 3298.03 1093.38C3297.84 1091.83 3297.33 1090.68 3296.49 1089.94 3295.65 1089.2 3294.35 1088.83 3292.59 1088.83 3291.89 1088.83 3291.23 1088.92 3290.63 1089.11 3290.02 1089.3 3289.51 1089.56 3289.08 1089.9 3288.64 1090.24 3288.31 1090.64 3288.07 1091.1 3287.82 1091.57 3287.7 1092.08 3287.7 1092.63 3287.7 1093.13 3287.76 1093.59 3287.89 1094 3288.01 1094.42 3288.24 1094.82 3288.6 1095.22 3288.95 1095.62 3289.45 1096.03 3290.1 1096.46 3290.74 1096.89 3291.59 1097.38 3292.65 1097.94 3293.75 1098.54 3294.67 1099.12 3295.4 1099.67 3296.14 1100.22 3296.72 1100.78 3297.15 1101.35 3297.58 1101.92 3297.88 1102.53 3298.06 1103.18 3298.23 1103.82 3298.31 1104.54 3298.31 1105.34 3298.31 1106.56 3298.06 1107.66 3297.56 1108.64 3297.06 1109.61 3296.36 1110.44 3295.47 1111.11 3294.57 1111.78 3293.51 1112.3 3292.3 1112.66 3291.08 1113.02 3289.75 1113.2 3288.3 1113.2 3286.71 1113.2 3285.15 1113.1 3283.61 1112.89 3282.08 1112.69 3280.46 1112.33 3278.75 1111.83L3280.1 1105.93 3282.35 1105.93C3282.43 1107.54 3282.94 1108.74 3283.86 1109.54 3284.78 1110.35 3286.21 1110.75 3288.14 1110.75 3289.87 1110.75 3291.23 1110.38 3292.22 1109.63 3293.21 1108.89 3293.71 1107.86 3293.71 1106.53 3293.71 1105.92 3293.65 1105.4 3293.53 1104.96 3293.41 1104.52 3293.17 1104.1 3292.81 1103.71 3292.46 1103.31 3291.98 1102.9 3291.37 1102.48 3290.75 1102.06 3289.96 1101.57 3288.97 1101.02 3287.95 1100.45 3287.08 1099.89 3286.35 1099.33 3285.61 1098.78 3285.01 1098.22 3284.53 1097.65 3284.06 1097.08 3283.71 1096.49 3283.49 1095.87 3283.26 1095.24 3283.15 1094.58 3283.15 1093.87 3283.15 1092.79 3283.38 1091.78 3283.83 1090.86 3284.29 1089.94 3284.94 1089.14 3285.79 1088.46 3286.63 1087.79 3287.65 1087.27 3288.84 1086.89 3290.03 1086.51 3291.37 1086.32 3292.85 1086.32ZM3258.9 1086.32C3260.18 1086.32 3261.17 1086.74 3261.86 1087.57 3262.56 1088.41 3262.91 1089.51 3262.91 1090.87 3262.91 1091.65 3262.79 1092.34 3262.55 1092.94L3262.91 1093.1C3264.66 1090.77 3266.35 1089.06 3268 1087.96 3269.65 1086.86 3271.34 1086.32 3273.08 1086.32 3273.74 1086.32 3274.36 1086.35 3274.93 1086.42 3275.51 1086.49 3276.07 1086.58 3276.6 1086.68L3275.28 1092.94 3272.28 1092.94C3272.19 1091.91 3271.97 1091.16 3271.62 1090.72 3271.27 1090.27 3270.75 1090.04 3270.08 1090.04 3269.68 1090.03 3269.23 1090.15 3268.71 1090.41 3268.19 1090.66 3267.64 1091.04 3267.07 1091.52 3266.49 1092 3265.91 1092.57 3265.35 1093.23 3264.78 1093.88 3264.24 1094.6 3263.73 1095.37 3263.22 1096.15 3262.77 1096.97 3262.4 1097.85 3262.02 1098.72 3261.73 1099.59 3261.54 1100.47L3258.9 1112.74 3253.83 1112.74 3257.71 1095.87C3257.95 1094.87 3258.12 1094.04 3258.22 1093.38 3258.31 1092.73 3258.36 1092.17 3258.36 1091.73 3258.36 1090.47 3257.85 1089.84 3256.83 1089.84 3256.5 1089.84 3256.18 1089.9 3255.86 1090.03 3255.54 1090.16 3255.21 1090.35 3254.86 1090.61 3254.52 1090.87 3254.14 1091.2 3253.73 1091.6 3253.31 1091.99 3252.85 1092.46 3252.33 1092.99L3250.54 1091.31C3251.41 1090.43 3252.19 1089.68 3252.91 1089.05 3253.63 1088.42 3254.31 1087.9 3254.97 1087.49 3255.62 1087.09 3256.27 1086.79 3256.91 1086.6 3257.55 1086.41 3258.21 1086.32 3258.9 1086.32ZM3237.01 1086.32C3238.56 1086.32 3239.92 1086.57 3241.09 1087.07 3242.25 1087.57 3243.22 1088.24 3244 1089.1 3244.77 1089.95 3245.36 1090.96 3245.75 1092.11 3246.13 1093.27 3246.33 1094.5 3246.33 1095.81 3246.33 1098.44 3245.94 1100.81 3245.16 1102.94 3244.39 1105.07 3243.31 1106.9 3241.94 1108.43 3240.57 1109.96 3238.96 1111.13 3237.1 1111.96 3235.25 1112.79 3233.23 1113.2 3231.06 1113.2 3229.63 1113.2 3228.34 1112.99 3227.2 1112.56 3226.06 1112.13 3225.1 1111.51 3224.3 1110.69 3223.51 1109.88 3222.9 1108.9 3222.48 1107.76 3222.06 1106.61 3221.85 1105.31 3221.85 1103.86 3221.85 1101.41 3222.23 1099.12 3223 1096.99 3223.77 1094.86 3224.83 1093.01 3226.18 1091.43 3227.53 1089.85 3229.14 1088.6 3230.98 1087.69 3232.83 1086.77 3234.84 1086.32 3237.01 1086.32ZM3205.01 1086.32C3206.56 1086.32 3207.92 1086.57 3209.09 1087.07 3210.25 1087.57 3211.22 1088.24 3212 1089.1 3212.77 1089.95 3213.36 1090.96 3213.75 1092.11 3214.13 1093.27 3214.33 1094.5 3214.33 1095.81 3214.33 1098.44 3213.94 1100.81 3213.16 1102.94 3212.39 1105.07 3211.31 1106.9 3209.94 1108.43 3208.57 1109.96 3206.96 1111.13 3205.1 1111.96 3203.25 1112.79 3201.23 1113.2 3199.06 1113.2 3197.63 1113.2 3196.34 1112.99 3195.2 1112.56 3194.06 1112.13 3193.1 1111.51 3192.3 1110.69 3191.51 1109.88 3190.9 1108.9 3190.48 1107.76 3190.06 1106.61 3189.85 1105.31 3189.85 1103.86 3189.85 1101.41 3190.23 1099.12 3191 1096.99 3191.77 1094.86 3192.83 1093.01 3194.18 1091.43 3195.53 1089.85 3197.14 1088.6 3198.98 1087.69 3200.83 1086.77 3202.84 1086.32 3205.01 1086.32ZM3181.28 1077.41 3183.14 1077.41C3182.07 1082.23 3181.09 1086.63 3180.2 1090.61 3179.31 1094.6 3178.34 1099 3177.29 1103.81 3177.05 1104.85 3176.88 1105.66 3176.77 1106.26 3176.67 1106.85 3176.62 1107.39 3176.62 1107.87 3176.62 1108.53 3176.75 1109 3177.02 1109.3 3177.29 1109.59 3177.7 1109.74 3178.25 1109.74 3178.56 1109.74 3178.87 1109.68 3179.18 1109.56 3179.49 1109.44 3179.82 1109.25 3180.16 1108.99 3180.51 1108.73 3180.89 1108.4 3181.31 1107.99 3181.74 1107.58 3182.22 1107.1 3182.75 1106.53L3184.43 1108.24C3183.55 1109.13 3182.75 1109.9 3182.04 1110.53 3181.32 1111.16 3180.64 1111.67 3179.99 1112.07 3179.35 1112.46 3178.71 1112.75 3178.08 1112.93 3177.45 1113.11 3176.77 1113.2 3176.05 1113.2 3175.39 1113.2 3174.8 1113.08 3174.27 1112.84 3173.75 1112.6 3173.3 1112.27 3172.92 1111.85 3172.54 1111.42 3172.24 1110.92 3172.04 1110.33 3171.83 1109.75 3171.73 1109.1 3171.73 1108.39 3171.73 1107.75 3171.79 1106.96 3171.92 1106.02 3172.05 1105.08 3172.25 1104.02 3172.53 1102.83 3173.27 1099.52 3174.01 1096.21 3174.74 1092.92 3175.47 1089.62 3176.07 1087.09 3176.54 1085.33 3176.95 1083.45 3177.16 1082.17 3177.16 1081.48 3177.16 1081.12 3177.11 1080.81 3177.02 1080.57 3176.92 1080.33 3176.75 1080.13 3176.5 1079.98 3176.25 1079.82 3175.91 1079.71 3175.48 1079.64 3175.05 1079.57 3174.49 1079.52 3173.8 1079.48L3174.16 1077.72ZM3161.54 1076.56C3162.49 1076.56 3163.33 1076.61 3164.05 1076.7 3164.78 1076.8 3165.48 1076.91 3166.15 1077.05L3165.09 1081.87 3162.53 1081.87C3162.4 1080.88 3162.11 1080.16 3161.65 1079.7 3161.18 1079.25 3160.56 1079.02 3159.78 1079.02 3158.88 1079.02 3158.13 1079.21 3157.52 1079.6 3156.91 1079.99 3156.37 1080.58 3155.91 1081.36 3155.46 1082.15 3155.06 1083.06 3154.74 1084.12 3154.41 1085.17 3154.18 1086.08 3154.06 1086.86L3161.23 1086.86 3160.66 1089.73 3153.47 1089.73 3148.78 1111.91C3147.97 1115.69 3146.66 1118.49 3144.84 1120.31 3143.02 1122.13 3140.59 1123.04 3137.55 1123.04 3136.76 1123.04 3136.18 1122.99 3135.82 1122.88 3135.92 1122.45 3136.02 1122.01 3136.1 1121.55 3136.19 1121.09 3136.29 1120.65 3136.41 1120.22 3136.52 1120.25 3136.66 1120.27 3136.85 1120.27 3137.04 1120.27 3137.31 1120.27 3137.66 1120.27 3138.33 1120.27 3138.95 1120.16 3139.51 1119.95 3140.07 1119.73 3140.58 1119.34 3141.05 1118.78 3141.51 1118.22 3141.94 1117.45 3142.33 1116.48 3142.71 1115.5 3143.08 1114.25 3143.43 1112.71L3148.6 1089.73 3144.15 1089.73 3144.62 1087.74C3145.57 1087.69 3146.32 1087.63 3146.88 1087.56 3147.44 1087.49 3147.92 1087.34 3148.3 1087.11 3148.69 1086.87 3148.98 1086.48 3149.17 1085.93 3150.17 1082.77 3151.68 1080.42 3153.69 1078.88 3155.7 1077.33 3158.32 1076.56 3161.54 1076.56Z" fill-rule="evenodd"/><text fill="#000000" fill-opacity="0" font-family="Arial,Arial_MSFontService,sans-serif" font-size="46.4785" x="3135.82" y="1117.23">𝑓𝑙𝑜𝑜𝑟𝑠</text><path d="M2658.24 1231.66 2660.31 1231.66 2654.18 1256.36 2654.61 1256.51C2656.86 1253.51 2659 1251.34 2661.01 1250 2663.01 1248.66 2665.04 1247.99 2667.08 1247.99 2669.29 1247.99 2670.99 1248.62 2672.18 1249.9 2673.37 1251.17 2673.96 1252.93 2673.96 1255.19 2673.96 1256.69 2673.62 1258.81 2672.93 1261.57L2670.61 1270.91C2669.97 1273.5 2669.65 1275.33 2669.65 1276.4 2669.65 1277.35 2669.8 1278.04 2670.11 1278.46 2670.42 1278.89 2670.91 1279.11 2671.57 1279.11 2672.29 1279.11 2673.05 1278.81 2673.85 1278.23 2674.66 1277.65 2675.8 1276.54 2677.28 1274.9L2679.31 1276.9C2677.03 1279.3 2675.16 1280.95 2673.69 1281.85 2672.23 1282.75 2670.59 1283.2 2668.76 1283.2 2667.21 1283.2 2665.98 1282.66 2665.07 1281.57 2664.15 1280.47 2663.7 1279.06 2663.7 1277.32 2663.7 1275.78 2664.09 1273.51 2664.87 1270.52L2666.41 1264.35C2666.95 1262.14 2667.32 1260.48 2667.51 1259.38 2667.7 1258.27 2667.8 1257.41 2667.8 1256.79 2667.8 1255.11 2667.52 1253.91 2666.98 1253.21 2666.43 1252.51 2665.54 1252.16 2664.3 1252.16 2663.33 1252.16 2662.25 1252.56 2661.06 1253.37 2659.87 1254.18 2658.62 1255.41 2657.32 1257.06 2656.01 1258.71 2654.97 1260.29 2654.2 1261.8 2653.42 1263.31 2652.81 1265.11 2652.36 1267.2L2649.12 1282.63 2642.95 1282.63 2652.11 1241.89C2652.68 1239.35 2652.97 1237.59 2652.97 1236.62 2652.97 1235.62 2652.66 1234.92 2652.06 1234.51 2651.45 1234.11 2650.37 1233.88 2648.8 1233.84L2649.22 1231.98Z" fill-rule="evenodd"/><text fill="#000000" fill-opacity="0" font-family="Arial,Arial_MSFontService,sans-serif" font-size="51.542" x="2642.95" y="1276.76">ℎ</text><path d="M2753.59 1273.74C2752.58 1273.74 2751.63 1273.96 2750.75 1274.41 2749.87 1274.86 2749.06 1275.47 2748.34 1276.25 2747.62 1277.03 2746.97 1277.92 2746.41 1278.94 2745.85 1279.96 2745.38 1281.04 2744.99 1282.18 2744.6 1283.31 2744.31 1284.48 2744.11 1285.68 2743.91 1286.88 2743.81 1288.03 2743.81 1289.14 2743.81 1291 2744.07 1292.38 2744.6 1293.29 2745.13 1294.2 2745.98 1294.65 2747.15 1294.65 2747.74 1294.65 2748.3 1294.55 2748.84 1294.34 2749.39 1294.13 2749.96 1293.8 2750.57 1293.35 2752.08 1292.16 2753.38 1290.72 2754.45 1289.01 2755.52 1287.3 2756.32 1285.28 2756.85 1282.95 2757.1 1281.88 2757.29 1280.92 2757.42 1280.05 2757.56 1279.19 2757.63 1278.37 2757.63 1277.59 2757.63 1276.21 2757.31 1275.23 2756.66 1274.63 2756.01 1274.04 2754.99 1273.74 2753.59 1273.74ZM2724.77 1273.74C2723.83 1273.74 2722.89 1273.97 2721.97 1274.44 2721.04 1274.9 2720.17 1275.56 2719.35 1276.42 2718.53 1277.27 2717.79 1278.31 2717.11 1279.52 2716.44 1280.74 2715.88 1282.1 2715.43 1283.6 2717.62 1283.58 2719.51 1283.41 2721.09 1283.08 2722.67 1282.75 2723.96 1282.3 2724.97 1281.74 2725.98 1281.17 2726.72 1280.49 2727.19 1279.72 2727.67 1278.94 2727.91 1278.09 2727.91 1277.15 2727.91 1276.09 2727.64 1275.25 2727.1 1274.64 2726.57 1274.04 2725.79 1273.74 2724.77 1273.74ZM2753.13 1271.18C2754.49 1271.18 2755.69 1271.34 2756.74 1271.66 2757.78 1271.97 2758.74 1272.41 2759.6 1272.96L2762.11 1271.18 2764.2 1271.72 2760.3 1288.67C2760.07 1289.64 2759.92 1290.43 2759.83 1291.06 2759.74 1291.69 2759.7 1292.25 2759.7 1292.73 2759.7 1293.39 2759.83 1293.86 2760.1 1294.16 2760.37 1294.45 2760.75 1294.6 2761.25 1294.6 2761.56 1294.6 2761.87 1294.54 2762.17 1294.42 2762.47 1294.3 2762.8 1294.11 2763.16 1293.85 2763.51 1293.59 2763.9 1293.26 2764.32 1292.85 2764.74 1292.44 2765.22 1291.96 2765.76 1291.39 2766.03 1291.68 2766.32 1291.97 2766.61 1292.26 2766.9 1292.54 2767.19 1292.82 2767.46 1293.1 2766.6 1293.98 2765.82 1294.73 2765.11 1295.36 2764.4 1295.99 2763.72 1296.51 2763.05 1296.91 2762.39 1297.32 2761.74 1297.61 2761.1 1297.79 2760.46 1297.97 2759.8 1298.06 2759.11 1298.06 2757.86 1298.06 2756.9 1297.66 2756.21 1296.86 2755.52 1296.06 2755.17 1294.96 2755.17 1293.56 2755.17 1292.79 2755.29 1292.04 2755.53 1291.34L2755.17 1291.18C2754.29 1292.41 2753.44 1293.45 2752.61 1294.31 2751.78 1295.18 2750.96 1295.89 2750.15 1296.45 2749.34 1297.01 2748.52 1297.42 2747.69 1297.68 2746.87 1297.94 2746 1298.06 2745.11 1298.06 2743.05 1298.06 2741.47 1297.33 2740.34 1295.85 2739.22 1294.38 2738.66 1292.23 2738.66 1289.42 2738.66 1287.75 2738.84 1286.14 2739.19 1284.59 2739.55 1283.05 2740.05 1281.6 2740.69 1280.25 2741.34 1278.89 2742.11 1277.66 2743.01 1276.55 2743.91 1275.43 2744.89 1274.48 2745.96 1273.69 2747.03 1272.89 2748.17 1272.28 2749.38 1271.84 2750.58 1271.4 2751.83 1271.18 2753.13 1271.18ZM2725.89 1271.18C2728.1 1271.18 2729.77 1271.66 2730.92 1272.63 2732.07 1273.59 2732.64 1274.96 2732.64 1276.74 2732.64 1282.99 2726.73 1286.11 2714.92 1286.11 2714.83 1286.56 2714.76 1287.04 2714.71 1287.57 2714.66 1288.1 2714.63 1288.67 2714.63 1289.29 2714.63 1291.17 2715.01 1292.54 2715.78 1293.41 2716.55 1294.27 2717.74 1294.7 2719.37 1294.7 2720.21 1294.7 2721.01 1294.61 2721.77 1294.43 2722.53 1294.25 2723.28 1293.97 2724.01 1293.59 2724.74 1293.21 2725.48 1292.72 2726.22 1292.13 2726.97 1291.53 2727.74 1290.82 2728.55 1289.99L2730.49 1292.09C2728.49 1294.07 2726.5 1295.56 2724.5 1296.56 2722.51 1297.56 2720.37 1298.06 2718.07 1298.06 2716.73 1298.06 2715.53 1297.86 2714.49 1297.46 2713.44 1297.05 2712.56 1296.46 2711.85 1295.68 2711.13 1294.91 2710.59 1293.96 2710.22 1292.85 2709.85 1291.74 2709.66 1290.48 2709.66 1289.08 2709.66 1288.1 2709.75 1287.08 2709.92 1286.02 2710.09 1284.96 2710.36 1283.9 2710.72 1282.84 2711.08 1281.77 2711.53 1280.74 2712.07 1279.73 2712.6 1278.72 2713.23 1277.78 2713.96 1276.9 2715.41 1275.1 2717.15 1273.7 2719.2 1272.69 2721.24 1271.68 2723.47 1271.18 2725.89 1271.18ZM2695.72 1271.18C2697.39 1271.18 2698.93 1271.28 2700.34 1271.49 2701.75 1271.69 2703.11 1272 2704.44 1272.39L2703.2 1278.24 2700.9 1278.24C2700.71 1276.69 2700.19 1275.54 2699.36 1274.8 2698.52 1274.06 2697.22 1273.69 2695.46 1273.69 2694.76 1273.69 2694.1 1273.78 2693.5 1273.97 2692.89 1274.16 2692.37 1274.42 2691.94 1274.76 2691.51 1275.1 2691.18 1275.5 2690.93 1275.96 2690.69 1276.43 2690.57 1276.94 2690.57 1277.49 2690.57 1277.99 2690.63 1278.45 2690.75 1278.86 2690.87 1279.28 2691.11 1279.68 2691.46 1280.08 2691.82 1280.48 2692.32 1280.89 2692.97 1281.32 2693.61 1281.75 2694.46 1282.24 2695.51 1282.8 2696.62 1283.4 2697.54 1283.98 2698.27 1284.53 2699 1285.08 2699.59 1285.64 2700.02 1286.21 2700.45 1286.78 2700.75 1287.39 2700.92 1288.04 2701.1 1288.68 2701.18 1289.4 2701.18 1290.2 2701.18 1291.42 2700.93 1292.52 2700.43 1293.5 2699.93 1294.47 2699.23 1295.3 2698.33 1295.97 2697.44 1296.64 2696.38 1297.16 2695.16 1297.52 2693.95 1297.88 2692.62 1298.06 2691.17 1298.06 2689.58 1298.06 2688.02 1297.96 2686.48 1297.75 2684.95 1297.55 2683.33 1297.19 2681.62 1296.69L2682.96 1290.79 2685.21 1290.79C2685.3 1292.4 2685.81 1293.6 2686.73 1294.4 2687.65 1295.21 2689.08 1295.61 2691.01 1295.61 2692.74 1295.61 2694.1 1295.24 2695.09 1294.49 2696.08 1293.75 2696.58 1292.72 2696.58 1291.39 2696.58 1290.78 2696.51 1290.26 2696.39 1289.82 2696.27 1289.38 2696.04 1288.96 2695.68 1288.57 2695.33 1288.17 2694.85 1287.76 2694.23 1287.34 2693.62 1286.92 2692.82 1286.43 2691.84 1285.88 2690.82 1285.31 2689.95 1284.75 2689.21 1284.19 2688.48 1283.64 2687.88 1283.08 2687.4 1282.51 2686.93 1281.94 2686.58 1281.35 2686.35 1280.73 2686.13 1280.1 2686.02 1279.44 2686.02 1278.73 2686.02 1277.65 2686.25 1276.64 2686.7 1275.72 2687.16 1274.8 2687.81 1274 2688.66 1273.32 2689.5 1272.65 2690.52 1272.13 2691.71 1271.75 2692.9 1271.37 2694.24 1271.18 2695.72 1271.18ZM2779.48 1265.15 2783.51 1265.15 2782.04 1271.72 2790.84 1271.72 2790.24 1274.59 2781.47 1274.59 2778.83 1285.44C2778.66 1286.16 2778.52 1286.81 2778.4 1287.39 2778.29 1287.97 2778.2 1288.49 2778.13 1288.96 2778.06 1289.42 2778.01 1289.84 2777.99 1290.22 2777.96 1290.6 2777.95 1290.96 2777.95 1291.28 2777.95 1292.32 2778.17 1293.13 2778.6 1293.72 2779.03 1294.3 2779.74 1294.6 2780.72 1294.6 2781.55 1294.6 2782.43 1294.29 2783.36 1293.68 2784.29 1293.07 2785.35 1292.1 2786.54 1290.79L2788.33 1292.6C2787.45 1293.59 2786.61 1294.42 2785.82 1295.11 2785.02 1295.8 2784.25 1296.37 2783.49 1296.81 2782.73 1297.25 2781.98 1297.57 2781.24 1297.77 2780.49 1297.97 2779.74 1298.06 2778.96 1298.06 2776.91 1298.06 2775.38 1297.58 2774.37 1296.62 2773.36 1295.65 2772.85 1294.23 2772.85 1292.35 2772.85 1291.71 2772.9 1291 2772.99 1290.24 2773.09 1289.47 2773.22 1288.72 2773.4 1288L2776.48 1274.59 2772.02 1274.59 2772.54 1272.6C2773.58 1272.6 2774.38 1272.5 2774.96 1272.3 2775.54 1272.1 2776.03 1271.83 2776.42 1271.49 2776.68 1271.25 2776.93 1270.95 2777.17 1270.59 2777.42 1270.24 2777.66 1269.81 2777.9 1269.31 2778.14 1268.81 2778.39 1268.22 2778.64 1267.54 2778.89 1266.86 2779.17 1266.06 2779.48 1265.15Z" fill-rule="evenodd"/><text fill="#000000" fill-opacity="0" font-family="Arial,Arial_MSFontService,sans-serif" font-size="32.918" x="2681.62" y="1293.95">𝑠𝑒𝑎𝑡</text><path d="M2827.94 1180.42 2827.94 1321.2 2821.06 1321.2 2821.06 1180.42ZM2810.75 1185 2824.5 1157.5 2838.25 1185ZM2838.25 1316.61 2824.5 1344.11 2810.75 1316.61Z" fill="#FA8A3A"/><path d="M3855.24 1216.04 3854.05 1236.48 3851.66 1258.14 3848.32 1279.6 3844.04 1301 3838.82 1322.16 3832.84 1341.88 3826.26 1339.89 3832.21 1320.25 3832.16 1320.43 3837.35 1299.43 3837.32 1299.58 3841.57 1278.33 3841.54 1278.47 3844.85 1257.16 3844.83 1257.31 3847.21 1235.81 3847.19 1235.99 3848.38 1215.64ZM3837.93 1220.01 3852.5 1192.94 3865.42 1220.84ZM3844.05 1340.88 3822.31 1362.62 3817.96 1332.19Z" fill="#FA8A3A"/><path d="M3825.25 1008.92 3834.12 1032.31 3841.36 1055.17 3847.47 1078.33 3852.44 1101.81 3856.28 1125.48 3858.9 1150.16 3852.06 1150.88 3849.46 1126.3 3849.48 1126.49 3845.67 1102.99 3845.7 1103.15 3840.76 1079.84 3840.8 1080 3834.74 1057 3834.79 1057.16 3827.6 1034.48 3827.66 1034.66 3818.82 1011.36ZM3811.13 1019.68 3813.19 989 3836.49 1009.05ZM3868.87 1144.96 3857.12 1173.38 3841.44 1146.93Z" fill="#FA8A3A"/><path d="M3134.64 1449.64C3132.22 1449.64 3130.05 1450.62 3128.12 1452.58 3126.2 1454.54 3124.68 1457.18 3123.58 1460.51 3122.47 1463.83 3121.92 1467.15 3121.92 1470.45 3121.92 1472.92 3122.26 1474.77 3122.94 1475.99 3123.61 1477.22 3124.75 1477.83 3126.34 1477.83 3127.08 1477.83 3127.82 1477.67 3128.58 1477.35 3129.35 1477.03 3130.14 1476.51 3130.96 1475.8 3131.77 1475.09 3132.58 1474.22 3133.38 1473.2 3134.18 1472.17 3134.91 1471.15 3135.57 1470.11 3136.24 1469.08 3136.85 1467.86 3137.42 1466.44 3137.99 1465.03 3138.48 1463.32 3138.89 1461.33L3139.21 1459.79C3139.56 1458.08 3139.74 1456.47 3139.74 1454.95 3139.74 1453.09 3139.35 1451.74 3138.57 1450.9 3137.78 1450.06 3136.47 1449.64 3134.64 1449.64ZM3149.58 1430.53 3151.68 1430.53 3142.81 1469.99C3142.28 1472.32 3142.02 1474.08 3142.02 1475.26 3142.02 1476.21 3142.18 1476.9 3142.49 1477.33 3142.79 1477.76 3143.28 1477.97 3143.95 1477.97 3144.66 1477.97 3145.42 1477.68 3146.23 1477.1 3147.04 1476.52 3148.18 1475.41 3149.65 1473.77L3151.68 1475.76C3149.5 1478.07 3147.65 1479.7 3146.16 1480.65 3144.66 1481.6 3143.04 1482.07 3141.31 1482.07 3139.84 1482.07 3138.66 1481.58 3137.78 1480.61 3136.9 1479.64 3136.46 1478.34 3136.46 1476.72 3136.46 1475.42 3136.74 1474.03 3137.28 1472.55L3136.82 1472.41C3134.54 1475.74 3132.38 1478.17 3130.33 1479.72 3128.29 1481.26 3126.13 1482.04 3123.84 1482.04 3121.23 1482.04 3119.2 1481.05 3117.77 1479.08 3116.33 1477.11 3115.61 1474.34 3115.61 1470.77 3115.61 1466.68 3116.41 1462.76 3118.02 1458.99 3119.62 1455.23 3121.82 1452.25 3124.63 1450.08 3127.43 1447.91 3130.56 1446.82 3134 1446.82 3135.45 1446.82 3136.79 1446.97 3138.01 1447.26 3139.24 1447.56 3140.49 1448.08 3141.77 1448.82L3143.63 1440.58C3143.82 1439.8 3143.98 1438.93 3144.13 1437.98 3144.27 1437.03 3144.34 1436.2 3144.34 1435.48 3144.34 1434.77 3144.21 1434.23 3143.95 1433.86 3143.69 1433.49 3143.31 1433.23 3142.82 1433.06 3142.34 1432.89 3141.46 1432.78 3140.2 1432.7L3140.63 1430.85Z" fill-rule="evenodd"/><text fill="#000000" fill-opacity="0" font-family="Arial,Arial_MSFontService,sans-serif" font-size="51.542" x="3115.61" y="1475.63">𝑑</text><path d="M3296.3 1472.61C3295.33 1472.61 3294.43 1472.82 3293.58 1473.25 3292.74 1473.68 3291.96 1474.28 3291.25 1475.04 3290.55 1475.8 3289.91 1476.69 3289.35 1477.73 3288.79 1478.76 3288.32 1479.88 3287.93 1481.07 3287.54 1482.26 3287.24 1483.5 3287.04 1484.79 3286.83 1486.09 3286.73 1487.38 3286.73 1488.68 3286.73 1490.66 3287.14 1492.12 3287.96 1493.06 3288.77 1494 3290.02 1494.47 3291.69 1494.47 3292.63 1494.47 3293.51 1494.24 3294.33 1493.79 3295.16 1493.33 3295.92 1492.71 3296.61 1491.94 3297.3 1491.16 3297.92 1490.25 3298.46 1489.21 3299.01 1488.16 3299.47 1487.05 3299.85 1485.86 3300.23 1484.67 3300.51 1483.44 3300.71 1482.17 3300.91 1480.9 3301.01 1479.66 3301.01 1478.45 3301.01 1476.54 3300.63 1475.09 3299.87 1474.09 3299.11 1473.1 3297.92 1472.61 3296.3 1472.61ZM3263.46 1472.61C3262.46 1472.61 3261.52 1472.83 3260.64 1473.28 3259.76 1473.73 3258.96 1474.33 3258.23 1475.09 3257.51 1475.85 3256.86 1476.74 3256.29 1477.76 3255.72 1478.77 3255.24 1479.85 3254.85 1480.99 3254.47 1482.13 3254.17 1483.3 3253.96 1484.51 3253.75 1485.72 3253.65 1486.88 3253.65 1488 3253.65 1491.68 3254.76 1493.52 3256.99 1493.52 3257.92 1493.52 3258.85 1493.24 3259.77 1492.67 3260.69 1492.11 3261.69 1491.18 3262.76 1489.87 3263.33 1489.18 3263.82 1488.53 3264.23 1487.93 3264.65 1487.32 3265 1486.71 3265.3 1486.1 3265.59 1485.49 3265.84 1484.84 3266.05 1484.15 3266.25 1483.46 3266.44 1482.68 3266.62 1481.82 3266.81 1480.83 3266.99 1479.88 3267.17 1478.95 3267.35 1478.01 3267.44 1477.19 3267.44 1476.46 3267.44 1475.06 3267.12 1474.07 3266.46 1473.49 3265.8 1472.9 3264.8 1472.61 3263.46 1472.61ZM3199.51 1472.61C3198.49 1472.61 3197.54 1472.83 3196.66 1473.28 3195.78 1473.73 3194.98 1474.34 3194.25 1475.12 3193.53 1475.89 3192.89 1476.79 3192.33 1477.81 3191.77 1478.83 3191.29 1479.9 3190.9 1481.04 3190.52 1482.18 3190.22 1483.35 3190.02 1484.55 3189.82 1485.75 3189.73 1486.9 3189.73 1488 3189.73 1489.87 3189.99 1491.25 3190.52 1492.16 3191.04 1493.06 3191.89 1493.52 3193.06 1493.52 3193.65 1493.52 3194.22 1493.41 3194.76 1493.21 3195.3 1493 3195.88 1492.67 3196.48 1492.22 3198 1491.03 3199.29 1489.58 3200.36 1487.87 3201.43 1486.17 3202.23 1484.15 3202.77 1481.82 3203.01 1480.75 3203.2 1479.78 3203.34 1478.92 3203.48 1478.06 3203.55 1477.24 3203.55 1476.46 3203.55 1475.08 3203.22 1474.09 3202.57 1473.5 3201.93 1472.9 3200.91 1472.61 3199.51 1472.61ZM3296.79 1470.04C3298.35 1470.04 3299.7 1470.29 3300.87 1470.79 3302.03 1471.29 3303 1471.97 3303.78 1472.83 3304.56 1473.68 3305.14 1474.68 3305.53 1475.84 3305.92 1477 3306.11 1478.23 3306.11 1479.54 3306.11 1482.16 3305.72 1484.54 3304.94 1486.67 3304.17 1488.8 3303.09 1490.63 3301.72 1492.16 3300.35 1493.68 3298.74 1494.86 3296.88 1495.69 3295.03 1496.52 3293.01 1496.93 3290.84 1496.93 3289.41 1496.93 3288.12 1496.72 3286.98 1496.28 3285.85 1495.85 3284.88 1495.23 3284.09 1494.42 3283.29 1493.61 3282.68 1492.63 3282.26 1491.48 3281.84 1490.34 3281.63 1489.04 3281.63 1487.59 3281.63 1485.14 3282.01 1482.85 3282.78 1480.72 3283.55 1478.59 3284.61 1476.73 3285.96 1475.15 3287.32 1473.58 3288.92 1472.33 3290.76 1471.42 3292.61 1470.5 3294.62 1470.04 3296.79 1470.04ZM3262.99 1470.04C3264.34 1470.04 3265.53 1470.2 3266.56 1470.52 3267.6 1470.84 3268.54 1471.28 3269.38 1471.83L3271.92 1470.04 3273.89 1470.59C3273.42 1472.8 3272.96 1474.97 3272.49 1477.12 3272.02 1479.27 3271.55 1481.45 3271.07 1483.66 3270.51 1486.26 3270.03 1488.66 3269.62 1490.86 3269.2 1493.06 3268.75 1495.02 3268.25 1496.72 3267.75 1498.43 3267.15 1499.91 3266.45 1501.15 3265.75 1502.39 3264.85 1503.43 3263.76 1504.26 3262.66 1505.08 3261.31 1505.72 3259.71 1506.17 3258.1 1506.62 3256.13 1506.85 3253.81 1506.87 3250.22 1506.87 3247.51 1506.43 3245.69 1505.56 3243.87 1504.69 3242.96 1503.35 3242.96 1501.54 3242.96 1501.07 3243.04 1500.63 3243.18 1500.22 3243.33 1499.8 3243.56 1499.41 3243.87 1499.03 3244.18 1498.65 3244.58 1498.27 3245.07 1497.9 3245.56 1497.53 3246.15 1497.14 3246.82 1496.72L3249.17 1498.51C3248.57 1499.03 3248.16 1499.52 3247.94 1499.99 3247.73 1500.45 3247.62 1500.94 3247.62 1501.46 3247.62 1502.43 3248.11 1503.16 3249.1 1503.66 3250.08 1504.16 3251.61 1504.41 3253.7 1504.41 3254.77 1504.41 3255.74 1504.33 3256.6 1504.18 3257.46 1504.02 3258.25 1503.76 3258.97 1503.39 3259.68 1503.02 3260.34 1502.5 3260.92 1501.85 3261.51 1501.19 3262.05 1500.38 3262.55 1499.4 3263.05 1498.43 3263.53 1497.19 3263.98 1495.69 3264.42 1494.19 3264.86 1492.41 3265.3 1490.36L3264.91 1490.2C3263.99 1491.39 3263.12 1492.42 3262.29 1493.27 3261.47 1494.12 3260.65 1494.82 3259.85 1495.37 3259.05 1495.91 3258.24 1496.31 3257.43 1496.56 3256.62 1496.81 3255.77 1496.93 3254.89 1496.93 3252.87 1496.93 3251.31 1496.2 3250.2 1494.73 3249.08 1493.27 3248.53 1491.12 3248.53 1488.29 3248.53 1486.68 3248.7 1485.11 3249.04 1483.58 3249.39 1482.04 3249.88 1480.59 3250.52 1479.23 3251.16 1477.87 3251.92 1476.62 3252.81 1475.49 3253.7 1474.36 3254.68 1473.39 3255.76 1472.58 3256.84 1471.77 3257.98 1471.14 3259.2 1470.7 3260.42 1470.26 3261.68 1470.04 3262.99 1470.04ZM3223.68 1470.04C3224.96 1470.04 3225.95 1470.46 3226.65 1471.3 3227.35 1472.14 3227.69 1473.24 3227.69 1474.6 3227.69 1475.37 3227.57 1476.06 3227.33 1476.67L3227.69 1476.82C3229.44 1474.49 3231.13 1472.78 3232.78 1471.69 3234.43 1470.59 3236.12 1470.04 3237.86 1470.04 3238.52 1470.04 3239.14 1470.08 3239.72 1470.15 3240.29 1470.22 3240.85 1470.3 3241.38 1470.41L3240.06 1476.67 3237.06 1476.67C3236.98 1475.63 3236.76 1474.89 3236.4 1474.44 3236.05 1473.99 3235.54 1473.77 3234.86 1473.77 3234.47 1473.75 3234.01 1473.87 3233.49 1474.13 3232.97 1474.39 3232.43 1474.76 3231.85 1475.25 3231.27 1475.73 3230.7 1476.3 3230.13 1476.95 3229.56 1477.61 3229.02 1478.32 3228.51 1479.1 3228 1479.88 3227.56 1480.7 3227.18 1481.57 3226.8 1482.44 3226.51 1483.32 3226.32 1484.2L3223.68 1496.47 3218.61 1496.47 3222.49 1479.59C3222.73 1478.59 3222.9 1477.76 3223 1477.11 3223.09 1476.45 3223.14 1475.9 3223.14 1475.45 3223.14 1474.19 3222.63 1473.56 3221.61 1473.56 3221.29 1473.56 3220.96 1473.63 3220.64 1473.76 3220.32 1473.89 3219.99 1474.08 3219.65 1474.34 3219.3 1474.6 3218.92 1474.93 3218.51 1475.32 3218.09 1475.72 3217.63 1476.19 3217.11 1476.72L3215.32 1475.04C3216.19 1474.16 3216.98 1473.4 3217.69 1472.77 3218.41 1472.14 3219.09 1471.63 3219.75 1471.22 3220.41 1470.82 3221.05 1470.52 3221.69 1470.33 3222.33 1470.14 3222.99 1470.04 3223.68 1470.04ZM3199.04 1470.04C3200.41 1470.04 3201.61 1470.2 3202.65 1470.52 3203.7 1470.84 3204.65 1471.28 3205.51 1471.83L3208.02 1470.04 3210.12 1470.59 3206.21 1487.54C3205.99 1488.5 3205.83 1489.3 3205.74 1489.93 3205.66 1490.56 3205.62 1491.12 3205.62 1491.6 3205.62 1492.26 3205.75 1492.73 3206.02 1493.02 3206.28 1493.32 3206.67 1493.46 3207.17 1493.46 3207.48 1493.46 3207.78 1493.4 3208.09 1493.28 3208.39 1493.16 3208.72 1492.97 3209.07 1492.71 3209.42 1492.45 3209.81 1492.12 3210.23 1491.72 3210.66 1491.31 3211.14 1490.82 3211.67 1490.25 3211.95 1490.55 3212.23 1490.84 3212.53 1491.12 3212.82 1491.41 3213.1 1491.69 3213.38 1491.96 3212.52 1492.84 3211.73 1493.6 3211.02 1494.23 3210.32 1494.86 3209.63 1495.37 3208.97 1495.78 3208.3 1496.19 3207.65 1496.48 3207.01 1496.66 3206.37 1496.84 3205.71 1496.93 3205.02 1496.93 3203.78 1496.93 3202.81 1496.53 3202.12 1495.73 3201.43 1494.93 3201.09 1493.83 3201.09 1492.43 3201.09 1491.65 3201.21 1490.91 3201.45 1490.2L3201.09 1490.05C3200.21 1491.27 3199.35 1492.32 3198.52 1493.18 3197.7 1494.04 3196.88 1494.75 3196.07 1495.31 3195.26 1495.87 3194.44 1496.28 3193.61 1496.54 3192.78 1496.8 3191.92 1496.93 3191.02 1496.93 3188.97 1496.93 3187.38 1496.19 3186.26 1494.72 3185.14 1493.24 3184.58 1491.1 3184.58 1488.29 3184.58 1486.61 3184.75 1485.01 3185.11 1483.46 3185.46 1481.92 3185.96 1480.47 3186.61 1479.11 3187.25 1477.76 3188.03 1476.53 3188.92 1475.41 3189.82 1474.3 3190.8 1473.35 3191.87 1472.55 3192.94 1471.76 3194.08 1471.14 3195.29 1470.7 3196.5 1470.26 3197.75 1470.04 3199.04 1470.04ZM3173.41 1470.04C3174.67 1470.04 3175.84 1470.11 3176.92 1470.25 3178 1470.39 3179.12 1470.6 3180.27 1470.9L3178.82 1477.24 3175.77 1477.24C3175.75 1476.34 3175.69 1475.59 3175.57 1475 3175.46 1474.4 3175.28 1473.93 3175.03 1473.59 3174.78 1473.24 3174.45 1473 3174.05 1472.85 3173.64 1472.7 3173.15 1472.62 3172.56 1472.61 3171.63 1472.61 3170.74 1472.81 3169.88 1473.23 3169.03 1473.64 3168.23 1474.21 3167.5 1474.95 3166.77 1475.68 3166.1 1476.54 3165.49 1477.52 3164.89 1478.51 3164.37 1479.57 3163.94 1480.71 3163.51 1481.84 3163.18 1483.03 3162.95 1484.26 3162.71 1485.5 3162.6 1486.73 3162.6 1487.95 3162.6 1489.78 3162.96 1491.17 3163.68 1492.13 3164.41 1493.09 3165.49 1493.57 3166.94 1493.57 3167.75 1493.57 3168.51 1493.49 3169.2 1493.35 3169.89 1493.2 3170.56 1492.95 3171.21 1492.61 3171.87 1492.26 3172.55 1491.81 3173.25 1491.25 3173.94 1490.69 3174.72 1490 3175.56 1489.17 3175.89 1489.51 3176.2 1489.85 3176.51 1490.19 3176.81 1490.53 3177.12 1490.87 3177.45 1491.21 3175.59 1493.14 3173.72 1494.58 3171.86 1495.52 3170 1496.46 3168 1496.93 3165.86 1496.93 3163.18 1496.93 3161.13 1496.15 3159.71 1494.59 3158.29 1493.03 3157.58 1490.8 3157.58 1487.9 3157.58 1486.28 3157.76 1484.71 3158.12 1483.2 3158.48 1481.69 3159 1480.27 3159.69 1478.95 3160.37 1477.62 3161.18 1476.41 3162.13 1475.32 3163.08 1474.24 3164.14 1473.3 3165.31 1472.51 3166.49 1471.73 3167.75 1471.12 3169.12 1470.69 3170.48 1470.26 3171.91 1470.04 3173.41 1470.04Z" fill-rule="evenodd"/><text fill="#000000" fill-opacity="0" font-family="Arial,Arial_MSFontService,sans-serif" font-size="36.8257" x="3157.58" y="1502.27">𝑐𝑎𝑟𝑔𝑜</text><path d="M3325.05 758.4 3326.09 970.701 3319.21 970.734 3318.17 758.433ZM3307.88 763.067 3321.5 735.5 3335.38 762.933ZM3336.38 966.067 3322.76 993.634 3308.88 966.201Z" fill="#FA8A3A"/><rect x="2972.5" y="1250.5" width="11" height="36.9998" stroke="#000000" stroke-width="4.58333" stroke-miterlimit="8" fill="#FFFFFF"/><rect x="2882.5" y="1250.5" width="11" height="36.9998" stroke="#000000" stroke-width="4.58333" stroke-miterlimit="8" fill="#FFFFFF"/><rect x="2891.5" y="1297.5" width="12" height="36.9998" stroke="#000000" stroke-width="4.58333" stroke-miterlimit="8" fill="#FFFFFF"/><rect x="2961.5" y="1297.5" width="12" height="36.9998" stroke="#000000" stroke-width="4.58333" stroke-miterlimit="8" fill="#FFFFFF"/><path d="M2891.5 1178.17C2891.5 1170.62 2897.62 1164.5 2905.17 1164.5L2959.83 1164.5C2967.38 1164.5 2973.5 1170.62 2973.5 1178.17L2973.5 1274.83C2973.5 1282.38 2967.38 1288.5 2959.83 1288.5L2905.17 1288.5C2897.62 1288.5 2891.5 1282.38 2891.5 1274.83Z" stroke="#000000" stroke-width="4.58333" stroke-miterlimit="8" fill="#FFFFFF" fill-rule="evenodd"/><path d="M2881.5 1280.83C2881.5 1278.99 2882.99 1277.5 2884.83 1277.5L2981.17 1277.5C2983.01 1277.5 2984.5 1278.99 2984.5 1280.83L2984.5 1294.17C2984.5 1296.01 2983.01 1297.5 2981.17 1297.5L2884.83 1297.5C2882.99 1297.5 2881.5 1296.01 2881.5 1294.17Z" stroke="#000000" stroke-width="4.58333" stroke-miterlimit="8" fill="#FFFFFF" fill-rule="evenodd"/><rect x="2903.5" y="1180.5" width="56.9998" height="96.9999" stroke="#000000" stroke-width="4.58333" stroke-miterlimit="8" fill="#FFFFFF"/><path d="M2898.5 1172.33C2898.5 1170.22 2900.22 1168.5 2902.33 1168.5L2962.67 1168.5C2964.78 1168.5 2966.5 1170.22 2966.5 1172.33L2966.5 1187.67C2966.5 1189.78 2964.78 1191.5 2962.67 1191.5L2902.33 1191.5C2900.22 1191.5 2898.5 1189.78 2898.5 1187.67Z" stroke="#000000" stroke-width="4.58333" stroke-miterlimit="8" fill="#FFFFFF" fill-rule="evenodd"/><rect x="3082.5" y="1250.5" width="11" height="36.9998" stroke="#000000" stroke-width="4.58333" stroke-miterlimit="8" fill="#FFFFFF"/><rect x="2992.5" y="1250.5" width="12" height="36.9998" stroke="#000000" stroke-width="4.58333" stroke-miterlimit="8" fill="#FFFFFF"/><rect x="3002.5" y="1297.5" width="11" height="36.9998" stroke="#000000" stroke-width="4.58333" stroke-miterlimit="8" fill="#FFFFFF"/><rect x="3071.5" y="1297.5" width="12" height="36.9998" stroke="#000000" stroke-width="4.58333" stroke-miterlimit="8" fill="#FFFFFF"/><path d="M3002.5 1178C3002.5 1170.54 3008.54 1164.5 3016 1164.5L3070 1164.5C3077.46 1164.5 3083.5 1170.54 3083.5 1178L3083.5 1275C3083.5 1282.46 3077.46 1288.5 3070 1288.5L3016 1288.5C3008.54 1288.5 3002.5 1282.46 3002.5 1275Z" stroke="#000000" stroke-width="4.58333" stroke-miterlimit="8" fill="#FFFFFF" fill-rule="evenodd"/><path d="M2991.5 1280.83C2991.5 1278.99 2992.99 1277.5 2994.83 1277.5L3091.17 1277.5C3093.01 1277.5 3094.5 1278.99 3094.5 1280.83L3094.5 1294.17C3094.5 1296.01 3093.01 1297.5 3091.17 1297.5L2994.83 1297.5C2992.99 1297.5 2991.5 1296.01 2991.5 1294.17Z" stroke="#000000" stroke-width="4.58333" stroke-miterlimit="8" fill="#FFFFFF" fill-rule="evenodd"/><rect x="3013.5" y="1180.5" width="57.9998" height="96.9999" stroke="#000000" stroke-width="4.58333" stroke-miterlimit="8" fill="#FFFFFF"/><path d="M3008.5 1172.33C3008.5 1170.22 3010.22 1168.5 3012.33 1168.5L3072.67 1168.5C3074.78 1168.5 3076.5 1170.22 3076.5 1172.33L3076.5 1187.67C3076.5 1189.78 3074.78 1191.5 3072.67 1191.5L3012.33 1191.5C3010.22 1191.5 3008.5 1189.78 3008.5 1187.67Z" stroke="#000000" stroke-width="4.58333" stroke-miterlimit="8" fill="#FFFFFF" fill-rule="evenodd"/><rect x="3193.5" y="1251.5" width="11" height="36.9998" stroke="#000000" stroke-width="4.58333" stroke-miterlimit="8" fill="#FFFFFF"/><rect x="3103.5" y="1251.5" width="12" height="36.9998" stroke="#000000" stroke-width="4.58333" stroke-miterlimit="8" fill="#FFFFFF"/><rect x="3113.5" y="1298.5" width="11" height="37.0001" stroke="#000000" stroke-width="4.58333" stroke-miterlimit="8" fill="#FFFFFF"/><rect x="3182.5" y="1298.5" width="12" height="37.0001" stroke="#000000" stroke-width="4.58333" stroke-miterlimit="8" fill="#FFFFFF"/><path d="M3113.5 1179C3113.5 1171.54 3119.54 1165.5 3127 1165.5L3181 1165.5C3188.45 1165.5 3194.5 1171.54 3194.5 1179L3194.5 1275C3194.5 1282.46 3188.45 1288.5 3181 1288.5L3127 1288.5C3119.54 1288.5 3113.5 1282.46 3113.5 1275Z" stroke="#000000" stroke-width="4.58333" stroke-miterlimit="8" fill="#FFFFFF" fill-rule="evenodd"/><path d="M3102.5 1281.83C3102.5 1279.99 3103.99 1278.5 3105.83 1278.5L3202.17 1278.5C3204.01 1278.5 3205.5 1279.99 3205.5 1281.83L3205.5 1295.17C3205.5 1297.01 3204.01 1298.5 3202.17 1298.5L3105.83 1298.5C3103.99 1298.5 3102.5 1297.01 3102.5 1295.17Z" stroke="#000000" stroke-width="4.58333" stroke-miterlimit="8" fill="#FFFFFF" fill-rule="evenodd"/><rect x="3124.5" y="1180.5" width="58" height="98" stroke="#000000" stroke-width="4.58333" stroke-miterlimit="8" fill="#FFFFFF"/><path d="M3119.5 1173.33C3119.5 1171.22 3121.22 1169.5 3123.33 1169.5L3183.67 1169.5C3185.78 1169.5 3187.5 1171.22 3187.5 1173.33L3187.5 1188.67C3187.5 1190.78 3185.78 1192.5 3183.67 1192.5L3123.33 1192.5C3121.22 1192.5 3119.5 1190.78 3119.5 1188.67Z" stroke="#000000" stroke-width="4.58333" stroke-miterlimit="8" fill="#FFFFFF" fill-rule="evenodd"/><rect x="3115.5" y="915.5" width="12" height="37.0001" stroke="#000000" stroke-width="4.58333" stroke-miterlimit="8" fill="#FFFFFF"/><rect x="3025.5" y="915.5" width="12" height="37.0001" stroke="#000000" stroke-width="4.58333" stroke-miterlimit="8" fill="#FFFFFF"/><rect x="3035.5" y="962.5" width="11" height="37.0001" stroke="#000000" stroke-width="4.58333" stroke-miterlimit="8" fill="#FFFFFF"/><rect x="3105.5" y="962.5" width="11" height="37.0001" stroke="#000000" stroke-width="4.58333" stroke-miterlimit="8" fill="#FFFFFF"/><path d="M3035.5 843C3035.5 835.544 3041.54 829.5 3049 829.5L3103 829.5C3110.46 829.5 3116.5 835.544 3116.5 843L3116.5 939C3116.5 946.456 3110.46 952.5 3103 952.5L3049 952.5C3041.54 952.5 3035.5 946.456 3035.5 939Z" stroke="#000000" stroke-width="4.58333" stroke-miterlimit="8" fill="#FFFFFF" fill-rule="evenodd"/><path d="M3024.5 945.833C3024.5 943.992 3025.99 942.5 3027.83 942.5L3125.17 942.5C3127.01 942.5 3128.5 943.992 3128.5 945.833L3128.5 959.167C3128.5 961.008 3127.01 962.5 3125.17 962.5L3027.83 962.5C3025.99 962.5 3024.5 961.008 3024.5 959.167Z" stroke="#000000" stroke-width="4.58333" stroke-miterlimit="8" fill="#FFFFFF" fill-rule="evenodd"/><rect x="3046.5" y="844.5" width="57.9998" height="98" stroke="#000000" stroke-width="4.58333" stroke-miterlimit="8" fill="#FFFFFF"/><path d="M3041.5 837.334C3041.5 835.216 3043.22 833.5 3045.33 833.5L3105.67 833.5C3107.78 833.5 3109.5 835.216 3109.5 837.334L3109.5 852.667C3109.5 854.784 3107.78 856.5 3105.67 856.5L3045.33 856.5C3043.22 856.5 3041.5 854.784 3041.5 852.667Z" stroke="#000000" stroke-width="4.58333" stroke-miterlimit="8" fill="#FFFFFF" fill-rule="evenodd"/><rect x="3226.5" y="915.5" width="12" height="37.0001" stroke="#000000" stroke-width="4.58333" stroke-miterlimit="8" fill="#FFFFFF"/><rect x="3136.5" y="915.5" width="12" height="37.0001" stroke="#000000" stroke-width="4.58333" stroke-miterlimit="8" fill="#FFFFFF"/><rect x="3146.5" y="962.5" width="11" height="38.0002" stroke="#000000" stroke-width="4.58333" stroke-miterlimit="8" fill="#FFFFFF"/><rect x="3216.5" y="962.5" width="11" height="38.0002" stroke="#000000" stroke-width="4.58333" stroke-miterlimit="8" fill="#FFFFFF"/><path d="M3146.5 844C3146.5 836.544 3152.54 830.5 3160 830.5L3214 830.5C3221.46 830.5 3227.5 836.544 3227.5 844L3227.5 940C3227.5 947.456 3221.46 953.5 3214 953.5L3160 953.5C3152.54 953.5 3146.5 947.456 3146.5 940Z" stroke="#000000" stroke-width="4.58333" stroke-miterlimit="8" fill="#FFFFFF" fill-rule="evenodd"/><path d="M3135.5 946.667C3135.5 944.918 3136.92 943.5 3138.67 943.5L3236.33 943.5C3238.08 943.5 3239.5 944.918 3239.5 946.667L3239.5 959.333C3239.5 961.082 3238.08 962.5 3236.33 962.5L3138.67 962.5C3136.92 962.5 3135.5 961.082 3135.5 959.333Z" stroke="#000000" stroke-width="4.58333" stroke-miterlimit="8" fill="#FFFFFF" fill-rule="evenodd"/><rect x="3157.5" y="845.5" width="58" height="98" stroke="#000000" stroke-width="4.58333" stroke-miterlimit="8" fill="#FFFFFF"/><path d="M3152.5 837.5C3152.5 835.291 3154.29 833.5 3156.5 833.5L3216.5 833.5C3218.71 833.5 3220.5 835.291 3220.5 837.5L3220.5 853.5C3220.5 855.709 3218.71 857.5 3216.5 857.5L3156.5 857.5C3154.29 857.5 3152.5 855.709 3152.5 853.5Z" stroke="#000000" stroke-width="4.58333" stroke-miterlimit="8" fill="#FFFFFF" fill-rule="evenodd"/><rect x="3495.5" y="914.5" width="12" height="37.0001" stroke="#000000" stroke-width="4.58333" stroke-miterlimit="8" fill="#FFFFFF"/><rect x="3406.5" y="914.5" width="11" height="37.0001" stroke="#000000" stroke-width="4.58333" stroke-miterlimit="8" fill="#FFFFFF"/><rect x="3415.5" y="961.5" width="12" height="37.0001" stroke="#000000" stroke-width="4.58333" stroke-miterlimit="8" fill="#FFFFFF"/><rect x="3485.5" y="961.5" width="11" height="37.0001" stroke="#000000" stroke-width="4.58333" stroke-miterlimit="8" fill="#FFFFFF"/><path d="M3415.5 842C3415.5 834.544 3421.54 828.5 3429 828.5L3483 828.5C3490.46 828.5 3496.5 834.544 3496.5 842L3496.5 939C3496.5 946.456 3490.46 952.5 3483 952.5L3429 952.5C3421.54 952.5 3415.5 946.456 3415.5 939Z" stroke="#000000" stroke-width="4.58333" stroke-miterlimit="8" fill="#FFFFFF" fill-rule="evenodd"/><path d="M3405.5 944.833C3405.5 942.992 3406.99 941.5 3408.83 941.5L3505.17 941.5C3507.01 941.5 3508.5 942.992 3508.5 944.833L3508.5 958.167C3508.5 960.008 3507.01 961.5 3505.17 961.5L3408.83 961.5C3406.99 961.5 3405.5 960.008 3405.5 958.167Z" stroke="#000000" stroke-width="4.58333" stroke-miterlimit="8" fill="#FFFFFF" fill-rule="evenodd"/><rect x="3427.5" y="844.5" width="57" height="96.9999" stroke="#000000" stroke-width="4.58333" stroke-miterlimit="8" fill="#FFFFFF"/><path d="M3422.5 836.333C3422.5 834.216 3424.22 832.5 3426.33 832.5L3486.67 832.5C3488.78 832.5 3490.5 834.216 3490.5 836.333L3490.5 851.667C3490.5 853.784 3488.78 855.5 3486.67 855.5L3426.33 855.5C3424.22 855.5 3422.5 853.784 3422.5 851.667Z" stroke="#000000" stroke-width="4.58333" stroke-miterlimit="8" fill="#FFFFFF" fill-rule="evenodd"/><rect x="3606.5" y="915.5" width="12" height="37.0001" stroke="#000000" stroke-width="4.58333" stroke-miterlimit="8" fill="#FFFFFF"/><rect x="3517.5" y="915.5" width="11" height="37.0001" stroke="#000000" stroke-width="4.58333" stroke-miterlimit="8" fill="#FFFFFF"/><rect x="3526.5" y="962.5" width="12" height="37.0001" stroke="#000000" stroke-width="4.58333" stroke-miterlimit="8" fill="#FFFFFF"/><rect x="3596.5" y="962.5" width="11" height="37.0001" stroke="#000000" stroke-width="4.58333" stroke-miterlimit="8" fill="#FFFFFF"/><path d="M3526.5 843C3526.5 835.544 3532.54 829.5 3540 829.5L3594 829.5C3601.46 829.5 3607.5 835.544 3607.5 843L3607.5 940C3607.5 947.456 3601.46 953.5 3594 953.5L3540 953.5C3532.54 953.5 3526.5 947.456 3526.5 940Z" stroke="#000000" stroke-width="4.58333" stroke-miterlimit="8" fill="#FFFFFF" fill-rule="evenodd"/><path d="M3516.5 945.833C3516.5 943.992 3517.99 942.5 3519.83 942.5L3616.17 942.5C3618.01 942.5 3619.5 943.992 3619.5 945.833L3619.5 959.166C3619.5 961.007 3618.01 962.5 3616.17 962.5L3519.83 962.5C3517.99 962.5 3516.5 961.007 3516.5 959.166Z" stroke="#000000" stroke-width="4.58333" stroke-miterlimit="8" fill="#FFFFFF" fill-rule="evenodd"/><rect x="3538.5" y="844.5" width="57" height="98" stroke="#000000" stroke-width="4.58333" stroke-miterlimit="8" fill="#FFFFFF"/><path d="M3533.5 837.334C3533.5 835.216 3535.22 833.5 3537.33 833.5L3597.67 833.5C3599.78 833.5 3601.5 835.216 3601.5 837.334L3601.5 852.667C3601.5 854.784 3599.78 856.5 3597.67 856.5L3537.33 856.5C3535.22 856.5 3533.5 854.784 3533.5 852.667Z" stroke="#000000" stroke-width="4.58333" stroke-miterlimit="8" fill="#FFFFFF" fill-rule="evenodd"/><path d="M3360.9 1515.18 3370.24 1515.18 3372.38 1543.3C3375.73 1537.84 3378.15 1533.68 3379.64 1530.83 3381.12 1527.97 3382.22 1525.51 3382.93 1523.43 3383.65 1521.35 3384.19 1519.18 3384.57 1516.92L3384.96 1515.18 3390.1 1515.18 3392.7 1543.34C3396.41 1538.06 3399.23 1533.46 3401.17 1529.52 3403.1 1525.59 3404.07 1522.39 3404.07 1519.92 3404.07 1518.8 3403.83 1518.04 3403.36 1517.64 3402.88 1517.23 3402.07 1517 3400.93 1516.92L3401.29 1515.18 3410.49 1515.18 3411.45 1516.96C3410.62 1519.07 3409.95 1520.7 3409.45 1521.84 3408.95 1522.98 3408.3 1524.36 3407.49 1525.96 3406.68 1527.56 3405.83 1529.16 3404.93 1530.75 3404.02 1532.35 3402.96 1534.1 3401.74 1536.01 3400.51 1537.92 3399.14 1540 3397.62 1542.25 3396.1 1544.5 3394.3 1547.02 3392.24 1549.82L3387.99 1549.82 3386.53 1534.92C3386.41 1533.76 3386.29 1532.24 3386.16 1530.36 3386.03 1528.48 3385.94 1527.04 3385.89 1526.01L3385.5 1525.98C3384.22 1529.14 3382.47 1532.66 3380.26 1536.53 3378.05 1540.4 3375.32 1544.83 3372.06 1549.82L3367.28 1549.82 3364.58 1522.98C3364.43 1521.61 3364.26 1520.49 3364.04 1519.63 3363.83 1518.78 3363.47 1518.14 3362.97 1517.71 3362.47 1517.28 3361.65 1517.02 3360.51 1516.92Z" fill-rule="evenodd"/><text fill="#000000" fill-opacity="0" font-family="Arial,Arial_MSFontService,sans-serif" font-size="34.6465" x="3360.51" y="1545.49">𝑤</text><path d="M3550.36 1540.36C3549.4 1540.36 3548.49 1540.57 3547.65 1541 3546.8 1541.44 3546.03 1542.03 3545.32 1542.79 3544.61 1543.55 3543.98 1544.45 3543.42 1545.48 3542.86 1546.52 3542.38 1547.63 3541.99 1548.82 3541.6 1550.01 3541.31 1551.25 3541.1 1552.55 3540.89 1553.84 3540.79 1555.13 3540.79 1556.43 3540.79 1558.41 3541.2 1559.87 3542.02 1560.82 3542.84 1561.76 3544.08 1562.23 3545.76 1562.23 3546.69 1562.23 3547.57 1562 3548.4 1561.54 3549.23 1561.08 3549.98 1560.47 3550.68 1559.69 3551.37 1558.91 3551.98 1558 3552.53 1556.96 3553.07 1555.92 3553.53 1554.8 3553.91 1553.61 3554.29 1552.42 3554.58 1551.19 3554.78 1549.92 3554.98 1548.65 3555.07 1547.41 3555.07 1546.21 3555.07 1544.29 3554.69 1542.84 3553.94 1541.85 3553.18 1540.85 3551.99 1540.36 3550.36 1540.36ZM3517.52 1540.36C3516.52 1540.36 3515.58 1540.58 3514.7 1541.03 3513.82 1541.48 3513.02 1542.08 3512.29 1542.84 3511.57 1543.6 3510.92 1544.49 3510.35 1545.51 3509.78 1546.53 3509.31 1547.6 3508.92 1548.74 3508.53 1549.88 3508.23 1551.05 3508.02 1552.26 3507.82 1553.47 3507.71 1554.63 3507.71 1555.76 3507.71 1559.43 3508.83 1561.27 3511.05 1561.27 3511.98 1561.27 3512.91 1560.99 3513.83 1560.43 3514.76 1559.87 3515.75 1558.93 3516.82 1557.62 3517.39 1556.93 3517.88 1556.28 3518.3 1555.68 3518.71 1555.07 3519.07 1554.47 3519.36 1553.85 3519.65 1553.24 3519.9 1552.59 3520.11 1551.9 3520.32 1551.21 3520.51 1550.43 3520.68 1549.57 3520.87 1548.59 3521.05 1547.63 3521.24 1546.7 3521.42 1545.77 3521.51 1544.94 3521.51 1544.21 3521.51 1542.82 3521.18 1541.82 3520.52 1541.24 3519.87 1540.65 3518.87 1540.36 3517.52 1540.36ZM3453.57 1540.36C3452.55 1540.36 3451.6 1540.58 3450.72 1541.03 3449.84 1541.48 3449.04 1542.09 3448.32 1542.87 3447.59 1543.64 3446.95 1544.54 3446.39 1545.56 3445.83 1546.58 3445.35 1547.66 3444.97 1548.79 3444.58 1549.93 3444.29 1551.1 3444.09 1552.3 3443.89 1553.5 3443.79 1554.65 3443.79 1555.76 3443.79 1557.62 3444.05 1559 3444.58 1559.91 3445.1 1560.82 3445.95 1561.27 3447.13 1561.27 3447.71 1561.27 3448.28 1561.16 3448.82 1560.96 3449.37 1560.75 3449.94 1560.42 3450.54 1559.97 3452.06 1558.78 3453.36 1557.33 3454.43 1555.63 3455.5 1553.92 3456.3 1551.9 3456.83 1549.57 3457.07 1548.5 3457.26 1547.54 3457.4 1546.67 3457.54 1545.81 3457.61 1544.99 3457.61 1544.21 3457.61 1542.83 3457.29 1541.85 3456.64 1541.25 3455.99 1540.66 3454.97 1540.36 3453.57 1540.36ZM3550.86 1537.8C3552.41 1537.8 3553.77 1538.05 3554.93 1538.55 3556.1 1539.05 3557.07 1539.72 3557.84 1540.58 3558.62 1541.43 3559.2 1542.44 3559.59 1543.59 3559.98 1544.75 3560.17 1545.98 3560.17 1547.29 3560.17 1549.92 3559.78 1552.29 3559.01 1554.42 3558.23 1556.55 3557.16 1558.38 3555.79 1559.91 3554.41 1561.44 3552.8 1562.61 3550.95 1563.44 3549.09 1564.27 3547.08 1564.68 3544.9 1564.68 3543.47 1564.68 3542.19 1564.47 3541.05 1564.04 3539.91 1563.61 3538.94 1562.98 3538.15 1562.17 3537.36 1561.36 3536.75 1560.38 3536.33 1559.24 3535.9 1558.09 3535.69 1556.79 3535.69 1555.34 3535.69 1552.89 3536.07 1550.6 3536.84 1548.47 3537.61 1546.34 3538.67 1544.49 3540.03 1542.91 3541.38 1541.33 3542.98 1540.08 3544.83 1539.17 3546.67 1538.25 3548.68 1537.8 3550.86 1537.8ZM3517.06 1537.8C3518.4 1537.8 3519.59 1537.96 3520.63 1538.27 3521.66 1538.59 3522.6 1539.03 3523.45 1539.58L3525.98 1537.8 3527.95 1538.34C3527.49 1540.55 3527.02 1542.73 3526.55 1544.87 3526.09 1547.02 3525.61 1549.2 3525.13 1551.41 3524.58 1554.01 3524.09 1556.42 3523.68 1558.62 3523.27 1560.82 3522.81 1562.77 3522.31 1564.48 3521.81 1566.19 3521.21 1567.66 3520.51 1568.9 3519.81 1570.14 3518.91 1571.18 3517.82 1572.01 3516.72 1572.84 3515.37 1573.47 3513.77 1573.92 3512.16 1574.37 3510.2 1574.6 3507.87 1574.62 3504.28 1574.62 3501.58 1574.19 3499.76 1573.31 3497.94 1572.44 3497.03 1571.1 3497.03 1569.29 3497.03 1568.82 3497.1 1568.38 3497.25 1567.97 3497.39 1567.56 3497.62 1567.16 3497.93 1566.78 3498.24 1566.4 3498.64 1566.03 3499.13 1565.65 3499.63 1565.28 3500.21 1564.89 3500.88 1564.48L3503.24 1566.26C3502.63 1566.78 3502.22 1567.27 3502.01 1567.74 3501.79 1568.2 3501.68 1568.7 3501.68 1569.21 3501.68 1570.18 3502.18 1570.91 3503.16 1571.41 3504.14 1571.91 3505.68 1572.16 3507.77 1572.16 3508.83 1572.16 3509.8 1572.09 3510.66 1571.93 3511.53 1571.77 3512.32 1571.51 3513.03 1571.14 3513.75 1570.77 3514.4 1570.26 3514.99 1569.6 3515.57 1568.95 3516.12 1568.13 3516.62 1567.16 3517.12 1566.18 3517.59 1564.94 3518.04 1563.44 3518.49 1561.94 3518.93 1560.16 3519.36 1558.11L3518.97 1557.96C3518.06 1559.15 3517.19 1560.17 3516.36 1561.02 3515.53 1561.88 3514.71 1562.57 3513.91 1563.12 3513.11 1563.66 3512.3 1564.06 3511.49 1564.31 3510.68 1564.56 3509.84 1564.68 3508.96 1564.68 3506.94 1564.68 3505.37 1563.95 3504.26 1562.48 3503.15 1561.02 3502.59 1558.87 3502.59 1556.04 3502.59 1554.44 3502.76 1552.87 3503.11 1551.33 3503.45 1549.8 3503.94 1548.35 3504.58 1546.98 3505.22 1545.62 3505.98 1544.37 3506.87 1543.24 3507.76 1542.11 3508.74 1541.14 3509.82 1540.33 3510.9 1539.52 3512.05 1538.9 3513.26 1538.46 3514.48 1538.02 3515.74 1537.8 3517.06 1537.8ZM3477.75 1537.8C3479.02 1537.8 3480.01 1538.21 3480.71 1539.05 3481.41 1539.89 3481.76 1540.99 3481.76 1542.35 3481.76 1543.13 3481.64 1543.82 3481.4 1544.42L3481.76 1544.58C3483.5 1542.25 3485.2 1540.53 3486.84 1539.44 3488.49 1538.34 3490.19 1537.8 3491.93 1537.8 3492.58 1537.8 3493.2 1537.83 3493.78 1537.9 3494.36 1537.97 3494.91 1538.05 3495.45 1538.16L3494.13 1544.42 3491.13 1544.42C3491.04 1543.39 3490.82 1542.64 3490.47 1542.2 3490.11 1541.75 3489.6 1541.52 3488.93 1541.52 3488.53 1541.51 3488.07 1541.63 3487.55 1541.88 3487.04 1542.14 3486.49 1542.51 3485.91 1543 3485.33 1543.48 3484.76 1544.05 3484.19 1544.71 3483.62 1545.36 3483.08 1546.08 3482.57 1546.85 3482.06 1547.63 3481.62 1548.45 3481.24 1549.32 3480.86 1550.2 3480.58 1551.07 3480.39 1551.95L3477.75 1564.22 3472.67 1564.22 3476.56 1547.35C3476.8 1546.34 3476.97 1545.52 3477.06 1544.86 3477.16 1544.21 3477.2 1543.65 3477.2 1543.2 3477.2 1541.95 3476.69 1541.32 3475.68 1541.32 3475.35 1541.32 3475.03 1541.38 3474.71 1541.51 3474.39 1541.64 3474.05 1541.83 3473.71 1542.09 3473.36 1542.35 3472.99 1542.68 3472.57 1543.08 3472.16 1543.47 3471.69 1543.94 3471.17 1544.47L3469.39 1542.79C3470.25 1541.91 3471.04 1541.16 3471.76 1540.53 3472.47 1539.9 3473.16 1539.38 3473.81 1538.97 3474.47 1538.57 3475.12 1538.27 3475.75 1538.08 3476.39 1537.89 3477.06 1537.8 3477.75 1537.8ZM3453.11 1537.8C3454.47 1537.8 3455.67 1537.96 3456.72 1538.27 3457.76 1538.59 3458.71 1539.03 3459.58 1539.58L3462.09 1537.8 3464.18 1538.34 3460.27 1555.29C3460.05 1556.26 3459.89 1557.05 3459.81 1557.68 3459.72 1558.31 3459.68 1558.87 3459.68 1559.35 3459.68 1560.01 3459.81 1560.48 3460.08 1560.78 3460.35 1561.07 3460.73 1561.22 3461.23 1561.22 3461.54 1561.22 3461.85 1561.16 3462.15 1561.04 3462.45 1560.91 3462.78 1560.72 3463.13 1560.47 3463.49 1560.21 3463.88 1559.87 3464.3 1559.47 3464.72 1559.06 3465.2 1558.58 3465.73 1558.01 3466.01 1558.3 3466.3 1558.59 3466.59 1558.87 3466.88 1559.16 3467.17 1559.44 3467.44 1559.72 3466.58 1560.6 3465.79 1561.35 3465.09 1561.98 3464.38 1562.61 3463.69 1563.13 3463.03 1563.53 3462.37 1563.94 3461.71 1564.23 3461.08 1564.41 3460.44 1564.59 3459.77 1564.68 3459.08 1564.68 3457.84 1564.68 3456.88 1564.28 3456.19 1563.48 3455.5 1562.68 3455.15 1561.58 3455.15 1560.18 3455.15 1559.4 3455.27 1558.66 3455.51 1557.96L3455.15 1557.8C3454.27 1559.03 3453.42 1560.07 3452.59 1560.93 3451.76 1561.79 3450.94 1562.51 3450.13 1563.07 3449.32 1563.63 3448.5 1564.04 3447.67 1564.3 3446.84 1564.55 3445.98 1564.68 3445.08 1564.68 3443.03 1564.68 3441.44 1563.95 3440.32 1562.47 3439.2 1561 3438.64 1558.85 3438.64 1556.04 3438.64 1554.37 3438.82 1552.76 3439.17 1551.21 3439.52 1549.67 3440.02 1548.22 3440.67 1546.87 3441.32 1545.51 3442.09 1544.28 3442.99 1543.17 3443.88 1542.05 3444.87 1541.1 3445.94 1540.31 3447.01 1539.51 3448.15 1538.9 3449.35 1538.46 3450.56 1538.02 3451.81 1537.8 3453.11 1537.8ZM3427.48 1537.8C3428.74 1537.8 3429.91 1537.86 3430.98 1538 3432.06 1538.14 3433.18 1538.36 3434.34 1538.65L3432.89 1544.99 3429.83 1544.99C3429.81 1544.09 3429.75 1543.35 3429.64 1542.75 3429.53 1542.16 3429.34 1541.69 3429.09 1541.34 3428.84 1541 3428.52 1540.75 3428.11 1540.6 3427.71 1540.46 3427.21 1540.38 3426.62 1540.36 3425.69 1540.36 3424.8 1540.56 3423.94 1540.98 3423.09 1541.39 3422.3 1541.97 3421.56 1542.7 3420.83 1543.43 3420.16 1544.29 3419.56 1545.27 3418.95 1546.26 3418.44 1547.32 3418.01 1548.46 3417.57 1549.6 3417.24 1550.78 3417.01 1552.02 3416.78 1553.25 3416.66 1554.48 3416.66 1555.7 3416.66 1557.53 3417.02 1558.93 3417.75 1559.88 3418.47 1560.84 3419.56 1561.32 3421.01 1561.32 3421.82 1561.32 3422.57 1561.25 3423.26 1561.1 3423.95 1560.95 3424.62 1560.71 3425.28 1560.36 3425.93 1560.02 3426.61 1559.56 3427.31 1559 3428.01 1558.44 3428.78 1557.75 3429.63 1556.92 3429.95 1557.27 3430.27 1557.61 3430.57 1557.94 3430.87 1558.28 3431.19 1558.62 3431.51 1558.96 3429.65 1560.9 3427.79 1562.33 3425.92 1563.27 3424.06 1564.21 3422.06 1564.68 3419.92 1564.68 3417.25 1564.68 3415.2 1563.9 3413.77 1562.34 3412.35 1560.78 3411.64 1558.55 3411.64 1555.65 3411.64 1554.03 3411.82 1552.46 3412.18 1550.96 3412.55 1549.45 3413.07 1548.03 3413.75 1546.7 3414.43 1545.37 3415.25 1544.16 3416.19 1543.08 3417.14 1541.99 3418.2 1541.05 3419.38 1540.27 3420.55 1539.48 3421.82 1538.87 3423.18 1538.44 3424.54 1538.01 3425.98 1537.8 3427.48 1537.8Z" fill-rule="evenodd"/><text fill="#000000" fill-opacity="0" font-family="Arial,Arial_MSFontService,sans-serif" font-size="36.8257" x="3411.64" y="1570.02">𝑐𝑎𝑟𝑔𝑜</text><path d="M3319 1601 3126.51 1601 3069 1543.49 3069 1375 3319 1375Z" stroke="#000000" stroke-width="10.3125" stroke-miterlimit="8" fill="none" fill-rule="evenodd"/><path d="M0 0 192.494 0 250 57.5057 250 226 0 226Z" stroke="#000000" stroke-width="10.3125" stroke-miterlimit="8" fill="none" fill-rule="evenodd" transform="matrix(1 -1.22465e-16 -1.22465e-16 -1 3338 1601)"/><path d="M3103.94 1396.42 3103.94 1578.72 3097.06 1578.72 3097.06 1396.42ZM3086.75 1401 3100.5 1373.5 3114.25 1401ZM3114.25 1574.14 3100.5 1601.64 3086.75 1574.14Z" fill="#FA8A3A"/><path d="M3504.11 1592.62 3154.39 1590.1 3154.44 1583.23 3504.16 1585.75ZM3499.65 1575.4 3527.05 1589.35 3499.45 1602.9ZM3158.9 1600.45 3131.5 1586.5 3159.1 1572.95Z" fill="#FA8A3A"/></g></svg>