<?xml version="1.0" encoding="UTF-8" standalone="no"?>
<svg
   width="398.16599"
   height="314.92184"
   overflow="hidden"
   version="1.1"
   id="svg241"
   sodipodi:docname="cabin_layout.svg"
   inkscape:version="1.2.2 (732a01da63, 2022-12-09)"
   xmlns:inkscape="http://www.inkscape.org/namespaces/inkscape"
   xmlns:sodipodi="http://sodipodi.sourceforge.net/DTD/sodipodi-0.dtd"
   xmlns="http://www.w3.org/2000/svg"
   xmlns:svg="http://www.w3.org/2000/svg">
  <sodipodi:namedview
     id="namedview243"
     pagecolor="#ffffff"
     bordercolor="#000000"
     borderopacity="0.25"
     inkscape:showpageshadow="2"
     inkscape:pageopacity="0.0"
     inkscape:pagecheckerboard="0"
     inkscape:deskcolor="#d1d1d1"
     showgrid="false"
     inkscape:zoom="1.0125085"
     inkscape:cx="114.07312"
     inkscape:cy="142.71485"
     inkscape:window-width="1920"
     inkscape:window-height="991"
     inkscape:window-x="2151"
     inkscape:window-y="1436"
     inkscape:window-maximized="1"
     inkscape:current-layer="svg241" />
  <defs
     id="defs5">
    <clipPath
       id="clip0">
      <rect
         x="2629"
         y="611"
         width="1363"
         height="1076"
         id="rect2" />
    </clipPath>
  </defs>
  <g
     clip-path="url(#clip0)"
     transform="matrix(0.3,0,0,0.3,-792.885,-189.3219)"
     id="g239">
    <rect
       x="3540.5"
       y="1252.5"
       width="12"
       height="36.999802"
       stroke="#000000"
       stroke-width="4.58333"
       stroke-miterlimit="8"
       fill="#ffffff"
       id="rect7" />
    <rect
       x="3450.5"
       y="1252.5"
       width="12"
       height="36.999802"
       stroke="#000000"
       stroke-width="4.58333"
       stroke-miterlimit="8"
       fill="#ffffff"
       id="rect9" />
    <rect
       x="3460.5"
       y="1299.5"
       width="11"
       height="37.000099"
       stroke="#000000"
       stroke-width="4.58333"
       stroke-miterlimit="8"
       fill="#ffffff"
       id="rect11" />
    <rect
       x="3530.5"
       y="1299.5"
       width="11"
       height="37.000099"
       stroke="#000000"
       stroke-width="4.58333"
       stroke-miterlimit="8"
       fill="#ffffff"
       id="rect13" />
    <path
       d="m 3460.5,1180 c 0,-7.46 6.04,-13.5 13.5,-13.5 h 54 c 7.46,0 13.5,6.04 13.5,13.5 v 97 c 0,7.46 -6.04,13.5 -13.5,13.5 h -54 c -7.46,0 -13.5,-6.04 -13.5,-13.5 z"
       stroke="#000000"
       stroke-width="4.58333"
       stroke-miterlimit="8"
       fill="#ffffff"
       fill-rule="evenodd"
       id="path15" />
    <path
       d="m 3449.5,1282.83 c 0,-1.84 1.49,-3.33 3.33,-3.33 h 96.34 c 1.84,0 3.33,1.49 3.33,3.33 v 13.34 c 0,1.84 -1.49,3.33 -3.33,3.33 h -96.34 c -1.84,0 -3.33,-1.49 -3.33,-3.33 z"
       stroke="#000000"
       stroke-width="4.58333"
       stroke-miterlimit="8"
       fill="#ffffff"
       fill-rule="evenodd"
       id="path17" />
    <rect
       x="3471.5"
       y="1181.5"
       width="58"
       height="98"
       stroke="#000000"
       stroke-width="4.58333"
       stroke-miterlimit="8"
       fill="#ffffff"
       id="rect19" />
    <path
       d="m 3466.5,1174.33 c 0,-2.11 1.72,-3.83 3.83,-3.83 h 60.34 c 2.11,0 3.83,1.72 3.83,3.83 v 15.34 c 0,2.11 -1.72,3.83 -3.83,3.83 h -60.34 c -2.11,0 -3.83,-1.72 -3.83,-3.83 z"
       stroke="#000000"
       stroke-width="4.58333"
       stroke-miterlimit="8"
       fill="#ffffff"
       fill-rule="evenodd"
       id="path21" />
    <rect
       x="3650.5"
       y="1252.5"
       width="12"
       height="36.999802"
       stroke="#000000"
       stroke-width="4.58333"
       stroke-miterlimit="8"
       fill="#ffffff"
       id="rect23" />
    <rect
       x="3560.5"
       y="1252.5"
       width="12"
       height="36.999802"
       stroke="#000000"
       stroke-width="4.58333"
       stroke-miterlimit="8"
       fill="#ffffff"
       id="rect25" />
    <rect
       x="3570.5"
       y="1299.5"
       width="12"
       height="37.000099"
       stroke="#000000"
       stroke-width="4.58333"
       stroke-miterlimit="8"
       fill="#ffffff"
       id="rect27" />
    <rect
       x="3640.5"
       y="1299.5"
       width="11"
       height="37.000099"
       stroke="#000000"
       stroke-width="4.58333"
       stroke-miterlimit="8"
       fill="#ffffff"
       id="rect29" />
    <path
       d="m 3570.5,1180 c 0,-7.46 6.04,-13.5 13.5,-13.5 h 54 c 7.46,0 13.5,6.04 13.5,13.5 v 97 c 0,7.46 -6.04,13.5 -13.5,13.5 h -54 c -7.46,0 -13.5,-6.04 -13.5,-13.5 z"
       stroke="#000000"
       stroke-width="4.58333"
       stroke-miterlimit="8"
       fill="#ffffff"
       fill-rule="evenodd"
       id="path31" />
    <path
       d="m 3560.5,1282.83 c 0,-1.84 1.49,-3.33 3.33,-3.33 h 96.34 c 1.84,0 3.33,1.49 3.33,3.33 v 13.34 c 0,1.84 -1.49,3.33 -3.33,3.33 h -96.34 c -1.84,0 -3.33,-1.49 -3.33,-3.33 z"
       stroke="#000000"
       stroke-width="4.58333"
       stroke-miterlimit="8"
       fill="#ffffff"
       fill-rule="evenodd"
       id="path33" />
    <rect
       x="3582.5"
       y="1181.5"
       width="57"
       height="98"
       stroke="#000000"
       stroke-width="4.58333"
       stroke-miterlimit="8"
       fill="#ffffff"
       id="rect35" />
    <path
       d="m 3577.5,1174.33 c 0,-2.11 1.72,-3.83 3.83,-3.83 h 59.34 c 2.11,0 3.83,1.72 3.83,3.83 v 15.34 c 0,2.11 -1.72,3.83 -3.83,3.83 h -59.34 c -2.11,0 -3.83,-1.72 -3.83,-3.83 z"
       stroke="#000000"
       stroke-width="4.58333"
       stroke-miterlimit="8"
       fill="#ffffff"
       fill-rule="evenodd"
       id="path37" />
    <rect
       x="3761.5"
       y="1252.5"
       width="11.9998"
       height="37.999802"
       stroke="#000000"
       stroke-width="4.58333"
       stroke-miterlimit="8"
       fill="#ffffff"
       id="rect39" />
    <rect
       x="3671.5"
       y="1252.5"
       width="12"
       height="37.999802"
       stroke="#000000"
       stroke-width="4.58333"
       stroke-miterlimit="8"
       fill="#ffffff"
       id="rect41" />
    <rect
       x="3681.5"
       y="1300.5"
       width="12"
       height="37.000099"
       stroke="#000000"
       stroke-width="4.58333"
       stroke-miterlimit="8"
       fill="#ffffff"
       id="rect43" />
    <rect
       x="3751.5"
       y="1300.5"
       width="11"
       height="37.000099"
       stroke="#000000"
       stroke-width="4.58333"
       stroke-miterlimit="8"
       fill="#ffffff"
       id="rect45" />
    <path
       d="m 3681.5,1181 c 0,-7.46 6.04,-13.5 13.5,-13.5 h 54 c 7.46,0 13.5,6.04 13.5,13.5 v 96 c 0,7.46 -6.04,13.5 -13.5,13.5 h -54 c -7.46,0 -13.5,-6.04 -13.5,-13.5 z"
       stroke="#000000"
       stroke-width="4.58333"
       stroke-miterlimit="8"
       fill="#ffffff"
       fill-rule="evenodd"
       id="path47" />
    <path
       d="m 3671.5,1283.83 c 0,-1.84 1.49,-3.33 3.33,-3.33 h 96.34 c 1.84,0 3.33,1.49 3.33,3.33 v 13.34 c 0,1.84 -1.49,3.33 -3.33,3.33 h -96.34 c -1.84,0 -3.33,-1.49 -3.33,-3.33 z"
       stroke="#000000"
       stroke-width="4.58333"
       stroke-miterlimit="8"
       fill="#ffffff"
       fill-rule="evenodd"
       id="path49" />
    <rect
       x="3693.5"
       y="1182.5"
       width="57"
       height="98"
       stroke="#000000"
       stroke-width="4.58333"
       stroke-miterlimit="8"
       fill="#ffffff"
       id="rect51" />
    <path
       d="m 3688.5,1174.5 c 0,-2.21 1.79,-4 4,-4 h 59 c 2.21,0 4,1.79 4,4 v 16 c 0,2.21 -1.79,4 -4,4 h -59 c -2.21,0 -4,-1.79 -4,-4 z"
       stroke="#000000"
       stroke-width="4.58333"
       stroke-miterlimit="8"
       fill="#ffffff"
       fill-rule="evenodd"
       id="path53" />
    <path
       d="m 2855.5,1201 c 0,-259.298 210.2,-469.5 469.5,-469.5 259.3,0 469.5,210.202 469.5,469.5 0,259.3 -210.2,469.5 -469.5,469.5 -259.3,0 -469.5,-210.2 -469.5,-469.5 z"
       stroke="#000000"
       stroke-width="20.625"
       stroke-miterlimit="8"
       fill="none"
       fill-rule="evenodd"
       id="path55" />
    <path
       d="m 2881.5,1346.5 h 882.68"
       stroke="#000000"
       stroke-width="20.625"
       stroke-miterlimit="8"
       fill="none"
       fill-rule="evenodd"
       id="path57" />
    <path
       d="m 2886.5,1010.5 h 877.9"
       stroke="#000000"
       stroke-width="20.625"
       stroke-miterlimit="8"
       fill="none"
       fill-rule="evenodd"
       id="path59" />
    <path
       d="M 0,0 430.834,182.188"
       stroke="#000000"
       stroke-width="6.875"
       stroke-miterlimit="8"
       stroke-dasharray="27.5, 20.625"
       fill="none"
       fill-rule="evenodd"
       transform="matrix(1,0,0,-1,3330.5,1192.69)"
       id="path61" />
    <path
       d="m 3336.5,1191.5 h 460.62"
       stroke="#000000"
       stroke-width="6.875"
       stroke-miterlimit="8"
       fill="none"
       fill-rule="evenodd"
       id="path63" />
    <path
       d="m 3336.5,1192.5 423.96,154.48"
       stroke="#000000"
       stroke-width="6.875"
       stroke-miterlimit="8"
       stroke-dasharray="27.5, 20.625"
       fill="none"
       fill-rule="evenodd"
       id="path65" />
    <path
       d="m 3904.84,1300.73 c -1.4,6.5 -2.11,11.96 -2.11,16.39 0,3.36 0.51,5.82 1.53,7.39 1.02,1.57 2.67,2.36 4.94,2.36 3.36,0 6.54,-2.25 9.55,-6.76 3.01,-4.51 5.56,-10.97 7.66,-19.38 z m 18.42,-30.28 c -3.5,0 -6.74,2.22 -9.72,6.65 -2.98,4.43 -5.52,10.78 -7.62,19.04 h 21.52 c 1.41,-6.31 2.11,-11.75 2.11,-16.3 0,-3.15 -0.51,-5.5 -1.53,-7.05 -1.01,-1.56 -2.6,-2.34 -4.76,-2.34 z m 0.54,-3.64 c 8.69,0 13.03,5.51 13.03,16.53 0,3.12 -0.35,6.84 -1.06,11.16 -0.7,4.33 -1.82,8.74 -3.34,13.23 -1.53,4.5 -3.46,8.47 -5.8,11.93 -2.33,3.46 -5.03,6.13 -8.08,8.02 -3.06,1.89 -6.35,2.83 -9.89,2.83 -4.46,0 -7.78,-1.36 -9.97,-4.09 -2.19,-2.72 -3.28,-6.81 -3.28,-12.26 0,-2.97 0.33,-6.62 0.99,-10.96 0.66,-4.35 1.74,-8.79 3.26,-13.32 1.51,-4.54 3.45,-8.57 5.84,-12.09 2.38,-3.52 5.12,-6.23 8.22,-8.13 3.1,-1.9 6.46,-2.85 10.08,-2.85 z"
       fill-rule="evenodd"
       id="path67" />
    <text
       fill="#000000"
       fill-opacity="0"
       font-family="Arial, Arial_MSFontService, sans-serif"
       font-size="63.6992px"
       x="3895.4099"
       y="1322.55"
       id="text69">𝜃</text>
    <path
       d="m 3958.53,1306.35 h 1.99 c -0.04,1.2 -0.07,2.28 -0.1,3.23 -0.02,0.95 -0.03,1.87 -0.04,2.76 -0.02,0.9 -0.02,1.78 -0.02,2.65 v 24.86 c 0,0.68 0.02,1.26 0.06,1.75 0.05,0.5 0.12,0.91 0.22,1.25 0.1,0.34 0.23,0.62 0.39,0.86 0.16,0.24 0.35,0.45 0.57,0.63 0.26,0.26 0.61,0.46 1.05,0.6 0.44,0.14 0.99,0.26 1.67,0.36 0.67,0.1 1.49,0.18 2.43,0.23 0.95,0.05 2.09,0.09 3.42,0.11 v 2.85 h -25.94 v -2.85 c 1.29,-0.04 2.38,-0.09 3.27,-0.14 0.9,-0.06 1.66,-0.13 2.29,-0.23 0.63,-0.1 1.14,-0.21 1.52,-0.33 0.38,-0.12 0.72,-0.27 1,-0.44 0.31,-0.2 0.57,-0.41 0.79,-0.64 0.21,-0.23 0.39,-0.52 0.52,-0.87 0.13,-0.34 0.23,-0.77 0.31,-1.27 0.08,-0.5 0.11,-1.12 0.11,-1.87 v -23.45 c 0,-0.85 -0.16,-1.45 -0.49,-1.8 -0.32,-0.35 -0.79,-0.53 -1.4,-0.53 -0.68,0 -1.68,0.35 -3.01,1.05 -1.33,0.7 -3.06,1.74 -5.17,3.11 -0.28,-0.5 -0.55,-1 -0.79,-1.51 -0.24,-0.5 -0.49,-1.01 -0.75,-1.53 2.71,-1.49 5.38,-2.96 8.03,-4.44 2.65,-1.47 5.34,-2.93 8.07,-4.4 z"
       fill-rule="evenodd"
       id="path71" />
    <text
       fill="#000000"
       fill-opacity="0"
       font-family="Arial, Arial_MSFontService, sans-serif"
       font-size="42.1367px"
       x="3942.4299"
       y="1343.22"
       id="text73">1</text>
    <path
       d="m 3894.35,1037.51 c -1.41,6.5 -2.12,11.97 -2.12,16.4 0,3.35 0.51,5.82 1.53,7.39 1.02,1.57 2.67,2.36 4.94,2.36 3.36,0 6.54,-2.26 9.55,-6.76 3.01,-4.51 5.56,-10.97 7.66,-19.39 z m 18.41,-30.27 c -3.5,0 -6.74,2.21 -9.72,6.64 -2.98,4.44 -5.52,10.78 -7.62,19.05 h 21.52 c 1.41,-6.32 2.11,-11.75 2.11,-16.31 0,-3.14 -0.51,-5.49 -1.52,-7.05 -1.02,-1.56 -2.61,-2.33 -4.77,-2.33 z m 0.54,-3.64 c 8.69,0 13.03,5.51 13.03,16.53 0,3.11 -0.35,6.83 -1.06,11.16 -0.7,4.33 -1.81,8.74 -3.34,13.23 -1.53,4.49 -3.46,8.47 -5.8,11.93 -2.33,3.46 -5.03,6.13 -8.08,8.02 -3.06,1.88 -6.35,2.83 -9.89,2.83 -4.46,0 -7.78,-1.37 -9.97,-4.09 -2.18,-2.73 -3.28,-6.82 -3.28,-12.27 0,-2.96 0.33,-6.61 0.99,-10.96 0.66,-4.34 1.75,-8.78 3.26,-13.32 1.51,-4.53 3.46,-8.56 5.84,-12.08 2.38,-3.52 5.12,-6.23 8.22,-8.13 3.1,-1.9 6.46,-2.85 10.08,-2.85 z"
       fill-rule="evenodd"
       id="path75" />
    <text
       fill="#000000"
       fill-opacity="0"
       font-family="Arial, Arial_MSFontService, sans-serif"
       font-size="63.6992px"
       x="3884.9099"
       y="1059.33"
       id="text77">𝜃</text>
    <path
       d="m 3947.61,1042.91 c 2.27,0 4.2,0.26 5.81,0.77 1.6,0.51 2.9,1.21 3.9,2.08 1.01,0.87 1.73,1.92 2.18,3.14 0.45,1.22 0.67,2.54 0.67,3.96 0,0.85 -0.06,1.64 -0.18,2.37 -0.12,0.73 -0.33,1.45 -0.62,2.16 -0.3,0.71 -0.68,1.42 -1.16,2.14 -0.48,0.72 -1.08,1.48 -1.8,2.29 -0.55,0.7 -1.26,1.51 -2.13,2.42 -0.87,0.92 -1.82,1.9 -2.86,2.95 -1.04,1.04 -2.12,2.13 -3.26,3.27 -1.13,1.13 -2.23,2.25 -3.3,3.37 -1.07,1.11 -2.05,2.19 -2.94,3.24 -0.9,1.04 -1.63,2 -2.2,2.87 h 12.11 c 1.02,0 1.84,-0.03 2.45,-0.11 0.61,-0.08 1.12,-0.25 1.52,-0.51 0.41,-0.26 0.75,-0.66 1.03,-1.19 0.29,-0.54 0.61,-1.27 0.99,-2.21 h 3.04 c -0.11,1.55 -0.21,3.11 -0.31,4.68 -0.1,1.57 -0.2,3.13 -0.31,4.68 h -27.71 v -1.7 c 0.52,-1.18 1.13,-2.34 1.83,-3.49 0.7,-1.14 1.48,-2.3 2.35,-3.48 0.88,-1.18 1.87,-2.4 2.98,-3.65 1.11,-1.25 2.35,-2.56 3.7,-3.91 2.05,-2.05 3.72,-3.8 5,-5.25 1.29,-1.45 2.3,-2.74 3.05,-3.88 0.74,-1.13 1.24,-2.18 1.52,-3.14 0.27,-0.96 0.41,-1.98 0.41,-3.07 0,-1.12 -0.16,-2.14 -0.48,-3.08 -0.31,-0.94 -0.77,-1.73 -1.36,-2.39 -0.58,-0.65 -1.33,-1.16 -2.24,-1.53 -0.9,-0.37 -1.94,-0.56 -3.12,-0.56 -2.03,0 -3.73,0.55 -5.1,1.65 -1.38,1.1 -2.45,2.7 -3.21,4.79 h -4.29 v -6.37 c 2.8,-1.16 5.36,-2 7.71,-2.52 2.34,-0.53 4.45,-0.79 6.33,-0.79 z"
       fill-rule="evenodd"
       id="path79" />
    <text
       fill="#000000"
       fill-opacity="0"
       font-family="Arial, Arial_MSFontService, sans-serif"
       font-size="42.3657px"
       x="3932.53"
       y="1079.98"
       id="text81">2</text>
    <path
       d="m 3325.96,1055.41 0.29,254.95 -6.87,0.01 -0.29,-254.95 z m -17.18,4.61 13.72,-27.52 13.78,27.48 z m 27.78,245.74 -13.72,27.52 -13.78,-27.48 z"
       fill="#fa8a3a"
       id="path83" />
    <path
       d="m 3120.29,1065.91 c -2.43,0 -4.6,0.98 -6.53,2.94 -1.92,1.96 -3.44,4.6 -4.54,7.93 -1.11,3.33 -1.66,6.64 -1.66,9.94 0,2.48 0.34,4.32 1.02,5.55 0.67,1.22 1.81,1.83 3.4,1.83 0.74,0 1.49,-0.16 2.25,-0.48 0.76,-0.32 1.55,-0.84 2.37,-1.55 0.82,-0.71 1.62,-1.58 2.42,-2.6 0.8,-1.02 1.53,-2.05 2.19,-3.08 0.67,-1.04 1.29,-2.26 1.86,-3.68 0.57,-1.41 1.05,-3.11 1.46,-5.11 l 0.32,-1.53 c 0.35,-1.71 0.53,-3.33 0.53,-4.85 0,-1.85 -0.39,-3.2 -1.17,-4.05 -0.79,-0.84 -2.09,-1.26 -3.92,-1.26 z m 14.93,-19.11 h 2.1 l -8.87,39.46 c -0.52,2.33 -0.79,4.09 -0.79,5.28 0,0.95 0.16,1.64 0.47,2.06 0.31,0.43 0.79,0.65 1.46,0.65 0.71,0 1.47,-0.3 2.28,-0.88 0.81,-0.58 1.95,-1.69 3.42,-3.33 l 2.03,2 c -2.18,2.3 -4.02,3.93 -5.52,4.88 -1.5,0.95 -3.11,1.42 -4.85,1.42 -1.47,0 -2.65,-0.48 -3.53,-1.46 -0.88,-0.97 -1.32,-2.27 -1.32,-3.88 0,-1.31 0.28,-2.7 0.82,-4.17 l -0.46,-0.14 c -2.28,3.32 -4.44,5.76 -6.49,7.3 -2.04,1.55 -4.2,2.32 -6.48,2.32 -2.62,0 -4.64,-0.99 -6.08,-2.96 -1.44,-1.97 -2.16,-4.74 -2.16,-8.3 0,-4.09 0.8,-8.02 2.41,-11.78 1.6,-3.77 3.81,-6.74 6.61,-8.92 2.8,-2.17 5.93,-3.26 9.37,-3.26 1.45,0 2.79,0.15 4.01,0.45 1.23,0.29 2.48,0.81 3.76,1.55 l 1.86,-8.24 c 0.19,-0.78 0.35,-1.65 0.5,-2.6 0.14,-0.95 0.21,-1.78 0.21,-2.49 0,-0.72 -0.13,-1.26 -0.39,-1.62 -0.26,-0.37 -0.64,-0.64 -1.12,-0.81 -0.49,-0.16 -1.36,-0.28 -2.62,-0.35 l 0.42,-1.86 z"
       fill-rule="evenodd"
       id="path85" />
    <text
       fill="#000000"
       fill-opacity="0"
       font-family="Arial, Arial_MSFontService, sans-serif"
       font-size="51.542px"
       x="3101.25"
       y="1091.9"
       id="text87">𝑑</text>
    <path
       d="m 3236.52,1088.88 c -0.97,0 -1.87,0.21 -2.72,0.65 -0.84,0.43 -1.62,1.02 -2.33,1.78 -0.7,0.76 -1.34,1.66 -1.9,2.69 -0.56,1.04 -1.03,2.15 -1.42,3.34 -0.39,1.19 -0.69,2.43 -0.9,3.73 -0.2,1.29 -0.31,2.59 -0.31,3.88 0,1.98 0.41,3.45 1.23,4.39 0.82,0.94 2.07,1.41 3.74,1.41 0.93,0 1.81,-0.23 2.64,-0.69 0.83,-0.46 1.59,-1.07 2.28,-1.85 0.69,-0.78 1.31,-1.69 1.85,-2.73 0.54,-1.04 1.01,-2.16 1.38,-3.35 0.38,-1.19 0.67,-2.42 0.87,-3.69 0.2,-1.27 0.3,-2.5 0.3,-3.71 0,-1.92 -0.38,-3.37 -1.14,-4.36 -0.76,-1 -1.95,-1.49 -3.57,-1.49 z m -32,0 c -0.97,0 -1.87,0.21 -2.72,0.65 -0.84,0.43 -1.62,1.02 -2.33,1.78 -0.7,0.76 -1.34,1.66 -1.9,2.69 -0.56,1.04 -1.03,2.15 -1.42,3.34 -0.39,1.19 -0.69,2.43 -0.9,3.73 -0.2,1.29 -0.31,2.59 -0.31,3.88 0,1.98 0.41,3.45 1.23,4.39 0.82,0.94 2.07,1.41 3.74,1.41 0.93,0 1.81,-0.23 2.64,-0.69 0.83,-0.46 1.59,-1.07 2.28,-1.85 0.69,-0.78 1.31,-1.69 1.85,-2.73 0.54,-1.04 1.01,-2.16 1.38,-3.35 0.38,-1.19 0.67,-2.42 0.87,-3.69 0.2,-1.27 0.3,-2.5 0.3,-3.71 0,-1.92 -0.38,-3.37 -1.14,-4.36 -0.76,-1 -1.95,-1.49 -3.57,-1.49 z m 88.33,-2.56 c 1.68,0 3.22,0.1 4.62,0.31 1.41,0.2 2.78,0.51 4.1,0.9 l -1.24,5.85 h -2.3 c -0.19,-1.55 -0.7,-2.7 -1.54,-3.44 -0.84,-0.74 -2.14,-1.11 -3.9,-1.11 -0.7,0 -1.36,0.09 -1.96,0.28 -0.61,0.19 -1.12,0.45 -1.55,0.79 -0.44,0.34 -0.77,0.74 -1.01,1.2 -0.25,0.47 -0.37,0.98 -0.37,1.53 0,0.5 0.06,0.96 0.19,1.37 0.12,0.42 0.35,0.82 0.71,1.22 0.35,0.4 0.85,0.81 1.5,1.24 0.64,0.43 1.49,0.92 2.55,1.48 1.1,0.6 2.02,1.18 2.75,1.73 0.74,0.55 1.32,1.11 1.75,1.68 0.43,0.57 0.73,1.18 0.91,1.83 0.17,0.64 0.25,1.36 0.25,2.16 0,1.22 -0.25,2.32 -0.75,3.3 -0.5,0.97 -1.2,1.8 -2.09,2.47 -0.9,0.67 -1.96,1.19 -3.17,1.55 -1.22,0.36 -2.55,0.54 -4,0.54 -1.59,0 -3.15,-0.1 -4.69,-0.31 -1.53,-0.2 -3.15,-0.56 -4.86,-1.06 l 1.35,-5.9 h 2.25 c 0.08,1.61 0.59,2.81 1.51,3.61 0.92,0.81 2.35,1.21 4.28,1.21 1.73,0 3.09,-0.37 4.08,-1.12 0.99,-0.74 1.49,-1.77 1.49,-3.1 0,-0.61 -0.06,-1.13 -0.18,-1.57 -0.12,-0.44 -0.36,-0.86 -0.72,-1.25 -0.35,-0.4 -0.83,-0.81 -1.44,-1.23 -0.62,-0.42 -1.41,-0.91 -2.4,-1.46 -1.02,-0.57 -1.89,-1.13 -2.62,-1.69 -0.74,-0.55 -1.34,-1.11 -1.82,-1.68 -0.47,-0.57 -0.82,-1.16 -1.04,-1.78 -0.23,-0.63 -0.34,-1.29 -0.34,-2 0,-1.08 0.23,-2.09 0.68,-3.01 0.46,-0.92 1.11,-1.72 1.96,-2.4 0.84,-0.67 1.86,-1.19 3.05,-1.57 1.19,-0.38 2.53,-0.57 4.01,-0.57 z m -33.95,0 c 1.28,0 2.27,0.42 2.96,1.25 0.7,0.84 1.05,1.94 1.05,3.3 0,0.78 -0.12,1.47 -0.36,2.07 l 0.36,0.16 c 1.75,-2.33 3.44,-4.04 5.09,-5.14 1.65,-1.1 3.34,-1.64 5.08,-1.64 0.66,0 1.28,0.03 1.85,0.1 0.58,0.07 1.14,0.16 1.67,0.26 l -1.32,6.26 h -3 c -0.09,-1.03 -0.31,-1.78 -0.66,-2.22 -0.35,-0.45 -0.87,-0.68 -1.54,-0.68 -0.4,-0.01 -0.85,0.11 -1.37,0.37 -0.52,0.25 -1.07,0.63 -1.64,1.11 -0.58,0.48 -1.16,1.05 -1.72,1.71 -0.57,0.65 -1.11,1.37 -1.62,2.14 -0.51,0.78 -0.96,1.6 -1.33,2.48 -0.38,0.87 -0.67,1.74 -0.86,2.62 l -2.64,12.27 h -5.07 l 3.88,-16.87 c 0.24,-1 0.41,-1.83 0.51,-2.49 0.09,-0.65 0.14,-1.21 0.14,-1.65 0,-1.26 -0.51,-1.89 -1.53,-1.89 -0.33,0 -0.65,0.06 -0.97,0.19 -0.32,0.13 -0.65,0.32 -1,0.58 -0.34,0.26 -0.72,0.59 -1.13,0.99 -0.42,0.39 -0.88,0.86 -1.4,1.39 l -1.79,-1.68 c 0.87,-0.88 1.65,-1.63 2.37,-2.26 0.72,-0.63 1.4,-1.15 2.06,-1.56 0.65,-0.4 1.3,-0.7 1.94,-0.89 0.64,-0.19 1.3,-0.28 1.99,-0.28 z m -21.89,0 c 1.55,0 2.91,0.25 4.08,0.75 1.16,0.5 2.13,1.17 2.91,2.03 0.77,0.85 1.36,1.86 1.75,3.01 0.38,1.16 0.58,2.39 0.58,3.7 0,2.63 -0.39,5 -1.17,7.13 -0.77,2.13 -1.85,3.96 -3.22,5.49 -1.37,1.53 -2.98,2.7 -4.84,3.53 -1.85,0.83 -3.87,1.24 -6.04,1.24 -1.43,0 -2.72,-0.21 -3.86,-0.64 -1.14,-0.43 -2.1,-1.05 -2.9,-1.87 -0.79,-0.81 -1.4,-1.79 -1.82,-2.93 -0.42,-1.15 -0.63,-2.45 -0.63,-3.9 0,-2.45 0.38,-4.74 1.15,-6.87 0.77,-2.13 1.83,-3.98 3.18,-5.56 1.35,-1.58 2.96,-2.83 4.8,-3.74 1.85,-0.92 3.86,-1.37 6.03,-1.37 z m -32,0 c 1.55,0 2.91,0.25 4.08,0.75 1.16,0.5 2.13,1.17 2.91,2.03 0.77,0.85 1.36,1.86 1.75,3.01 0.38,1.16 0.58,2.39 0.58,3.7 0,2.63 -0.39,5 -1.17,7.13 -0.77,2.13 -1.85,3.96 -3.22,5.49 -1.37,1.53 -2.98,2.7 -4.84,3.53 -1.85,0.83 -3.87,1.24 -6.04,1.24 -1.43,0 -2.72,-0.21 -3.86,-0.64 -1.14,-0.43 -2.1,-1.05 -2.9,-1.87 -0.79,-0.81 -1.4,-1.79 -1.82,-2.93 -0.42,-1.15 -0.63,-2.45 -0.63,-3.9 0,-2.45 0.38,-4.74 1.15,-6.87 0.77,-2.13 1.83,-3.98 3.18,-5.56 1.35,-1.58 2.96,-2.83 4.8,-3.74 1.85,-0.92 3.86,-1.37 6.03,-1.37 z m -23.73,-8.91 h 1.86 c -1.07,4.82 -2.05,9.22 -2.94,13.2 -0.89,3.99 -1.86,8.39 -2.91,13.2 -0.24,1.04 -0.41,1.85 -0.52,2.45 -0.1,0.59 -0.15,1.13 -0.15,1.61 0,0.66 0.13,1.13 0.4,1.43 0.27,0.29 0.68,0.44 1.23,0.44 0.31,0 0.62,-0.06 0.93,-0.18 0.31,-0.12 0.64,-0.31 0.98,-0.57 0.35,-0.26 0.73,-0.59 1.15,-1 0.43,-0.41 0.91,-0.89 1.44,-1.46 l 1.68,1.71 c -0.88,0.89 -1.68,1.66 -2.39,2.29 -0.72,0.63 -1.4,1.14 -2.05,1.54 -0.64,0.39 -1.28,0.68 -1.91,0.86 -0.63,0.18 -1.31,0.27 -2.03,0.27 -0.66,0 -1.25,-0.12 -1.78,-0.36 -0.52,-0.24 -0.97,-0.57 -1.35,-0.99 -0.38,-0.43 -0.68,-0.93 -0.88,-1.52 -0.21,-0.58 -0.31,-1.23 -0.31,-1.94 0,-0.64 0.06,-1.43 0.19,-2.37 0.13,-0.94 0.33,-2 0.61,-3.19 0.74,-3.31 1.48,-6.62 2.21,-9.91 0.73,-3.3 1.33,-5.83 1.8,-7.59 0.41,-1.88 0.62,-3.16 0.62,-3.85 0,-0.36 -0.05,-0.67 -0.14,-0.91 -0.1,-0.24 -0.27,-0.44 -0.52,-0.59 -0.25,-0.16 -0.59,-0.27 -1.02,-0.34 -0.43,-0.07 -0.99,-0.12 -1.68,-0.16 l 0.36,-1.76 z m -19.74,-0.85 c 0.95,0 1.79,0.05 2.51,0.14 0.73,0.1 1.43,0.21 2.1,0.35 l -1.06,4.82 h -2.56 c -0.13,-0.99 -0.42,-1.71 -0.88,-2.17 -0.47,-0.45 -1.09,-0.68 -1.87,-0.68 -0.9,0 -1.65,0.19 -2.26,0.58 -0.61,0.39 -1.15,0.98 -1.61,1.76 -0.45,0.79 -0.85,1.7 -1.17,2.76 -0.33,1.05 -0.56,1.96 -0.68,2.74 h 7.17 l -0.57,2.87 h -7.19 l -4.69,22.18 c -0.81,3.78 -2.12,6.58 -3.94,8.4 -1.82,1.82 -4.25,2.73 -7.29,2.73 -0.79,0 -1.37,-0.05 -1.73,-0.16 0.1,-0.43 0.2,-0.87 0.28,-1.33 0.09,-0.46 0.19,-0.9 0.31,-1.33 0.11,0.03 0.25,0.05 0.44,0.05 0.19,0 0.46,0 0.81,0 0.67,0 1.29,-0.11 1.85,-0.32 0.56,-0.22 1.07,-0.61 1.54,-1.17 0.46,-0.56 0.89,-1.33 1.28,-2.3 0.38,-0.98 0.75,-2.23 1.1,-3.77 l 5.17,-22.98 h -4.45 l 0.47,-1.99 c 0.95,-0.05 1.7,-0.11 2.26,-0.18 0.56,-0.07 1.04,-0.22 1.42,-0.45 0.39,-0.24 0.68,-0.63 0.87,-1.18 1,-3.16 2.51,-5.51 4.52,-7.05 2.01,-1.55 4.63,-2.32 7.85,-2.32 z"
       fill-rule="evenodd"
       id="path89" />
    <text
       fill="#000000"
       fill-opacity="0"
       font-family="Arial, Arial_MSFontService, sans-serif"
       font-size="46.4785px"
       x="3135.8201"
       y="1117.23"
       id="text91">𝑓𝑙𝑜𝑜𝑟𝑠</text>
    <path
       d="m 2658.24,1231.66 h 2.07 l -6.13,24.7 0.43,0.15 c 2.25,-3 4.39,-5.17 6.4,-6.51 2,-1.34 4.03,-2.01 6.07,-2.01 2.21,0 3.91,0.63 5.1,1.91 1.19,1.27 1.78,3.03 1.78,5.29 0,1.5 -0.34,3.62 -1.03,6.38 l -2.32,9.34 c -0.64,2.59 -0.96,4.42 -0.96,5.49 0,0.95 0.15,1.64 0.46,2.06 0.31,0.43 0.8,0.65 1.46,0.65 0.72,0 1.48,-0.3 2.28,-0.88 0.81,-0.58 1.95,-1.69 3.43,-3.33 l 2.03,2 c -2.28,2.4 -4.15,4.05 -5.62,4.95 -1.46,0.9 -3.1,1.35 -4.93,1.35 -1.55,0 -2.78,-0.54 -3.69,-1.63 -0.92,-1.1 -1.37,-2.51 -1.37,-4.25 0,-1.54 0.39,-3.81 1.17,-6.8 l 1.54,-6.17 c 0.54,-2.21 0.91,-3.87 1.1,-4.97 0.19,-1.11 0.29,-1.97 0.29,-2.59 0,-1.68 -0.28,-2.88 -0.82,-3.58 -0.55,-0.7 -1.44,-1.05 -2.68,-1.05 -0.97,0 -2.05,0.4 -3.24,1.21 -1.19,0.81 -2.44,2.04 -3.74,3.69 -1.31,1.65 -2.35,3.23 -3.12,4.74 -0.78,1.51 -1.39,3.31 -1.84,5.4 l -3.24,15.43 h -6.17 l 9.16,-40.74 c 0.57,-2.54 0.86,-4.3 0.86,-5.27 0,-1 -0.31,-1.7 -0.91,-2.11 -0.61,-0.4 -1.69,-0.63 -3.26,-0.67 l 0.42,-1.86 z"
       fill-rule="evenodd"
       id="path93" />
    <text
       fill="#000000"
       fill-opacity="0"
       font-family="Arial, Arial_MSFontService, sans-serif"
       font-size="51.542px"
       x="2642.95"
       y="1276.76"
       id="text95">ℎ</text>
    <path
       d="m 2753.59,1273.74 c -1.01,0 -1.96,0.22 -2.84,0.67 -0.88,0.45 -1.69,1.06 -2.41,1.84 -0.72,0.78 -1.37,1.67 -1.93,2.69 -0.56,1.02 -1.03,2.1 -1.42,3.24 -0.39,1.13 -0.68,2.3 -0.88,3.5 -0.2,1.2 -0.3,2.35 -0.3,3.46 0,1.86 0.26,3.24 0.79,4.15 0.53,0.91 1.38,1.36 2.55,1.36 0.59,0 1.15,-0.1 1.69,-0.31 0.55,-0.21 1.12,-0.54 1.73,-0.99 1.51,-1.19 2.81,-2.63 3.88,-4.34 1.07,-1.71 1.87,-3.73 2.4,-6.06 0.25,-1.07 0.44,-2.03 0.57,-2.9 0.14,-0.86 0.21,-1.68 0.21,-2.46 0,-1.38 -0.32,-2.36 -0.97,-2.96 -0.65,-0.59 -1.67,-0.89 -3.07,-0.89 z m -28.82,0 c -0.94,0 -1.88,0.23 -2.8,0.7 -0.93,0.46 -1.8,1.12 -2.62,1.98 -0.82,0.85 -1.56,1.89 -2.24,3.1 -0.67,1.22 -1.23,2.58 -1.68,4.08 2.19,-0.02 4.08,-0.19 5.66,-0.52 1.58,-0.33 2.87,-0.78 3.88,-1.34 1.01,-0.57 1.75,-1.25 2.22,-2.02 0.48,-0.78 0.72,-1.63 0.72,-2.57 0,-1.06 -0.27,-1.9 -0.81,-2.51 -0.53,-0.6 -1.31,-0.9 -2.33,-0.9 z m 28.36,-2.56 c 1.36,0 2.56,0.16 3.61,0.48 1.04,0.31 2,0.75 2.86,1.3 l 2.51,-1.78 2.09,0.54 -3.9,16.95 c -0.23,0.97 -0.38,1.76 -0.47,2.39 -0.09,0.63 -0.13,1.19 -0.13,1.67 0,0.66 0.13,1.13 0.4,1.43 0.27,0.29 0.65,0.44 1.15,0.44 0.31,0 0.62,-0.06 0.92,-0.18 0.3,-0.12 0.63,-0.31 0.99,-0.57 0.35,-0.26 0.74,-0.59 1.16,-1 0.42,-0.41 0.9,-0.89 1.44,-1.46 0.27,0.29 0.56,0.58 0.85,0.87 0.29,0.28 0.58,0.56 0.85,0.84 -0.86,0.88 -1.64,1.63 -2.35,2.26 -0.71,0.63 -1.39,1.15 -2.06,1.55 -0.66,0.41 -1.31,0.7 -1.95,0.88 -0.64,0.18 -1.3,0.27 -1.99,0.27 -1.25,0 -2.21,-0.4 -2.9,-1.2 -0.69,-0.8 -1.04,-1.9 -1.04,-3.3 0,-0.77 0.12,-1.52 0.36,-2.22 l -0.36,-0.16 c -0.88,1.23 -1.73,2.27 -2.56,3.13 -0.83,0.87 -1.65,1.58 -2.46,2.14 -0.81,0.56 -1.63,0.97 -2.46,1.23 -0.82,0.26 -1.69,0.38 -2.58,0.38 -2.06,0 -3.64,-0.73 -4.77,-2.21 -1.12,-1.47 -1.68,-3.62 -1.68,-6.43 0,-1.67 0.18,-3.28 0.53,-4.83 0.36,-1.54 0.86,-2.99 1.5,-4.34 0.65,-1.36 1.42,-2.59 2.32,-3.7 0.9,-1.12 1.88,-2.07 2.95,-2.86 1.07,-0.8 2.21,-1.41 3.42,-1.85 1.2,-0.44 2.45,-0.66 3.75,-0.66 z m -27.24,0 c 2.21,0 3.88,0.48 5.03,1.45 1.15,0.96 1.72,2.33 1.72,4.11 0,6.25 -5.91,9.37 -17.72,9.37 -0.09,0.45 -0.16,0.93 -0.21,1.46 -0.05,0.53 -0.08,1.1 -0.08,1.72 0,1.88 0.38,3.25 1.15,4.12 0.77,0.86 1.96,1.29 3.59,1.29 0.84,0 1.64,-0.09 2.4,-0.27 0.76,-0.18 1.51,-0.46 2.24,-0.84 0.73,-0.38 1.47,-0.87 2.21,-1.46 0.75,-0.6 1.52,-1.31 2.33,-2.14 l 1.94,2.1 c -2,1.98 -3.99,3.47 -5.99,4.47 -1.99,1 -4.13,1.5 -6.43,1.5 -1.34,0 -2.54,-0.2 -3.58,-0.6 -1.05,-0.41 -1.93,-1 -2.64,-1.78 -0.72,-0.77 -1.26,-1.72 -1.63,-2.83 -0.37,-1.11 -0.56,-2.37 -0.56,-3.77 0,-0.98 0.09,-2 0.26,-3.06 0.17,-1.06 0.44,-2.12 0.8,-3.18 0.36,-1.07 0.81,-2.1 1.35,-3.11 0.53,-1.01 1.16,-1.95 1.89,-2.83 1.45,-1.8 3.19,-3.2 5.24,-4.21 2.04,-1.01 4.27,-1.51 6.69,-1.51 z m -30.17,0 c 1.67,0 3.21,0.1 4.62,0.31 1.41,0.2 2.77,0.51 4.1,0.9 l -1.24,5.85 h -2.3 c -0.19,-1.55 -0.71,-2.7 -1.54,-3.44 -0.84,-0.74 -2.14,-1.11 -3.9,-1.11 -0.7,0 -1.36,0.09 -1.96,0.28 -0.61,0.19 -1.13,0.45 -1.56,0.79 -0.43,0.34 -0.76,0.74 -1.01,1.2 -0.24,0.47 -0.36,0.98 -0.36,1.53 0,0.5 0.06,0.96 0.18,1.37 0.12,0.42 0.36,0.82 0.71,1.22 0.36,0.4 0.86,0.81 1.51,1.24 0.64,0.43 1.49,0.92 2.54,1.48 1.11,0.6 2.03,1.18 2.76,1.73 0.73,0.55 1.32,1.11 1.75,1.68 0.43,0.57 0.73,1.18 0.9,1.83 0.18,0.64 0.26,1.36 0.26,2.16 0,1.22 -0.25,2.32 -0.75,3.3 -0.5,0.97 -1.2,1.8 -2.1,2.47 -0.89,0.67 -1.95,1.19 -3.17,1.55 -1.21,0.36 -2.54,0.54 -3.99,0.54 -1.59,0 -3.15,-0.1 -4.69,-0.31 -1.53,-0.2 -3.15,-0.56 -4.86,-1.06 l 1.34,-5.9 h 2.25 c 0.09,1.61 0.6,2.81 1.52,3.61 0.92,0.81 2.35,1.21 4.28,1.21 1.73,0 3.09,-0.37 4.08,-1.12 0.99,-0.74 1.49,-1.77 1.49,-3.1 0,-0.61 -0.07,-1.13 -0.19,-1.57 -0.12,-0.44 -0.35,-0.86 -0.71,-1.25 -0.35,-0.4 -0.83,-0.81 -1.45,-1.23 -0.61,-0.42 -1.41,-0.91 -2.39,-1.46 -1.02,-0.57 -1.89,-1.13 -2.63,-1.69 -0.73,-0.55 -1.33,-1.11 -1.81,-1.68 -0.47,-0.57 -0.82,-1.16 -1.05,-1.78 -0.22,-0.63 -0.33,-1.29 -0.33,-2 0,-1.08 0.23,-2.09 0.68,-3.01 0.46,-0.92 1.11,-1.72 1.96,-2.4 0.84,-0.67 1.86,-1.19 3.05,-1.57 1.19,-0.38 2.53,-0.57 4.01,-0.57 z m 83.76,-6.03 h 4.03 l -1.47,6.57 h 8.8 l -0.6,2.87 h -8.77 l -2.64,10.85 c -0.17,0.72 -0.31,1.37 -0.43,1.95 -0.11,0.58 -0.2,1.1 -0.27,1.57 -0.07,0.46 -0.12,0.88 -0.14,1.26 -0.03,0.38 -0.04,0.74 -0.04,1.06 0,1.04 0.22,1.85 0.65,2.44 0.43,0.58 1.14,0.88 2.12,0.88 0.83,0 1.71,-0.31 2.64,-0.92 0.93,-0.61 1.99,-1.58 3.18,-2.89 l 1.79,1.81 c -0.88,0.99 -1.72,1.82 -2.51,2.51 -0.8,0.69 -1.57,1.26 -2.33,1.7 -0.76,0.44 -1.51,0.76 -2.25,0.96 -0.75,0.2 -1.5,0.29 -2.28,0.29 -2.05,0 -3.58,-0.48 -4.59,-1.44 -1.01,-0.97 -1.52,-2.39 -1.52,-4.27 0,-0.64 0.05,-1.35 0.14,-2.11 0.1,-0.77 0.23,-1.52 0.41,-2.24 l 3.08,-13.41 h -4.46 l 0.52,-1.99 c 1.04,0 1.84,-0.1 2.42,-0.3 0.58,-0.2 1.07,-0.47 1.46,-0.81 0.26,-0.24 0.51,-0.54 0.75,-0.9 0.25,-0.35 0.49,-0.78 0.73,-1.28 0.24,-0.5 0.49,-1.09 0.74,-1.77 0.25,-0.68 0.53,-1.48 0.84,-2.39 z"
       fill-rule="evenodd"
       id="path97" />
    <text
       fill="#000000"
       fill-opacity="0"
       font-family="Arial, Arial_MSFontService, sans-serif"
       font-size="32.918px"
       x="2681.6201"
       y="1293.95"
       id="text99">𝑠𝑒𝑎𝑡</text>
    <path
       d="m 2827.94,1180.42 v 140.78 h -6.88 v -140.78 z m -17.19,4.58 13.75,-27.5 13.75,27.5 z m 27.5,131.61 -13.75,27.5 -13.75,-27.5 z"
       fill="#fa8a3a"
       id="path101" />
    <path
       d="m 3855.24,1216.04 -1.19,20.44 -2.39,21.66 -3.34,21.46 -4.28,21.4 -5.22,21.16 -5.98,19.72 -6.58,-1.99 5.95,-19.64 -0.05,0.18 5.19,-21 -0.03,0.15 4.25,-21.25 -0.03,0.14 3.31,-21.31 -0.02,0.15 2.38,-21.5 -0.02,0.18 1.19,-20.35 z m -17.31,3.97 14.57,-27.07 12.92,27.9 z m 6.12,120.87 -21.74,21.74 -4.35,-30.43 z"
       fill="#fa8a3a"
       id="path103" />
    <path
       d="m 3825.25,1008.92 8.87,23.39 7.24,22.86 6.11,23.16 4.97,23.48 3.84,23.67 2.62,24.68 -6.84,0.72 -2.6,-24.58 0.02,0.19 -3.81,-23.5 0.03,0.16 -4.94,-23.31 0.04,0.16 -6.06,-23 0.05,0.16 -7.19,-22.68 0.06,0.18 -8.84,-23.3 z m -14.12,10.76 2.06,-30.68 23.3,20.05 z m 57.74,125.28 -11.75,28.42 -15.68,-26.45 z"
       fill="#fa8a3a"
       id="path105" />
    <path
       d="m 3332.96,1381.41 0.29,254.95 -6.87,0.01 -0.29,-254.95 z m -17.18,4.61 13.72,-27.52 13.78,27.48 z m 27.78,245.74 -13.72,27.52 -13.78,-27.48 z"
       fill="#fa8a3a"
       id="path107" />
    <path
       d="m 3110.19,1500.87 c -2.43,0 -4.6,0.98 -6.53,2.95 -1.92,1.96 -3.44,4.6 -4.54,7.93 -1.11,3.32 -1.66,6.64 -1.66,9.94 0,2.47 0.34,4.32 1.02,5.54 0.67,1.23 1.81,1.84 3.4,1.84 0.74,0 1.49,-0.16 2.25,-0.48 0.76,-0.32 1.55,-0.84 2.37,-1.55 0.82,-0.72 1.62,-1.58 2.42,-2.6 0.8,-1.03 1.53,-2.05 2.19,-3.09 0.67,-1.03 1.29,-2.26 1.86,-3.67 0.57,-1.41 1.05,-3.12 1.46,-5.11 l 0.32,-1.54 c 0.35,-1.71 0.53,-3.32 0.53,-4.84 0,-1.86 -0.39,-3.21 -1.17,-4.05 -0.79,-0.84 -2.09,-1.27 -3.92,-1.27 z m 14.93,-19.1 h 2.1 l -8.87,39.46 c -0.52,2.33 -0.79,4.08 -0.79,5.27 0,0.95 0.16,1.64 0.47,2.07 0.31,0.43 0.79,0.64 1.46,0.64 0.71,0 1.47,-0.29 2.28,-0.87 0.81,-0.58 1.95,-1.69 3.42,-3.33 l 2.03,1.99 c -2.18,2.31 -4.02,3.93 -5.52,4.89 -1.5,0.95 -3.11,1.42 -4.85,1.42 -1.47,0 -2.65,-0.49 -3.53,-1.46 -0.88,-0.97 -1.32,-2.27 -1.32,-3.89 0,-1.3 0.28,-2.69 0.82,-4.17 l -0.46,-0.14 c -2.28,3.33 -4.44,5.76 -6.49,7.31 -2.04,1.54 -4.2,2.32 -6.48,2.32 -2.62,0 -4.64,-0.99 -6.08,-2.96 -1.44,-1.98 -2.16,-4.74 -2.16,-8.31 0,-4.09 0.8,-8.01 2.41,-11.78 1.6,-3.77 3.81,-6.74 6.61,-8.91 2.8,-2.17 5.93,-3.26 9.37,-3.26 1.45,0 2.79,0.15 4.01,0.44 1.23,0.3 2.48,0.82 3.76,1.55 l 1.86,-8.23 c 0.19,-0.78 0.35,-1.65 0.5,-2.6 0.14,-0.95 0.21,-1.78 0.21,-2.5 0,-0.71 -0.13,-1.25 -0.39,-1.62 -0.26,-0.37 -0.64,-0.63 -1.12,-0.8 -0.49,-0.17 -1.36,-0.29 -2.62,-0.36 l 0.42,-1.85 z"
       fill-rule="evenodd"
       id="path109" />
    <text
       fill="#000000"
       fill-opacity="0"
       font-family="Arial, Arial_MSFontService, sans-serif"
       font-size="51.542px"
       x="3091.1499"
       y="1526.87"
       id="text111">𝑑</text>
    <path
       d="m 3271.84,1523.84 c -0.96,0 -1.87,0.22 -2.71,0.65 -0.85,0.43 -1.63,1.03 -2.33,1.79 -0.71,0.76 -1.35,1.65 -1.91,2.69 -0.56,1.03 -1.03,2.15 -1.42,3.34 -0.39,1.19 -0.69,2.43 -0.89,3.72 -0.21,1.3 -0.31,2.59 -0.31,3.89 0,1.98 0.41,3.44 1.23,4.38 0.82,0.94 2.06,1.41 3.74,1.41 0.93,0 1.81,-0.23 2.64,-0.68 0.82,-0.46 1.58,-1.08 2.27,-1.85 0.69,-0.78 1.31,-1.69 1.85,-2.73 0.55,-1.05 1.01,-2.16 1.39,-3.36 0.38,-1.19 0.67,-2.41 0.86,-3.68 0.2,-1.27 0.3,-2.51 0.3,-3.72 0,-1.91 -0.38,-3.36 -1.14,-4.36 -0.76,-0.99 -1.95,-1.49 -3.57,-1.49 z m -32.84,0 c -1,0 -1.94,0.23 -2.82,0.68 -0.88,0.45 -1.68,1.05 -2.41,1.81 -0.72,0.76 -1.37,1.65 -1.94,2.66 -0.57,1.02 -1.05,2.1 -1.43,3.24 -0.39,1.14 -0.69,2.31 -0.9,3.52 -0.2,1.21 -0.31,2.37 -0.31,3.49 0,3.68 1.11,5.52 3.34,5.52 0.93,0 1.86,-0.29 2.78,-0.85 0.93,-0.56 1.92,-1.49 2.99,-2.8 0.57,-0.69 1.06,-1.34 1.48,-1.94 0.41,-0.61 0.76,-1.22 1.06,-1.83 0.29,-0.61 0.54,-1.26 0.75,-1.95 0.2,-0.69 0.39,-1.47 0.57,-2.33 0.19,-0.99 0.37,-1.94 0.55,-2.87 0.18,-0.94 0.28,-1.76 0.28,-2.49 0,-1.4 -0.33,-2.39 -0.99,-2.98 -0.65,-0.58 -1.65,-0.88 -3,-0.88 z m -63.95,0 c -1.02,0 -1.97,0.23 -2.85,0.68 -0.88,0.45 -1.68,1.06 -2.4,1.84 -0.73,0.77 -1.37,1.67 -1.93,2.69 -0.56,1.01 -1.04,2.09 -1.43,3.23 -0.38,1.14 -0.68,2.31 -0.88,3.51 -0.19,1.2 -0.29,2.35 -0.29,3.45 0,1.87 0.26,3.25 0.79,4.16 0.52,0.9 1.37,1.36 2.55,1.36 0.58,0 1.15,-0.11 1.69,-0.32 0.54,-0.2 1.12,-0.53 1.72,-0.98 1.52,-1.19 2.81,-2.64 3.88,-4.35 1.07,-1.7 1.88,-3.72 2.41,-6.05 0.24,-1.07 0.43,-2.04 0.57,-2.9 0.14,-0.86 0.21,-1.68 0.21,-2.46 0,-1.38 -0.33,-2.37 -0.97,-2.96 -0.65,-0.6 -1.67,-0.9 -3.07,-0.9 z m 97.28,-2.56 c 1.56,0 2.92,0.25 4.08,0.75 1.16,0.5 2.14,1.18 2.91,2.03 0.78,0.86 1.36,1.86 1.75,3.02 0.39,1.16 0.58,2.39 0.58,3.7 0,2.62 -0.39,5 -1.16,7.13 -0.78,2.13 -1.85,3.96 -3.23,5.49 -1.37,1.52 -2.98,2.7 -4.84,3.53 -1.85,0.83 -3.86,1.24 -6.04,1.24 -1.43,0 -2.72,-0.21 -3.85,-0.65 -1.14,-0.43 -2.11,-1.05 -2.9,-1.86 -0.8,-0.81 -1.4,-1.79 -1.83,-2.94 -0.42,-1.14 -0.63,-2.44 -0.63,-3.89 0,-2.45 0.38,-4.74 1.15,-6.87 0.77,-2.13 1.83,-3.99 3.18,-5.57 1.36,-1.57 2.96,-2.82 4.8,-3.74 1.85,-0.91 3.86,-1.37 6.03,-1.37 z m -33.8,0 c 1.35,0 2.54,0.16 3.58,0.48 1.03,0.32 1.97,0.76 2.82,1.31 l 2.53,-1.79 1.97,0.55 c -0.47,2.2 -0.93,4.38 -1.4,6.53 -0.46,2.15 -0.94,4.33 -1.42,6.54 -0.55,2.6 -1.04,5 -1.45,7.2 -0.42,2.2 -0.87,4.16 -1.37,5.86 -0.5,1.71 -1.1,3.19 -1.8,4.43 -0.7,1.24 -1.6,2.28 -2.69,3.1 -1.1,0.83 -2.45,1.47 -4.05,1.92 -1.61,0.45 -3.57,0.68 -5.9,0.7 -3.59,0 -6.3,-0.44 -8.12,-1.31 -1.82,-0.87 -2.73,-2.21 -2.73,-4.02 0,-0.47 0.08,-0.91 0.22,-1.32 0.15,-0.42 0.38,-0.81 0.69,-1.19 0.31,-0.38 0.71,-0.76 1.2,-1.13 0.49,-0.37 1.08,-0.76 1.75,-1.18 l 2.35,1.79 c -0.6,0.52 -1.01,1.01 -1.22,1.47 -0.22,0.47 -0.33,0.96 -0.33,1.48 0,0.97 0.49,1.7 1.48,2.2 0.98,0.5 2.52,0.75 4.6,0.75 1.07,0 2.04,-0.08 2.9,-0.23 0.86,-0.16 1.65,-0.42 2.37,-0.79 0.72,-0.37 1.37,-0.89 1.95,-1.54 0.59,-0.66 1.13,-1.47 1.63,-2.45 0.5,-0.97 0.98,-2.21 1.43,-3.71 0.45,-1.5 0.89,-3.28 1.32,-5.33 l -0.39,-0.16 c -0.92,1.19 -1.79,2.22 -2.61,3.07 -0.83,0.85 -1.65,1.55 -2.45,2.1 -0.8,0.54 -1.61,0.94 -2.42,1.19 -0.81,0.25 -1.66,0.37 -2.54,0.37 -2.01,0 -3.58,-0.73 -4.69,-2.2 -1.12,-1.46 -1.67,-3.61 -1.67,-6.44 0,-1.61 0.17,-3.18 0.52,-4.71 0.34,-1.54 0.83,-2.99 1.47,-4.35 0.64,-1.36 1.4,-2.61 2.29,-3.74 0.89,-1.13 1.87,-2.1 2.95,-2.91 1.08,-0.81 2.23,-1.44 3.44,-1.88 1.22,-0.44 2.48,-0.66 3.79,-0.66 z m -39.31,0 c 1.28,0 2.27,0.42 2.97,1.26 0.7,0.83 1.05,1.93 1.05,3.3 0,0.77 -0.12,1.46 -0.37,2.07 l 0.37,0.15 c 1.74,-2.33 3.43,-4.04 5.08,-5.13 1.65,-1.1 3.34,-1.65 5.09,-1.65 0.65,0 1.27,0.04 1.85,0.11 0.57,0.07 1.13,0.15 1.67,0.26 l -1.32,6.26 h -3.01 c -0.08,-1.04 -0.3,-1.78 -0.66,-2.23 -0.35,-0.45 -0.86,-0.67 -1.54,-0.67 -0.39,-0.02 -0.85,0.1 -1.37,0.36 -0.51,0.26 -1.06,0.63 -1.64,1.11 -0.58,0.49 -1.15,1.06 -1.72,1.71 -0.57,0.66 -1.11,1.37 -1.62,2.15 -0.51,0.78 -0.95,1.6 -1.33,2.47 -0.38,0.87 -0.67,1.75 -0.86,2.63 l -2.64,12.27 h -5.07 l 3.88,-16.88 c 0.25,-1 0.41,-1.83 0.51,-2.48 0.09,-0.66 0.14,-1.21 0.14,-1.66 0,-1.26 -0.51,-1.89 -1.53,-1.89 -0.32,0 -0.65,0.07 -0.97,0.2 -0.32,0.13 -0.65,0.32 -0.99,0.58 -0.35,0.26 -0.73,0.59 -1.14,0.98 -0.41,0.4 -0.88,0.86 -1.4,1.4 l -1.78,-1.68 c 0.86,-0.88 1.65,-1.64 2.36,-2.27 0.72,-0.63 1.41,-1.14 2.06,-1.55 0.66,-0.4 1.3,-0.7 1.94,-0.89 0.64,-0.19 1.3,-0.29 1.99,-0.29 z m -24.64,0 c 1.37,0 2.57,0.16 3.61,0.48 1.05,0.32 2,0.76 2.86,1.31 l 2.51,-1.79 2.1,0.55 -3.91,16.95 c -0.22,0.96 -0.38,1.76 -0.46,2.39 -0.09,0.63 -0.13,1.19 -0.13,1.67 0,0.66 0.13,1.13 0.4,1.42 0.27,0.3 0.65,0.44 1.15,0.44 0.31,0 0.62,-0.06 0.92,-0.18 0.3,-0.12 0.63,-0.31 0.98,-0.57 0.36,-0.26 0.74,-0.59 1.17,-0.99 0.42,-0.41 0.9,-0.9 1.43,-1.47 0.28,0.3 0.56,0.59 0.86,0.87 0.29,0.29 0.57,0.57 0.85,0.84 -0.86,0.88 -1.65,1.64 -2.35,2.27 -0.71,0.63 -1.4,1.14 -2.06,1.55 -0.67,0.4 -1.32,0.7 -1.96,0.88 -0.63,0.18 -1.3,0.27 -1.99,0.27 -1.24,0 -2.21,-0.4 -2.9,-1.2 -0.69,-0.8 -1.03,-1.9 -1.03,-3.3 0,-0.78 0.12,-1.52 0.36,-2.23 l -0.36,-0.15 c -0.88,1.22 -1.74,2.27 -2.56,3.13 -0.83,0.86 -1.65,1.57 -2.46,2.13 -0.81,0.56 -1.63,0.97 -2.46,1.23 -0.83,0.26 -1.69,0.39 -2.59,0.39 -2.05,0 -3.64,-0.74 -4.76,-2.21 -1.12,-1.48 -1.68,-3.62 -1.68,-6.43 0,-1.68 0.17,-3.28 0.53,-4.83 0.35,-1.54 0.85,-2.99 1.5,-4.35 0.65,-1.35 1.42,-2.58 2.32,-3.7 0.89,-1.11 1.88,-2.06 2.95,-2.86 1.06,-0.79 2.2,-1.41 3.41,-1.85 1.21,-0.44 2.46,-0.66 3.75,-0.66 z m -25.62,0 c 1.25,0 2.42,0.07 3.5,0.21 1.08,0.14 2.2,0.35 3.35,0.65 l -1.45,6.34 h -3.05 c -0.02,-0.9 -0.08,-1.65 -0.19,-2.24 -0.12,-0.6 -0.3,-1.07 -0.55,-1.41 -0.25,-0.35 -0.58,-0.59 -0.98,-0.74 -0.41,-0.15 -0.9,-0.23 -1.49,-0.25 -0.93,0 -1.82,0.21 -2.68,0.63 -0.85,0.41 -1.64,0.98 -2.38,1.72 -0.73,0.73 -1.4,1.59 -2,2.57 -0.61,0.99 -1.12,2.05 -1.56,3.19 -0.43,1.13 -0.76,2.32 -0.99,3.55 -0.24,1.24 -0.35,2.47 -0.35,3.69 0,1.83 0.36,3.22 1.08,4.18 0.73,0.96 1.82,1.44 3.27,1.44 0.81,0 1.56,-0.08 2.25,-0.22 0.69,-0.15 1.36,-0.4 2.02,-0.74 0.65,-0.35 1.33,-0.8 2.03,-1.36 0.7,-0.56 1.47,-1.25 2.31,-2.08 0.33,0.34 0.65,0.68 0.95,1.02 0.3,0.34 0.61,0.68 0.94,1.02 -1.86,1.93 -3.72,3.37 -5.59,4.31 -1.86,0.94 -3.86,1.41 -6,1.41 -2.68,0 -4.72,-0.78 -6.15,-2.34 -1.42,-1.56 -2.13,-3.79 -2.13,-6.69 0,-1.62 0.18,-3.19 0.54,-4.7 0.36,-1.51 0.89,-2.93 1.57,-4.25 0.68,-1.33 1.49,-2.54 2.44,-3.63 0.95,-1.08 2.01,-2.02 3.19,-2.81 1.17,-0.78 2.44,-1.39 3.8,-1.82 1.36,-0.43 2.79,-0.65 4.3,-0.65 z"
       fill-rule="evenodd"
       id="path113" />
    <text
       fill="#000000"
       fill-opacity="0"
       font-family="Arial, Arial_MSFontService, sans-serif"
       font-size="36.8257px"
       x="3133.1201"
       y="1553.51"
       id="text115">𝑐𝑎𝑟𝑔𝑜</text>
    <path
       d="m 3325.05,758.4 1.04,212.301 -6.88,0.033 -1.04,-212.301 z m -17.17,4.667 13.62,-27.567 13.88,27.433 z m 28.5,203 -13.62,27.567 -13.88,-27.433 z"
       fill="#fa8a3a"
       id="path117" />
    <path
       d="m 3137.53,650.179 c -2.42,0 -4.59,0.98 -6.52,2.941 -1.92,1.96 -3.44,4.604 -4.54,7.93 -1.11,3.327 -1.66,6.642 -1.66,9.945 0,2.472 0.34,4.319 1.02,5.543 0.67,1.224 1.81,1.836 3.4,1.836 0.74,0 1.48,-0.161 2.25,-0.481 0.76,-0.321 1.55,-0.838 2.37,-1.551 0.82,-0.713 1.62,-1.58 2.42,-2.602 0.8,-1.022 1.53,-2.05 2.19,-3.083 0.67,-1.034 1.28,-2.258 1.86,-3.672 0.57,-1.414 1.05,-3.119 1.46,-5.115 l 0.32,-1.532 c 0.35,-1.711 0.53,-3.327 0.53,-4.848 0,-1.854 -0.39,-3.202 -1.17,-4.046 -0.79,-0.843 -2.1,-1.265 -3.93,-1.265 z m 14.94,-19.106 h 2.1 l -8.87,39.459 c -0.53,2.329 -0.79,4.087 -0.79,5.275 0,0.951 0.16,1.64 0.47,2.068 0.31,0.427 0.79,0.641 1.46,0.641 0.71,0 1.47,-0.291 2.28,-0.873 0.81,-0.582 1.95,-1.693 3.42,-3.333 l 2.03,1.996 c -2.18,2.305 -4.02,3.933 -5.52,4.884 -1.5,0.95 -3.11,1.425 -4.85,1.425 -1.47,0 -2.65,-0.487 -3.53,-1.461 -0.88,-0.974 -1.32,-2.269 -1.32,-3.885 0,-1.307 0.28,-2.697 0.82,-4.171 l -0.46,-0.142 c -2.28,3.327 -4.44,5.762 -6.49,7.307 -2.04,1.544 -4.2,2.317 -6.49,2.317 -2.61,0 -4.64,-0.986 -6.07,-2.959 -1.44,-1.972 -2.16,-4.74 -2.16,-8.305 0,-4.087 0.8,-8.014 2.41,-11.78 1.6,-3.767 3.8,-6.737 6.61,-8.912 2.8,-2.174 5.93,-3.261 9.37,-3.261 1.45,0 2.79,0.148 4.01,0.446 1.23,0.297 2.48,0.813 3.76,1.55 l 1.86,-8.234 c 0.19,-0.784 0.35,-1.651 0.5,-2.602 0.14,-0.95 0.21,-1.782 0.21,-2.495 0,-0.713 -0.13,-1.253 -0.39,-1.622 -0.26,-0.368 -0.64,-0.635 -1.12,-0.802 -0.49,-0.166 -1.37,-0.285 -2.62,-0.356 l 0.42,-1.854 z"
       fill-rule="evenodd"
       id="path119" />
    <text
       fill="#000000"
       fill-opacity="0"
       font-family="Arial, Arial_MSFontService, sans-serif"
       font-size="51.542px"
       x="3118.5"
       y="676.17297"
       id="text121">𝑑</text>
    <path
       d="m 3237.13,674.055 c -0.77,0 -1.63,0.255 -2.56,0.763 -0.93,0.509 -1.85,1.264 -2.76,2.265 -0.9,1.001 -1.74,2.238 -2.51,3.714 -0.76,1.475 -1.37,3.17 -1.82,5.085 -0.14,0.931 -0.29,1.846 -0.47,2.743 -0.17,0.897 -0.26,1.734 -0.26,2.51 0,1.398 0.32,2.385 0.95,2.963 0.63,0.578 1.64,0.867 3.04,0.867 1.42,0 2.72,-0.453 3.91,-1.358 1.19,-0.906 2.21,-2.092 3.06,-3.559 0.86,-1.466 1.53,-3.114 2.01,-4.943 0.48,-1.828 0.72,-3.674 0.72,-5.538 0,-1.846 -0.26,-3.226 -0.78,-4.14 -0.53,-0.915 -1.37,-1.372 -2.53,-1.372 z m -34.73,-0.906 c -1.02,0 -1.97,0.225 -2.85,0.673 -0.88,0.449 -1.68,1.061 -2.4,1.838 -0.73,0.776 -1.37,1.673 -1.93,2.691 -0.56,1.018 -1.04,2.096 -1.43,3.235 -0.38,1.138 -0.68,2.307 -0.88,3.506 -0.19,1.199 -0.29,2.351 -0.29,3.455 0,1.864 0.26,3.248 0.79,4.154 0.52,0.906 1.37,1.358 2.54,1.358 0.59,0 1.16,-0.103 1.7,-0.31 0.54,-0.207 1.12,-0.535 1.72,-0.983 1.52,-1.191 2.81,-2.64 3.88,-4.348 1.07,-1.708 1.87,-3.727 2.41,-6.056 0.24,-1.069 0.43,-2.036 0.57,-2.898 0.14,-0.863 0.21,-1.682 0.21,-2.459 0,-1.38 -0.33,-2.368 -0.97,-2.963 -0.65,-0.595 -1.67,-0.893 -3.07,-0.893 z m 59.18,-2.303 h 1.26 l -3.83,17.235 c -0.24,1.018 -0.41,1.829 -0.5,2.433 -0.1,0.604 -0.14,1.147 -0.14,1.63 0,0.656 0.13,1.13 0.4,1.424 0.27,0.293 0.67,0.44 1.2,0.44 0.31,0 0.62,-0.061 0.93,-0.181 0.31,-0.121 0.65,-0.311 1,-0.57 0.35,-0.259 0.74,-0.591 1.16,-0.996 0.43,-0.406 0.9,-0.893 1.41,-1.462 l 1.76,1.708 c -0.89,0.914 -1.71,1.686 -2.44,2.316 -0.73,0.63 -1.43,1.143 -2.08,1.54 -0.66,0.396 -1.3,0.681 -1.93,0.854 -0.63,0.172 -1.3,0.258 -2.01,0.258 -0.65,0 -1.25,-0.12 -1.77,-0.362 -0.53,-0.241 -0.98,-0.574 -1.36,-0.996 -0.38,-0.423 -0.67,-0.927 -0.88,-1.514 -0.21,-0.587 -0.31,-1.234 -0.31,-1.941 0,-0.569 0.07,-1.277 0.21,-2.122 0.13,-0.845 0.31,-1.764 0.53,-2.756 0.21,-0.992 0.45,-2.032 0.71,-3.119 0.26,-1.087 0.51,-2.165 0.76,-3.234 0.25,-1.07 0.48,-2.101 0.68,-3.093 0.19,-0.992 0.34,-1.893 0.42,-2.704 0.04,-0.138 0.05,-0.272 0.05,-0.401 0,-0.13 0,-0.246 0,-0.35 -0.03,-0.673 -0.27,-1.164 -0.71,-1.475 -0.44,-0.31 -1.22,-0.483 -2.34,-0.517 l 0.31,-1.76 z m 15.99,-0.259 c 1.28,0 2.27,0.419 2.97,1.255 0.7,0.837 1.04,1.937 1.04,3.3 0,0.345 -0.03,0.707 -0.09,1.087 -0.06,0.379 -0.16,0.742 -0.32,1.087 l 0.36,0.129 c 1.68,-2.294 3.33,-4.011 4.96,-5.15 1.63,-1.138 3.32,-1.708 5.06,-1.708 1.83,0 3.19,0.492 4.1,1.475 0.91,0.984 1.36,2.364 1.36,4.141 0,0.535 -0.08,1.277 -0.23,2.226 -0.16,0.949 -0.36,1.984 -0.6,3.105 -0.24,1.121 -0.5,2.273 -0.78,3.455 -0.27,1.182 -0.53,2.273 -0.77,3.274 -0.24,1 -0.44,1.854 -0.6,2.562 -0.15,0.707 -0.23,1.147 -0.23,1.319 0,0.656 0.12,1.13 0.36,1.424 0.24,0.293 0.63,0.44 1.17,0.44 0.32,0 0.65,-0.061 0.97,-0.181 0.32,-0.121 0.65,-0.311 0.99,-0.57 0.35,-0.259 0.73,-0.591 1.14,-0.996 0.42,-0.406 0.88,-0.893 1.4,-1.462 l 1.79,1.708 c -0.85,0.862 -1.63,1.604 -2.33,2.225 -0.71,0.621 -1.4,1.135 -2.06,1.54 -0.67,0.406 -1.33,0.707 -1.98,0.906 -0.66,0.198 -1.36,0.297 -2.1,0.297 -0.62,0 -1.19,-0.12 -1.72,-0.362 -0.52,-0.241 -0.98,-0.574 -1.36,-0.996 -0.38,-0.423 -0.67,-0.923 -0.88,-1.501 -0.2,-0.578 -0.31,-1.212 -0.31,-1.902 0,-0.69 0.08,-1.497 0.22,-2.42 0.15,-0.923 0.37,-1.937 0.66,-3.041 0.31,-1.121 0.6,-2.195 0.87,-3.222 0.27,-1.026 0.5,-1.975 0.7,-2.846 0.2,-0.872 0.35,-1.648 0.46,-2.329 0.12,-0.682 0.17,-1.247 0.17,-1.695 0,-1.07 -0.2,-1.855 -0.61,-2.355 -0.4,-0.501 -1.05,-0.751 -1.95,-0.751 -0.52,0 -1.07,0.134 -1.67,0.401 -0.59,0.268 -1.19,0.639 -1.8,1.113 -0.6,0.474 -1.19,1.035 -1.77,1.682 -0.58,0.647 -1.11,1.337 -1.59,2.07 -0.48,0.734 -0.91,1.501 -1.28,2.304 -0.37,0.802 -0.65,1.6 -0.82,2.393 l -2.9,12.992 h -5.07 l 3.88,-16.873 c 0.23,-0.898 0.39,-1.7 0.5,-2.407 0.1,-0.707 0.15,-1.285 0.15,-1.734 0,-1.259 -0.51,-1.889 -1.53,-1.889 -0.31,0 -0.62,0.065 -0.94,0.194 -0.32,0.129 -0.66,0.323 -1.01,0.582 -0.35,0.259 -0.74,0.587 -1.15,0.984 -0.42,0.396 -0.88,0.862 -1.4,1.397 l -1.79,-1.682 c 0.87,-0.88 1.66,-1.635 2.37,-2.264 0.72,-0.63 1.4,-1.148 2.05,-1.553 0.64,-0.406 1.29,-0.703 1.93,-0.893 0.63,-0.19 1.31,-0.285 2.01,-0.285 z m -75.64,0 c 1.37,0 2.57,0.16 3.61,0.479 1.05,0.319 2,0.755 2.86,1.307 l 2.51,-1.786 2.1,0.544 -3.91,16.95 c -0.22,0.967 -0.38,1.765 -0.46,2.394 -0.09,0.63 -0.13,1.186 -0.13,1.669 0,0.656 0.13,1.13 0.4,1.424 0.26,0.293 0.65,0.44 1.15,0.44 0.31,0 0.62,-0.061 0.92,-0.181 0.3,-0.121 0.63,-0.311 0.98,-0.57 0.35,-0.259 0.74,-0.591 1.17,-0.996 0.42,-0.406 0.9,-0.893 1.43,-1.462 0.28,0.293 0.56,0.582 0.86,0.867 0.29,0.284 0.57,0.565 0.85,0.841 -0.86,0.88 -1.65,1.634 -2.36,2.264 -0.7,0.63 -1.39,1.147 -2.05,1.553 -0.67,0.405 -1.32,0.699 -1.96,0.88 -0.64,0.181 -1.3,0.271 -1.99,0.271 -1.24,0 -2.21,-0.401 -2.9,-1.203 -0.69,-0.802 -1.03,-1.902 -1.03,-3.299 0,-0.777 0.12,-1.519 0.36,-2.226 l -0.36,-0.155 c -0.88,1.225 -1.74,2.268 -2.56,3.131 -0.83,0.863 -1.65,1.574 -2.46,2.135 -0.81,0.561 -1.63,0.97 -2.46,1.229 -0.83,0.259 -1.69,0.388 -2.59,0.388 -2.05,0 -3.64,-0.737 -4.76,-2.212 -1.12,-1.475 -1.68,-3.619 -1.68,-6.431 0,-1.674 0.17,-3.282 0.53,-4.827 0.35,-1.544 0.85,-2.993 1.5,-4.347 0.64,-1.354 1.42,-2.588 2.31,-3.701 0.9,-1.113 1.88,-2.066 2.95,-2.859 1.07,-0.794 2.21,-1.411 3.42,-1.851 1.21,-0.44 2.46,-0.66 3.75,-0.66 z m -25.63,0 c 1.26,0 2.43,0.069 3.51,0.207 1.08,0.138 2.2,0.354 3.35,0.647 l -1.45,6.341 h -3.05 c -0.02,-0.898 -0.08,-1.644 -0.19,-2.239 -0.12,-0.595 -0.3,-1.065 -0.55,-1.41 -0.25,-0.345 -0.58,-0.591 -0.98,-0.738 -0.41,-0.147 -0.9,-0.228 -1.49,-0.246 -0.93,0 -1.82,0.207 -2.68,0.621 -0.85,0.414 -1.65,0.988 -2.38,1.721 -0.73,0.734 -1.4,1.592 -2,2.575 -0.61,0.984 -1.13,2.045 -1.56,3.183 -0.43,1.139 -0.76,2.325 -0.99,3.559 -0.24,1.233 -0.35,2.463 -0.35,3.687 0,1.829 0.36,3.222 1.08,4.18 0.73,0.957 1.82,1.436 3.26,1.436 0.82,0 1.57,-0.073 2.26,-0.22 0.69,-0.146 1.36,-0.392 2.01,-0.737 0.66,-0.345 1.34,-0.798 2.04,-1.359 0.69,-0.561 1.47,-1.255 2.31,-2.083 0.33,0.345 0.64,0.686 0.95,1.022 0.3,0.336 0.61,0.677 0.94,1.022 -1.86,1.933 -3.73,3.369 -5.59,4.309 -1.86,0.94 -3.86,1.41 -6,1.41 -2.68,0 -4.73,-0.78 -6.15,-2.342 -1.42,-1.561 -2.13,-3.791 -2.13,-6.689 0,-1.622 0.18,-3.188 0.54,-4.697 0.36,-1.51 0.88,-2.929 1.57,-4.257 0.68,-1.329 1.49,-2.537 2.44,-3.623 0.95,-1.087 2.01,-2.023 3.18,-2.808 1.18,-0.785 2.45,-1.393 3.81,-1.825 1.36,-0.431 2.79,-0.647 4.29,-0.647 z m 54.78,-8.902 h 1.86 l -3.62,14.777 0.36,0.181 c 0.88,-1.035 1.72,-1.937 2.52,-2.704 0.8,-0.768 1.59,-1.398 2.36,-1.89 0.77,-0.491 1.53,-0.858 2.29,-1.099 0.76,-0.242 1.54,-0.363 2.35,-0.363 2.04,0 3.61,0.742 4.71,2.226 1.11,1.484 1.66,3.649 1.66,6.495 0,2.485 -0.38,4.827 -1.15,7.027 -0.77,2.199 -1.81,4.127 -3.12,5.784 -1.31,1.656 -2.83,2.963 -4.57,3.92 -1.73,0.958 -3.57,1.436 -5.5,1.436 -1.24,0 -2.39,-0.125 -3.44,-0.375 -1.05,-0.25 -2.08,-0.668 -3.08,-1.255 -0.43,0.242 -0.87,0.509 -1.32,0.802 -0.45,0.294 -0.87,0.57 -1.27,0.828 -0.31,-0.086 -0.64,-0.168 -0.98,-0.245 -0.35,-0.078 -0.67,-0.169 -0.98,-0.272 l 6.21,-27.742 c 0.19,-0.863 0.33,-1.57 0.42,-2.122 0.1,-0.552 0.15,-1.036 0.15,-1.45 0,-0.327 -0.06,-0.612 -0.16,-0.854 -0.1,-0.241 -0.28,-0.435 -0.54,-0.582 -0.26,-0.147 -0.61,-0.254 -1.04,-0.323 -0.43,-0.069 -0.97,-0.112 -1.63,-0.13 l 0.39,-1.76 z m 28.99,-1.268 h 5.18 l -1.27,5.564 h -5.12 z"
       fill-rule="evenodd"
       id="path123" />
    <text
       fill="#000000"
       fill-opacity="0"
       font-family="Arial, Arial_MSFontService, sans-serif"
       font-size="37.0586px"
       x="3160.47"
       y="692.84302"
       id="text125">𝑐𝑎𝑏𝑖𝑛</text>
    <rect
       x="2972.5"
       y="1250.5"
       width="11"
       height="36.999802"
       stroke="#000000"
       stroke-width="4.58333"
       stroke-miterlimit="8"
       fill="#ffffff"
       id="rect127" />
    <rect
       x="2882.5"
       y="1250.5"
       width="11"
       height="36.999802"
       stroke="#000000"
       stroke-width="4.58333"
       stroke-miterlimit="8"
       fill="#ffffff"
       id="rect129" />
    <rect
       x="2891.5"
       y="1297.5"
       width="12"
       height="36.999802"
       stroke="#000000"
       stroke-width="4.58333"
       stroke-miterlimit="8"
       fill="#ffffff"
       id="rect131" />
    <rect
       x="2961.5"
       y="1297.5"
       width="12"
       height="36.999802"
       stroke="#000000"
       stroke-width="4.58333"
       stroke-miterlimit="8"
       fill="#ffffff"
       id="rect133" />
    <path
       d="m 2891.5,1178.17 c 0,-7.55 6.12,-13.67 13.67,-13.67 h 54.66 c 7.55,0 13.67,6.12 13.67,13.67 v 96.66 c 0,7.55 -6.12,13.67 -13.67,13.67 h -54.66 c -7.55,0 -13.67,-6.12 -13.67,-13.67 z"
       stroke="#000000"
       stroke-width="4.58333"
       stroke-miterlimit="8"
       fill="#ffffff"
       fill-rule="evenodd"
       id="path135" />
    <path
       d="m 2881.5,1280.83 c 0,-1.84 1.49,-3.33 3.33,-3.33 h 96.34 c 1.84,0 3.33,1.49 3.33,3.33 v 13.34 c 0,1.84 -1.49,3.33 -3.33,3.33 h -96.34 c -1.84,0 -3.33,-1.49 -3.33,-3.33 z"
       stroke="#000000"
       stroke-width="4.58333"
       stroke-miterlimit="8"
       fill="#ffffff"
       fill-rule="evenodd"
       id="path137" />
    <rect
       x="2903.5"
       y="1180.5"
       width="56.999802"
       height="96.999901"
       stroke="#000000"
       stroke-width="4.58333"
       stroke-miterlimit="8"
       fill="#ffffff"
       id="rect139" />
    <path
       d="m 2898.5,1172.33 c 0,-2.11 1.72,-3.83 3.83,-3.83 h 60.34 c 2.11,0 3.83,1.72 3.83,3.83 v 15.34 c 0,2.11 -1.72,3.83 -3.83,3.83 h -60.34 c -2.11,0 -3.83,-1.72 -3.83,-3.83 z"
       stroke="#000000"
       stroke-width="4.58333"
       stroke-miterlimit="8"
       fill="#ffffff"
       fill-rule="evenodd"
       id="path141" />
    <rect
       x="3082.5"
       y="1250.5"
       width="11"
       height="36.999802"
       stroke="#000000"
       stroke-width="4.58333"
       stroke-miterlimit="8"
       fill="#ffffff"
       id="rect143" />
    <rect
       x="2992.5"
       y="1250.5"
       width="12"
       height="36.999802"
       stroke="#000000"
       stroke-width="4.58333"
       stroke-miterlimit="8"
       fill="#ffffff"
       id="rect145" />
    <rect
       x="3002.5"
       y="1297.5"
       width="11"
       height="36.999802"
       stroke="#000000"
       stroke-width="4.58333"
       stroke-miterlimit="8"
       fill="#ffffff"
       id="rect147" />
    <rect
       x="3071.5"
       y="1297.5"
       width="12"
       height="36.999802"
       stroke="#000000"
       stroke-width="4.58333"
       stroke-miterlimit="8"
       fill="#ffffff"
       id="rect149" />
    <path
       d="m 3002.5,1178 c 0,-7.46 6.04,-13.5 13.5,-13.5 h 54 c 7.46,0 13.5,6.04 13.5,13.5 v 97 c 0,7.46 -6.04,13.5 -13.5,13.5 h -54 c -7.46,0 -13.5,-6.04 -13.5,-13.5 z"
       stroke="#000000"
       stroke-width="4.58333"
       stroke-miterlimit="8"
       fill="#ffffff"
       fill-rule="evenodd"
       id="path151" />
    <path
       d="m 2991.5,1280.83 c 0,-1.84 1.49,-3.33 3.33,-3.33 h 96.34 c 1.84,0 3.33,1.49 3.33,3.33 v 13.34 c 0,1.84 -1.49,3.33 -3.33,3.33 h -96.34 c -1.84,0 -3.33,-1.49 -3.33,-3.33 z"
       stroke="#000000"
       stroke-width="4.58333"
       stroke-miterlimit="8"
       fill="#ffffff"
       fill-rule="evenodd"
       id="path153" />
    <rect
       x="3013.5"
       y="1180.5"
       width="57.999802"
       height="96.999901"
       stroke="#000000"
       stroke-width="4.58333"
       stroke-miterlimit="8"
       fill="#ffffff"
       id="rect155" />
    <path
       d="m 3008.5,1172.33 c 0,-2.11 1.72,-3.83 3.83,-3.83 h 60.34 c 2.11,0 3.83,1.72 3.83,3.83 v 15.34 c 0,2.11 -1.72,3.83 -3.83,3.83 h -60.34 c -2.11,0 -3.83,-1.72 -3.83,-3.83 z"
       stroke="#000000"
       stroke-width="4.58333"
       stroke-miterlimit="8"
       fill="#ffffff"
       fill-rule="evenodd"
       id="path157" />
    <rect
       x="3193.5"
       y="1251.5"
       width="11"
       height="36.999802"
       stroke="#000000"
       stroke-width="4.58333"
       stroke-miterlimit="8"
       fill="#ffffff"
       id="rect159" />
    <rect
       x="3103.5"
       y="1251.5"
       width="12"
       height="36.999802"
       stroke="#000000"
       stroke-width="4.58333"
       stroke-miterlimit="8"
       fill="#ffffff"
       id="rect161" />
    <rect
       x="3113.5"
       y="1298.5"
       width="11"
       height="37.000099"
       stroke="#000000"
       stroke-width="4.58333"
       stroke-miterlimit="8"
       fill="#ffffff"
       id="rect163" />
    <rect
       x="3182.5"
       y="1298.5"
       width="12"
       height="37.000099"
       stroke="#000000"
       stroke-width="4.58333"
       stroke-miterlimit="8"
       fill="#ffffff"
       id="rect165" />
    <path
       d="m 3113.5,1179 c 0,-7.46 6.04,-13.5 13.5,-13.5 h 54 c 7.45,0 13.5,6.04 13.5,13.5 v 96 c 0,7.46 -6.05,13.5 -13.5,13.5 h -54 c -7.46,0 -13.5,-6.04 -13.5,-13.5 z"
       stroke="#000000"
       stroke-width="4.58333"
       stroke-miterlimit="8"
       fill="#ffffff"
       fill-rule="evenodd"
       id="path167" />
    <path
       d="m 3102.5,1281.83 c 0,-1.84 1.49,-3.33 3.33,-3.33 h 96.34 c 1.84,0 3.33,1.49 3.33,3.33 v 13.34 c 0,1.84 -1.49,3.33 -3.33,3.33 h -96.34 c -1.84,0 -3.33,-1.49 -3.33,-3.33 z"
       stroke="#000000"
       stroke-width="4.58333"
       stroke-miterlimit="8"
       fill="#ffffff"
       fill-rule="evenodd"
       id="path169" />
    <rect
       x="3124.5"
       y="1180.5"
       width="58"
       height="98"
       stroke="#000000"
       stroke-width="4.58333"
       stroke-miterlimit="8"
       fill="#ffffff"
       id="rect171" />
    <path
       d="m 3119.5,1173.33 c 0,-2.11 1.72,-3.83 3.83,-3.83 h 60.34 c 2.11,0 3.83,1.72 3.83,3.83 v 15.34 c 0,2.11 -1.72,3.83 -3.83,3.83 h -60.34 c -2.11,0 -3.83,-1.72 -3.83,-3.83 z"
       stroke="#000000"
       stroke-width="4.58333"
       stroke-miterlimit="8"
       fill="#ffffff"
       fill-rule="evenodd"
       id="path173" />
    <rect
       x="3115.5"
       y="915.5"
       width="12"
       height="37.000099"
       stroke="#000000"
       stroke-width="4.58333"
       stroke-miterlimit="8"
       fill="#ffffff"
       id="rect175" />
    <rect
       x="3025.5"
       y="915.5"
       width="12"
       height="37.000099"
       stroke="#000000"
       stroke-width="4.58333"
       stroke-miterlimit="8"
       fill="#ffffff"
       id="rect177" />
    <rect
       x="3035.5"
       y="962.5"
       width="11"
       height="37.000099"
       stroke="#000000"
       stroke-width="4.58333"
       stroke-miterlimit="8"
       fill="#ffffff"
       id="rect179" />
    <rect
       x="3105.5"
       y="962.5"
       width="11"
       height="37.000099"
       stroke="#000000"
       stroke-width="4.58333"
       stroke-miterlimit="8"
       fill="#ffffff"
       id="rect181" />
    <path
       d="m 3035.5,843 c 0,-7.456 6.04,-13.5 13.5,-13.5 h 54 c 7.46,0 13.5,6.044 13.5,13.5 v 96 c 0,7.456 -6.04,13.5 -13.5,13.5 h -54 c -7.46,0 -13.5,-6.044 -13.5,-13.5 z"
       stroke="#000000"
       stroke-width="4.58333"
       stroke-miterlimit="8"
       fill="#ffffff"
       fill-rule="evenodd"
       id="path183" />
    <path
       d="m 3024.5,945.833 c 0,-1.841 1.49,-3.333 3.33,-3.333 h 97.34 c 1.84,0 3.33,1.492 3.33,3.333 v 13.334 c 0,1.841 -1.49,3.333 -3.33,3.333 h -97.34 c -1.84,0 -3.33,-1.492 -3.33,-3.333 z"
       stroke="#000000"
       stroke-width="4.58333"
       stroke-miterlimit="8"
       fill="#ffffff"
       fill-rule="evenodd"
       id="path185" />
    <rect
       x="3046.5"
       y="844.5"
       width="57.999802"
       height="98"
       stroke="#000000"
       stroke-width="4.58333"
       stroke-miterlimit="8"
       fill="#ffffff"
       id="rect187" />
    <path
       d="m 3041.5,837.334 c 0,-2.118 1.72,-3.834 3.83,-3.834 h 60.34 c 2.11,0 3.83,1.716 3.83,3.834 v 15.333 c 0,2.117 -1.72,3.833 -3.83,3.833 h -60.34 c -2.11,0 -3.83,-1.716 -3.83,-3.833 z"
       stroke="#000000"
       stroke-width="4.58333"
       stroke-miterlimit="8"
       fill="#ffffff"
       fill-rule="evenodd"
       id="path189" />
    <rect
       x="3226.5"
       y="915.5"
       width="12"
       height="37.000099"
       stroke="#000000"
       stroke-width="4.58333"
       stroke-miterlimit="8"
       fill="#ffffff"
       id="rect191" />
    <rect
       x="3136.5"
       y="915.5"
       width="12"
       height="37.000099"
       stroke="#000000"
       stroke-width="4.58333"
       stroke-miterlimit="8"
       fill="#ffffff"
       id="rect193" />
    <rect
       x="3146.5"
       y="962.5"
       width="11"
       height="38.000198"
       stroke="#000000"
       stroke-width="4.58333"
       stroke-miterlimit="8"
       fill="#ffffff"
       id="rect195" />
    <rect
       x="3216.5"
       y="962.5"
       width="11"
       height="38.000198"
       stroke="#000000"
       stroke-width="4.58333"
       stroke-miterlimit="8"
       fill="#ffffff"
       id="rect197" />
    <path
       d="m 3146.5,844 c 0,-7.456 6.04,-13.5 13.5,-13.5 h 54 c 7.46,0 13.5,6.044 13.5,13.5 v 96 c 0,7.456 -6.04,13.5 -13.5,13.5 h -54 c -7.46,0 -13.5,-6.044 -13.5,-13.5 z"
       stroke="#000000"
       stroke-width="4.58333"
       stroke-miterlimit="8"
       fill="#ffffff"
       fill-rule="evenodd"
       id="path199" />
    <path
       d="m 3135.5,946.667 c 0,-1.749 1.42,-3.167 3.17,-3.167 h 97.66 c 1.75,0 3.17,1.418 3.17,3.167 v 12.666 c 0,1.749 -1.42,3.167 -3.17,3.167 h -97.66 c -1.75,0 -3.17,-1.418 -3.17,-3.167 z"
       stroke="#000000"
       stroke-width="4.58333"
       stroke-miterlimit="8"
       fill="#ffffff"
       fill-rule="evenodd"
       id="path201" />
    <rect
       x="3157.5"
       y="845.5"
       width="58"
       height="98"
       stroke="#000000"
       stroke-width="4.58333"
       stroke-miterlimit="8"
       fill="#ffffff"
       id="rect203" />
    <path
       d="m 3152.5,837.5 c 0,-2.209 1.79,-4 4,-4 h 60 c 2.21,0 4,1.791 4,4 v 16 c 0,2.209 -1.79,4 -4,4 h -60 c -2.21,0 -4,-1.791 -4,-4 z"
       stroke="#000000"
       stroke-width="4.58333"
       stroke-miterlimit="8"
       fill="#ffffff"
       fill-rule="evenodd"
       id="path205" />
    <rect
       x="3495.5"
       y="914.5"
       width="12"
       height="37.000099"
       stroke="#000000"
       stroke-width="4.58333"
       stroke-miterlimit="8"
       fill="#ffffff"
       id="rect207" />
    <rect
       x="3406.5"
       y="914.5"
       width="11"
       height="37.000099"
       stroke="#000000"
       stroke-width="4.58333"
       stroke-miterlimit="8"
       fill="#ffffff"
       id="rect209" />
    <rect
       x="3415.5"
       y="961.5"
       width="12"
       height="37.000099"
       stroke="#000000"
       stroke-width="4.58333"
       stroke-miterlimit="8"
       fill="#ffffff"
       id="rect211" />
    <rect
       x="3485.5"
       y="961.5"
       width="11"
       height="37.000099"
       stroke="#000000"
       stroke-width="4.58333"
       stroke-miterlimit="8"
       fill="#ffffff"
       id="rect213" />
    <path
       d="m 3415.5,842 c 0,-7.456 6.04,-13.5 13.5,-13.5 h 54 c 7.46,0 13.5,6.044 13.5,13.5 v 97 c 0,7.456 -6.04,13.5 -13.5,13.5 h -54 c -7.46,0 -13.5,-6.044 -13.5,-13.5 z"
       stroke="#000000"
       stroke-width="4.58333"
       stroke-miterlimit="8"
       fill="#ffffff"
       fill-rule="evenodd"
       id="path215" />
    <path
       d="m 3405.5,944.833 c 0,-1.841 1.49,-3.333 3.33,-3.333 h 96.34 c 1.84,0 3.33,1.492 3.33,3.333 v 13.334 c 0,1.841 -1.49,3.333 -3.33,3.333 h -96.34 c -1.84,0 -3.33,-1.492 -3.33,-3.333 z"
       stroke="#000000"
       stroke-width="4.58333"
       stroke-miterlimit="8"
       fill="#ffffff"
       fill-rule="evenodd"
       id="path217" />
    <rect
       x="3427.5"
       y="844.5"
       width="57"
       height="96.999901"
       stroke="#000000"
       stroke-width="4.58333"
       stroke-miterlimit="8"
       fill="#ffffff"
       id="rect219" />
    <path
       d="m 3422.5,836.333 c 0,-2.117 1.72,-3.833 3.83,-3.833 h 60.34 c 2.11,0 3.83,1.716 3.83,3.833 v 15.334 c 0,2.117 -1.72,3.833 -3.83,3.833 h -60.34 c -2.11,0 -3.83,-1.716 -3.83,-3.833 z"
       stroke="#000000"
       stroke-width="4.58333"
       stroke-miterlimit="8"
       fill="#ffffff"
       fill-rule="evenodd"
       id="path221" />
    <rect
       x="3606.5"
       y="915.5"
       width="12"
       height="37.000099"
       stroke="#000000"
       stroke-width="4.58333"
       stroke-miterlimit="8"
       fill="#ffffff"
       id="rect223" />
    <rect
       x="3517.5"
       y="915.5"
       width="11"
       height="37.000099"
       stroke="#000000"
       stroke-width="4.58333"
       stroke-miterlimit="8"
       fill="#ffffff"
       id="rect225" />
    <rect
       x="3526.5"
       y="962.5"
       width="12"
       height="37.000099"
       stroke="#000000"
       stroke-width="4.58333"
       stroke-miterlimit="8"
       fill="#ffffff"
       id="rect227" />
    <rect
       x="3596.5"
       y="962.5"
       width="11"
       height="37.000099"
       stroke="#000000"
       stroke-width="4.58333"
       stroke-miterlimit="8"
       fill="#ffffff"
       id="rect229" />
    <path
       d="m 3526.5,843 c 0,-7.456 6.04,-13.5 13.5,-13.5 h 54 c 7.46,0 13.5,6.044 13.5,13.5 v 97 c 0,7.456 -6.04,13.5 -13.5,13.5 h -54 c -7.46,0 -13.5,-6.044 -13.5,-13.5 z"
       stroke="#000000"
       stroke-width="4.58333"
       stroke-miterlimit="8"
       fill="#ffffff"
       fill-rule="evenodd"
       id="path231" />
    <path
       d="m 3516.5,945.833 c 0,-1.841 1.49,-3.333 3.33,-3.333 h 96.34 c 1.84,0 3.33,1.492 3.33,3.333 v 13.333 c 0,1.841 -1.49,3.334 -3.33,3.334 h -96.34 c -1.84,0 -3.33,-1.493 -3.33,-3.334 z"
       stroke="#000000"
       stroke-width="4.58333"
       stroke-miterlimit="8"
       fill="#ffffff"
       fill-rule="evenodd"
       id="path233" />
    <rect
       x="3538.5"
       y="844.5"
       width="57"
       height="98"
       stroke="#000000"
       stroke-width="4.58333"
       stroke-miterlimit="8"
       fill="#ffffff"
       id="rect235" />
    <path
       d="m 3533.5,837.334 c 0,-2.118 1.72,-3.834 3.83,-3.834 h 60.34 c 2.11,0 3.83,1.716 3.83,3.834 v 15.333 c 0,2.117 -1.72,3.833 -3.83,3.833 h -60.34 c -2.11,0 -3.83,-1.716 -3.83,-3.833 z"
       stroke="#000000"
       stroke-width="4.58333"
       stroke-miterlimit="8"
       fill="#ffffff"
       fill-rule="evenodd"
       id="path237" />
  </g>
</svg>
